42dotSans.glyphspackage
{
color = 0;
glyphname = exclam;
layers = (
{
layerId = m003;
shapes = (
{
closed = 1;
nodes = (
(95,488,l),
(102,178,l),
(148,178,l),
(155,488,l),
(159,707,l),
(91,707,l)
);
},
{
closed = 1;
nodes = (
(80,0,l),
(169,0,l),
(169,93,l),
(80,93,l)
);
}
);
width = 249;
},
{
layerId = m01;
shapes = (
{
closed = 1;
nodes = (
(81,498,l),
(93,188,l),
(159,188,l),
(171,498,l),
(175,707,l),
(77,707,l)
);
},
{
closed = 1;
nodes = (
(72,0,l),
(180,0,l),
(180,110,l),
(72,110,l)
);
}
);
width = 252;
},
{
layerId = "54FF0D0B-6EB9-4889-908D-B8898FFCE7DE";
shapes = (
{
closed = 1;
nodes = (
(75,504,l),
(90,193,l),
(167,193,l),
(182,504,l),
(186,707,l),
(71,707,l)
);
},
{
closed = 1;
nodes = (
(69,0,l),
(188,0,l),
(188,119,l),
(69,119,l)
);
}
);
width = 257;
},
{
layerId = "E7059794-B319-4C6D-9648-9B840A1B2BBD";
shapes = (
{
closed = 1;
nodes = (
(68,514,l),
(88,202,l),
(185,202,l),
(205,514,l),
(209,707,l),
(64,707,l)
);
},
{
closed = 1;
nodes = (
(68,0,l),
(205,0,l),
(205,135,l),
(68,135,l)
);
}
);
width = 273;
},
{
layerId = m005;
shapes = (
{
closed = 1;
nodes = (
(67,518,l),
(89,206,l),
(195,206,l),
(217,518,l),
(221,707,l),
(63,707,l)
);
},
{
closed = 1;
nodes = (
(69,0,l),
(215,0,l),
(215,142,l),
(69,142,l)
);
}
);
width = 284;
}
);
unicode = 33;
}
{
color = 0;
glyphname = percent;
layers = (
{
layerId = m003;
shapes = (
{
closed = 1;
nodes = (
(283,422,o),
(343,462,o),
(343,570,cs),
(343,676,o),
(284,717,o),
(207,717,cs),
(131,717,o),
(70,676,o),
(70,570,cs),
(70,462,o),
(130,422,o),
(207,422,cs)
);
},
{
closed = 1;
nodes = (
(117,651,o),
(159,674,o),
(207,675,cs),
(256,675,o),
(296,651,o),
(296,570,cs),
(296,488,o),
(256,465,o),
(207,465,cs),
(158,465,o),
(117,488,o),
(117,570,cs)
);
},
{
closed = 1;
nodes = (
(140,0,l),
(201,0,l),
(689,712,l),
(628,712,l)
);
},
{
closed = 1;
nodes = (
(487,31,o),
(546,-10,o),
(623,-10,cs),
(699,-10,o),
(759,31,o),
(759,138,cs),
(759,245,o),
(700,285,o),
(623,286,cs),
(547,285,o),
(485,245,o),
(486,138,cs)
);
},
{
closed = 1;
nodes = (
(533,220,o),
(575,242,o),
(623,243,cs),
(672,243,o),
(712,220,o),
(712,138,cs),
(712,57,o),
(671,33,o),
(623,33,cs),
(574,33,o),
(533,57,o),
(533,138,cs)
);
}
);
width = 827;
},
{
layerId = m01;
shapes = (
{
closed = 1;
nodes = (
(305,399,o),
(368,449,o),
(368,560,cs),
(368,670,o),
(306,719,o),
(217,719,cs),
(129,719,o),
(65,669,o),
(65,560,cs),
(65,449,o),
(128,399,o),
(217,399,cs)
);
},
{
closed = 1;
nodes = (
(137,635,o),
(172,658,o),
(217,659,cs),
(263,659,o),
(296,635,o),
(296,560,cs),
(296,484,o),
(263,461,o),
(217,461,cs),
(171,461,o),
(137,484,o),
(137,560,cs)
);
},
{
closed = 1;
nodes = (
(139,0,l),
(221,0,l),
(710,712,l),
(627,712,l)
);
},
{
closed = 1;
nodes = (
(482,38,o),
(544,-12,o),
(633,-12,cs),
(721,-12,o),
(784,38,o),
(784,148,cs),
(784,258,o),
(722,308,o),
(633,309,cs),
(545,308,o),
(480,258,o),
(481,148,cs)
);
},
{
closed = 1;
nodes = (
(553,224,o),
(588,247,o),
(633,248,cs),
(679,248,o),
(712,224,o),
(712,148,cs),
(712,73,o),
(678,50,o),
(633,50,cs),
(587,50,o),
(553,73,o),
(553,148,cs)
);
}
);
width = 847;
},
{
layerId = "54FF0D0B-6EB9-4889-908D-B8898FFCE7DE";
shapes = (
{
closed = 1;
nodes = (
(315,388,o),
(381,443,o),
(381,555,cs),
(381,667,o),
(316,720,o),
(221,720,cs),
(127,720,o),
(61,666,o),
(61,555,cs),
(61,443,o),
(126,388,o),
(221,388,cs)
);
},
{
closed = 1;
nodes = (
(148,625,o),
(178,648,o),
(221,649,cs),
(264,649,o),
(294,626,o),
(294,555,cs),
(294,484,o),
(264,461,o),
(221,461,cs),
(178,461,o),
(148,484,o),
(148,555,cs)
);
},
{
closed = 1;
nodes = (
(137,0,l),
(232,0,l),
(721,712,l),
(625,712,l)
);
},
{
closed = 1;
nodes = (
(478,42,o),
(542,-13,o),
(637,-13,cs),
(731,-13,o),
(796,42,o),
(796,153,cs),
(796,265,o),
(732,319,o),
(637,320,cs),
(542,319,o),
(476,264,o),
(477,153,cs)
);
},
{
closed = 1;
nodes = (
(564,224,o),
(594,247,o),
(637,248,cs),
(680,248,o),
(709,225,o),
(709,153,cs),
(709,83,o),
(679,60,o),
(637,60,cs),
(593,60,o),
(564,83,o),
(564,153,cs)
);
}
);
width = 857;
},
{
layerId = "E7059794-B319-4C6D-9648-9B840A1B2BBD";
shapes = (
{
closed = 1;
nodes = (
(330,372,o),
(399,433,o),
(399,548,cs),
(399,662,o),
(330,722,o),
(227,722,cs),
(124,722,o),
(55,661,o),
(55,548,cs),
(55,433,o),
(123,372,o),
(227,372,cs)
);
},
{
closed = 1;
nodes = (
(165,610,o),
(187,632,o),
(227,633,cs),
(266,633,o),
(290,612,o),
(290,548,cs),
(290,483,o),
(266,461,o),
(227,461,cs),
(187,461,o),
(165,483,o),
(165,548,cs)
);
},
{
closed = 1;
nodes = (
(136,0,l),
(254,0,l),
(743,712,l),
(625,712,l)
);
},
{
closed = 1;
nodes = (
(481,47,o),
(548,-15,o),
(652,-15,cs),
(755,-15,o),
(824,47,o),
(824,161,cs),
(824,275,o),
(756,336,o),
(652,337,cs),
(548,336,o),
(479,273,o),
(480,161,cs)
);
},
{
closed = 1;
nodes = (
(590,224,o),
(612,246,o),
(652,247,cs),
(691,247,o),
(715,226,o),
(715,161,cs),
(715,97,o),
(691,75,o),
(652,75,cs),
(612,75,o),
(590,97,o),
(590,161,cs)
);
}
);
width = 879;
},
{
layerId = m005;
shapes = (
{
closed = 1;
nodes = (
(335,366,o),
(405,430,o),
(405,545,cs),
(405,660,o),
(334,722,o),
(229,722,cs),
(123,722,o),
(53,659,o),
(53,545,cs),
(53,430,o),
(122,366,o),
(229,366,cs)
);
},
{
closed = 1;
nodes = (
(170,605,o),
(190,627,o),
(229,628,cs),
(266,628,o),
(288,607,o),
(288,545,cs),
(288,483,o),
(266,461,o),
(229,461,cs),
(190,461,o),
(170,483,o),
(170,545,cs)
);
},
{
closed = 1;
nodes = (
(139,0,l),
(264,0,l),
(753,712,l),
(628,712,l)
);
},
{
closed = 1;
nodes = (
(489,49,o),
(557,-15,o),
(664,-15,cs),
(770,-15,o),
(839,49,o),
(839,163,cs),
(839,278,o),
(771,341,o),
(664,342,cs),
(556,341,o),
(487,276,o),
(488,163,cs)
);
},
{
closed = 1;
nodes = (
(605,224,o),
(625,246,o),
(664,247,cs),
(701,247,o),
(723,226,o),
(723,163,cs),
(723,102,o),
(701,80,o),
(664,80,cs),
(625,80,o),
(605,102,o),
(605,163,cs)
);
}
);
width = 892;
}
);
unicode = 37;
}
{
color = 0;
glyphname = quotesingle;
layers = (
{
associatedMasterId = m003;
layerId = "8C078973-7628-43B3-B42D-57A59EE59B1E";
name = "24년 9월 19일 11:39";
shapes = (
{
closed = 1;
nodes = (
(150,712,l),
(90,712,l),
(95,481,l),
(145,481,l)
);
}
);
width = 240;
},
{
layerId = m003;
name = Light;
shapes = (
{
closed = 1;
nodes = (
(167,757,l),
(102,757,l),
(46,510,l),
(102,510,l)
);
}
);
width = 213;
},
{
associatedMasterId = m01;
layerId = "33F2DFF9-7918-42F6-AC4E-B530DDDA6C49";
name = "24년 9월 19일 11:40";
shapes = (
{
closed = 1;
nodes = (
(169,712,l),
(85,712,l),
(90,476,l),
(164,476,l)
);
}
);
width = 254;
},
{
layerId = m01;
name = Regular;
shapes = (
{
closed = 1;
nodes = (
(183,757,l),
(100,757,l),
(46,492,l),
(118,492,l)
);
}
);
width = 229;
},
{
associatedMasterId = "54FF0D0B-6EB9-4889-908D-B8898FFCE7DE";
layerId = "A88B1855-09E6-4031-847F-91BF4A64BB2F";
name = "24년 9월 19일 11:41";
shapes = (
{
closed = 1;
nodes = (
(178,712,l),
(82,712,l),
(87,474,l),
(173,474,l)
);
}
);
width = 259;
},
{
layerId = "54FF0D0B-6EB9-4889-908D-B8898FFCE7DE";
name = Medium;
shapes = (
{
closed = 1;
nodes = (
(192,757,l),
(98,757,l),
(45,483,l),
(131,483,l)
);
}
);
width = 237;
},
{
associatedMasterId = "E7059794-B319-4C6D-9648-9B840A1B2BBD";
layerId = "62B098AB-34C7-4E5F-A544-CC9CBB2EF9CC";
name = "24년 9월 19일 11:41";
shapes = (
{
closed = 1;
nodes = (
(194,712,l),
(76,712,l),
(82,469,l),
(188,469,l)
);
}
);
width = 269;
},
{
layerId = "E7059794-B319-4C6D-9648-9B840A1B2BBD";
name = SemiBold;
shapes = (
{
closed = 1;
nodes = (
(204,757,l),
(96,757,l),
(47,474,l),
(143,474,l)
);
}
);
width = 251;
},
{
associatedMasterId = m005;
layerId = "9C68086C-A179-415B-9D04-35CFF34A00E7";
name = "24년 9월 19일 11:41";
shapes = (
{
closed = 1;
nodes = (
(201,712,l),
(73,712,l),
(80,466,l),
(194,466,l)
);
}
);
width = 274;
},
{
layerId = m005;
name = Bold;
shapes = (
{
closed = 1;
nodes = (
(211,757,l),
(97,757,l),
(49,465,l),
(148,465,l)
);
}
);
width = 260;
}
);
unicode = 39;
}
{
color = 0;
glyphname = parenleft;
layers = (
{
layerId = m003;
shapes = (
{
closed = 1;
nodes = (
(92,70,o),
(181,-73,o),
(255,-153,c),
(324,-153,l),
(226,-46,o),
(152,87,o),
(152,318,cs),
(152,549,o),
(226,681,o),
(324,788,c),
(255,788,l),
(181,708,o),
(92,566,o),
(92,318,cs)
);
}
);
width = 372;
},
{
layerId = m01;
shapes = (
{
closed = 1;
nodes = (
(87,70,o),
(176,-73,o),
(252,-153,c),
(339,-153,l),
(241,-51,o),
(167,87,o),
(167,318,cs),
(167,549,o),
(241,686,o),
(339,788,c),
(252,788,l),
(176,708,o),
(87,566,o),
(87,318,cs)
);
}
);
width = 382;
},
{
layerId = "54FF0D0B-6EB9-4889-908D-B8898FFCE7DE";
shapes = (
{
closed = 1;
nodes = (
(82,70,o),
(171,-73,o),
(247,-153,c),
(345,-153,l),
(247,-51,o),
(173,87,o),
(173,318,cs),
(173,549,o),
(247,686,o),
(345,788,c),
(247,788,l),
(171,708,o),
(82,566,o),
(82,318,cs)
);
}
);
width = 386;
},
{
layerId = "E7059794-B319-4C6D-9648-9B840A1B2BBD";
shapes = (
{
closed = 1;
nodes = (
(74,70,o),
(163,-73,o),
(239,-153,c),
(356,-153,l),
(258,-51,o),
(184,87,o),
(184,318,cs),
(184,549,o),
(258,686,o),
(356,788,c),
(239,788,l),
(163,708,o),
(74,566,o),
(74,318,cs)
);
}
);
width = 392;
},
{
layerId = m005;
shapes = (
{
closed = 1;
nodes = (
(70,70,o),
(159,-73,o),
(235,-153,c),
(361,-153,l),
(263,-51,o),
(188,87,o),
(188,318,cs),
(188,549,o),
(263,686,o),
(361,788,c),
(235,788,l),
(159,708,o),
(70,566,o),
(70,318,cs)
);
}
);
width = 394;
}
);
unicode = 40;
}
{
color = 0;
glyphname = parenright;
layers = (
{
layerId = m003;
shapes = (
{
closed = 1;
nodes = (
(280,566,o),
(191,708,o),
(117,788,c),
(48,788,l),
(146,681,o),
(220,549,o),
(220,318,cs),
(220,87,o),
(146,-46,o),
(48,-153,c),
(117,-153,l),
(191,-73,o),
(280,70,o),
(280,318,cs)
);
}
);
width = 372;
},
{
layerId = m01;
shapes = (
{
closed = 1;
nodes = (
(295,566,o),
(206,708,o),
(130,788,c),
(43,788,l),
(141,686,o),
(215,549,o),
(215,318,cs),
(215,87,o),
(141,-51,o),
(43,-153,c),
(130,-153,l),
(206,-73,o),
(295,70,o),
(295,318,cs)
);
}
);
width = 382;
},
{
layerId = "54FF0D0B-6EB9-4889-908D-B8898FFCE7DE";
shapes = (
{
closed = 1;
nodes = (
(304,566,o),
(215,708,o),
(139,788,c),
(41,788,l),
(139,686,o),
(213,549,o),
(213,318,cs),
(213,87,o),
(139,-51,o),
(41,-153,c),
(139,-153,l),
(215,-73,o),
(304,70,o),
(304,318,cs)
);
}
);
width = 386;
},
{
layerId = "E7059794-B319-4C6D-9648-9B840A1B2BBD";
shapes = (
{
closed = 1;
nodes = (
(318,566,o),
(229,708,o),
(153,788,c),
(36,788,l),
(134,686,o),
(208,549,o),
(208,318,cs),
(208,87,o),
(134,-51,o),
(36,-153,c),
(153,-153,l),
(229,-73,o),
(318,70,o),
(318,318,cs)
);
}
);
width = 392;
},
{
layerId = m005;
shapes = (
{
closed = 1;
nodes = (
(324,566,o),
(235,708,o),
(159,788,c),
(33,788,l),
(131,686,o),
(206,549,o),
(206,318,cs),
(206,87,o),
(131,-51,o),
(33,-153,c),
(159,-153,l),
(235,-73,o),
(324,70,o),
(324,318,cs)
);
}
);
width = 394;
}
);
unicode = 41;
}
{
color = 0;
glyphname = plus;
layers = (
{
layerId = m003;
shapes = (
{
closed = 1;
nodes = (
(243,93,l),
(303,93,l),
(303,290,l),
(486,290,l),
(486,342,l),
(303,342,l),
(303,539,l),
(243,539,l),
(243,342,l),
(60,342,l),
(60,290,l),
(243,290,l)
);
}
);
width = 546;
},
{
layerId = m01;
shapes = (
{
closed = 1;
nodes = (
(242,81,l),
(326,81,l),
(326,280,l),
(510,280,l),
(510,354,l),
(326,354,l),
(326,553,l),
(242,553,l),
(242,354,l),
(58,354,l),
(58,280,l),
(242,280,l)
);
}
);
width = 568;
},
{
layerId = "54FF0D0B-6EB9-4889-908D-B8898FFCE7DE";
shapes = (
{
closed = 1;
nodes = (
(238,75,l),
(337,75,l),
(337,276,l),
(520,276,l),
(520,359,l),
(337,359,l),
(337,560,l),
(238,560,l),
(238,359,l),
(55,359,l),
(55,276,l),
(238,276,l)
);
}
);
width = 575;
},
{
layerId = "E7059794-B319-4C6D-9648-9B840A1B2BBD";
shapes = (
{
closed = 1;
nodes = (
(232,63,l),
(357,63,l),
(357,266,l),
(538,266,l),
(538,369,l),
(357,369,l),
(357,571,l),
(232,571,l),
(232,369,l),
(51,369,l),
(51,266,l),
(232,266,l)
);
}
);
width = 589;
},
{
layerId = m005;
shapes = (
{
closed = 1;
nodes = (
(230,58,l),
(366,58,l),
(366,260,l),
(546,260,l),
(546,374,l),
(366,374,l),
(366,576,l),
(230,576,l),
(230,374,l),
(50,374,l),
(50,260,l),
(230,260,l)
);
}
);
width = 596;
}
);
unicode = 43;
}
{
color = 0;
glyphname = comma;
kernLeft = KO_comma;
kernRight = KO_comma;
layers = (
{
layerId = m003;
shapes = (
{
closed = 1;
nodes = (
(172,93,l),
(93,93,l),
(47,-155,l),
(99,-155,l)
);
}
);
width = 259;
},
{
layerId = m01;
shapes = (
{
closed = 1;
nodes = (
(190,110,l),
(90,110,l),
(46,-155,l),
(111,-155,l)
);
}
);
width = 277;
},
{
layerId = "54FF0D0B-6EB9-4889-908D-B8898FFCE7DE";
shapes = (
{
closed = 1;
nodes = (
(199,120,l),
(93,120,l),
(45,-155,l),
(118,-155,l)
);
}
);
width = 284;
},
{
layerId = "E7059794-B319-4C6D-9648-9B840A1B2BBD";
shapes = (
{
closed = 1;
nodes = (
(215,137,l),
(98,137,l),
(47,-155,l),
(127,-155,l)
);
}
);
width = 301;
},
{
layerId = m005;
shapes = (
{
closed = 1;
nodes = (
(225,145,l),
(96,145,l),
(46,-155,l),
(133,-155,l)
);
}
);
width = 310;
}
);
unicode = 44;
userData = {
KernOnSpecialSpacing = {
L = period;
R = period;
};
};
}
{
color = 0;
glyphname = period;
kernLeft = KO_period;
kernRight = KO_period;
layers = (
{
layerId = m003;
shapes = (
{
closed = 1;
nodes = (
(82,0,l),
(171,0,l),
(171,93,l),
(82,93,l)
);
}
);
width = 253;
},
{
layerId = m01;
shapes = (
{
closed = 1;
nodes = (
(80,0,l),
(188,0,l),
(188,110,l),
(80,110,l)
);
}
);
width = 268;
},
{
layerId = "54FF0D0B-6EB9-4889-908D-B8898FFCE7DE";
shapes = (
{
closed = 1;
nodes = (
(78,0,l),
(197,0,l),
(197,120,l),
(78,120,l)
);
}
);
width = 275;
},
{
layerId = "E7059794-B319-4C6D-9648-9B840A1B2BBD";
shapes = (
{
closed = 1;
nodes = (
(75,0,l),
(213,0,l),
(213,137,l),
(75,137,l)
);
}
);
width = 288;
},
{
layerId = m005;
shapes = (
{
closed = 1;
nodes = (
(74,0,l),
(220,0,l),
(220,144,l),
(74,144,l)
);
}
);
width = 294;
}
);
unicode = 46;
userData = {
KernOnSpecialSpacing = {
L = period;
R = period;
};
};
}
{
color = 0;
glyphname = slash;
layers = (
{
layerId = m003;
shapes = (
{
closed = 1;
nodes = (
(305,745,l),
(249,745,l),
(19,-106,l),
(75,-106,l)
);
}
);
width = 324;
},
{
layerId = m01;
shapes = (
{
closed = 1;
nodes = (
(322,745,l),
(247,745,l),
(17,-106,l),
(92,-106,l)
);
}
);
width = 339;
},
{
layerId = "54FF0D0B-6EB9-4889-908D-B8898FFCE7DE";
shapes = (
{
closed = 1;
nodes = (
(337,745,l),
(246,745,l),
(16,-106,l),
(107,-106,l)
);
}
);
width = 353;
},
{
layerId = "E7059794-B319-4C6D-9648-9B840A1B2BBD";
shapes = (
{
closed = 1;
nodes = (
(360,745,l),
(243,745,l),
(14,-106,l),
(131,-106,l)
);
}
);
width = 374;
},
{
layerId = m005;
shapes = (
{
closed = 1;
nodes = (
(368,745,l),
(242,745,l),
(13,-106,l),
(139,-106,l)
);
}
);
width = 381;
}
);
unicode = 47;
}
{
color = 0;
glyphname = two;
layers = (
{
layerId = m003;
shapes = (
{
closed = 1;
nodes = (
(57,0,l),
(500,0,l),
(500,52,l),
(107,52,l),
(103,18,l),
(331,262,ls),
(460,400,o),
(491,454,o),
(491,531,cs),
(491,646,o),
(414,717,o),
(281,717,cs),
(153,717,o),
(60,639,o),
(62,510,c),
(120,510,l),
(117,606,o),
(184,665,o),
(278,665,cs),
(371,665,o),
(432,618,o),
(432,531,cs),
(432,462,o),
(390,406,o),
(299,308,cs),
(57,49,l)
);
}
);
width = 557;
},
{
layerId = m01;
shapes = (
{
closed = 1;
nodes = (
(54,0,l),
(512,0,l),
(512,74,l),
(114,74,l),
(132,37,l),
(339,255,ls),
(463,385,o),
(503,441,o),
(503,521,cs),
(503,641,o),
(420,717,o),
(285,717,cs),
(152,717,o),
(58,635,o),
(59,505,c),
(142,505,l),
(142,594,o),
(196,643,o),
(282,643,cs),
(366,643,o),
(419,603,o),
(419,521,cs),
(419,455,o),
(378,405,o),
(294,316,cs),
(54,64,l)
);
}
);
width = 566;
},
{
layerId = "54FF0D0B-6EB9-4889-908D-B8898FFCE7DE";
shapes = (
{
closed = 1;
nodes = (
(51,0,l),
(516,0,l),
(516,83,l),
(131,83,l),
(146,47,l),
(343,254,ls),
(464,381,o),
(509,435,o),
(509,516,cs),
(509,639,o),
(422,717,o),
(286,717,cs),
(148,717,o),
(53,633,o),
(54,503,c),
(152,503,l),
(153,589,o),
(200,634,o),
(283,634,cs),
(362,634,o),
(411,596,o),
(411,516,cs),
(411,452,o),
(371,405,o),
(290,320,cs),
(51,69,l)
);
}
);
width = 567;
},
{
layerId = "E7059794-B319-4C6D-9648-9B840A1B2BBD";
shapes = (
{
closed = 1;
nodes = (
(47,0,l),
(527,0,l),
(527,104,l),
(166,104,l),
(180,66,l),
(356,247,ls),
(473,366,o),
(520,422,o),
(520,506,cs),
(520,634,o),
(427,717,o),
(289,717,cs),
(145,717,o),
(50,629,o),
(50,498,c),
(173,498,l),
(176,577,o),
(211,614,o),
(286,614,cs),
(355,614,o),
(396,582,o),
(396,506,cs),
(396,445,o),
(358,404,o),
(284,328,cs),
(47,82,l)
);
}
);
width = 573;
},
{
layerId = m005;
shapes = (
{
closed = 1;
nodes = (
(46,0,l),
(533,0,l),
(533,115,l),
(185,115,l),
(199,75,l),
(365,241,ls),
(480,356,o),
(525,415,o),
(525,501,cs),
(525,631,o),
(430,717,o),
(291,717,cs),
(147,717,o),
(51,627,o),
(51,495,c),
(184,495,l),
(189,571,o),
(217,602,o),
(288,602,cs),
(353,602,o),
(390,574,o),
(390,501,cs),
(390,441,o),
(352,403,o),
(282,332,cs),
(45,90,l)
);
}
);
width = 578;
}
);
unicode = 50;
}
{
color = 0;
glyphname = six;
layers = (
{
layerId = m003;
shapes = (
{
closed = 1;
nodes = (
(68,82,o),
(147,-10,o),
(297,-10,cs),
(445,-10,o),
(525,81,o),
(525,217,cs),
(525,358,o),
(443,441,o),
(297,441,cs),
(239,441,o),
(214,428,o),
(173,402,c),
(181,393,l),
(418,707,l),
(347,707,l),
(172,473,ls),
(91,365,o),
(70,299,o),
(69,222,cs)
);
},
{
closed = 1;
nodes = (
(128,324,o),
(190,389,o),
(297,389,cs),
(415,389,o),
(466,324,o),
(466,217,cs),
(466,110,o),
(416,42,o),
(297,42,cs),
(177,42,o),
(128,110,o),
(128,217,cs)
);
}
);
width = 593;
},
{
layerId = m01;
shapes = (
{
closed = 1;
nodes = (
(65,82,o),
(150,-10,o),
(302,-10,cs),
(453,-10,o),
(538,81,o),
(538,219,cs),
(538,357,o),
(451,445,o),
(310,445,cs),
(256,445,o),
(221,425,o),
(196,414,c),
(205,387,l),
(441,707,l),
(344,707,l),
(172,473,ls),
(91,363,o),
(67,296,o),
(66,224,cs)
);
},
{
closed = 1;
nodes = (
(150,315,o),
(207,371,o),
(302,371,cs),
(408,371,o),
(454,315,o),
(454,219,cs),
(454,123,o),
(408,64,o),
(302,64,cs),
(195,64,o),
(150,123,o),
(150,219,cs)
);
}
);
width = 603;
},
{
layerId = "54FF0D0B-6EB9-4889-908D-B8898FFCE7DE";
shapes = (
{
closed = 1;
nodes = (
(62,82,o),
(150,-10,o),
(304,-10,cs),
(456,-10,o),
(545,81,o),
(545,220,cs),
(545,356,o),
(454,447,o),
(316,447,cs),
(265,447,o),
(221,427,o),
(198,414,c),
(203,369,l),
(452,707,l),
(341,707,l),
(171,474,ls),
(90,363,o),
(64,294,o),
(63,225,cs)
);
},
{
closed = 1;
nodes = (
(160,311,o),
(215,364,o),
(304,364,cs),
(403,364,o),
(447,311,o),
(447,220,cs),
(447,130,o),
(403,73,o),
(304,73,cs),
(203,73,o),
(160,130,o),
(160,220,cs)
);
}
);
width = 607;
},
{
layerId = "E7059794-B319-4C6D-9648-9B840A1B2BBD";
shapes = (
{
closed = 1;
nodes = (
(58,82,o),
(151,-10,o),
(307,-10,cs),
(462,-10,o),
(556,82,o),
(556,223,cs),
(556,355,o),
(460,451,o),
(327,451,cs),
(282,451,o),
(222,430,o),
(203,414,c),
(200,331,l),
(473,707,l),
(336,707,l),
(169,474,ls),
(88,361,o),
(59,291,o),
(59,228,cs)
);
},
{
closed = 1;
nodes = (
(181,302,o),
(230,349,o),
(307,349,cs),
(394,349,o),
(433,302,o),
(433,223,cs),
(433,143,o),
(394,93,o),
(307,93,cs),
(220,93,o),
(181,143,o),
(181,223,cs)
);
}
);
width = 614;
},
{
layerId = m005;
shapes = (
{
closed = 1;
nodes = (
(56,82,o),
(152,-10,o),
(309,-10,cs),
(465,-10,o),
(560,82,o),
(560,224,cs),
(560,355,o),
(463,453,o),
(333,453,cs),
(291,453,o),
(222,431,o),
(206,414,c),
(199,312,l),
(484,707,l),
(334,707,l),
(168,474,ls),
(87,360,o),
(57,290,o),
(57,229,cs)
);
},
{
closed = 1;
nodes = (
(192,298,o),
(238,341,o),
(309,341,cs),
(390,341,o),
(426,298,o),
(426,224,cs),
(426,150,o),
(389,104,o),
(309,104,cs),
(228,104,o),
(192,150,o),
(192,224,cs)
);
}
);
width = 616;
}
);
note = cid13007;
unicode = 54;
}
{
color = 0;
glyphname = seven;
kernRight = KO_seven;
layers = (
{
layerId = m003;
shapes = (
{
closed = 1;
nodes = (
(97,0,l),
(162,0,l),
(491,660,l),
(491,707,l),
(41,707,l),
(41,655,l),
(456,655,l),
(441,683,l)
);
}
);
width = 521;
},
{
layerId = m01;
shapes = (
{
closed = 1;
nodes = (
(89,0,l),
(181,0,l),
(504,643,l),
(504,707,l),
(39,707,l),
(39,633,l),
(440,633,l),
(432,676,l)
);
}
);
width = 532;
},
{
layerId = "54FF0D0B-6EB9-4889-908D-B8898FFCE7DE";
shapes = (
{
closed = 1;
nodes = (
(84,0,l),
(190,0,l),
(510,636,l),
(510,707,l),
(37,707,l),
(37,624,l),
(446,624,l),
(426,673,l)
);
}
);
width = 536;
},
{
layerId = "E7059794-B319-4C6D-9648-9B840A1B2BBD";
shapes = (
{
closed = 1;
nodes = (
(75,0,l),
(207,0,l),
(521,620,l),
(521,707,l),
(34,707,l),
(34,604,l),
(459,604,l),
(415,666,l)
);
}
);
width = 544;
},
{
layerId = m005;
shapes = (
{
closed = 1;
nodes = (
(70,0,l),
(216,0,l),
(527,611,l),
(527,707,l),
(32,707,l),
(32,592,l),
(465,592,l),
(410,662,l)
);
}
);
width = 549;
}
);
note = cid13008;
unicode = 55;
}
{
color = 0;
glyphname = nine;
kernRight = KO_nine;
layers = (
{
layerId = m003;
shapes = (
{
closed = 1;
nodes = (
(524,625,o),
(446,717,o),
(296,717,cs),
(148,717,o),
(68,627,o),
(68,491,cs),
(68,349,o),
(150,266,o),
(296,266,cs),
(350,266,o),
(377,280,o),
(430,315,c),
(423,334,l),
(197,0,l),
(267,0,l),
(421,235,ls),
(495,347,o),
(522,408,o),
(523,486,cs)
);
},
{
closed = 1;
nodes = (
(466,384,o),
(403,321,o),
(296,321,cs),
(178,321,o),
(127,384,o),
(127,491,cs),
(127,598,o),
(177,663,o),
(296,663,cs),
(416,663,o),
(466,598,o),
(466,491,cs)
);
}
);
width = 588;
},
{
layerId = m01;
shapes = (
{
closed = 1;
nodes = (
(537,625,o),
(453,717,o),
(301,717,cs),
(150,717,o),
(65,626,o),
(65,488,cs),
(65,350,o),
(152,262,o),
(293,262,cs),
(347,262,o),
(382,282,o),
(407,293,c),
(398,320,l),
(183,0,l),
(280,0,l),
(431,234,ls),
(505,348,o),
(535,411,o),
(536,483,cs)
);
},
{
closed = 1;
nodes = (
(453,392,o),
(396,336,o),
(301,336,cs),
(195,336,o),
(149,392,o),
(149,488,cs),
(149,584,o),
(195,643,o),
(301,643,cs),
(408,643,o),
(453,584,o),
(453,488,cs)
);
}
);
width = 598;
},
{
layerId = "54FF0D0B-6EB9-4889-908D-B8898FFCE7DE";
shapes = (
{
closed = 1;
nodes = (
(544,625,o),
(457,717,o),
(304,717,cs),
(152,717,o),
(62,626,o),
(62,487,cs),
(62,351,o),
(154,260,o),
(292,260,cs),
(344,260,o),
(386,281,o),
(409,294,c),
(404,339,l),
(177,0,l),
(287,0,l),
(437,234,ls),
(511,349,o),
(542,413,o),
(543,482,cs)
);
},
{
closed = 1;
nodes = (
(447,397,o),
(393,344,o),
(304,344,cs),
(204,344,o),
(161,397,o),
(161,488,cs),
(161,578,o),
(204,633,o),
(304,633,cs),
(404,633,o),
(447,578,o),
(447,488,cs)
);
}
);
width = 607;
},
{
layerId = "E7059794-B319-4C6D-9648-9B840A1B2BBD";
shapes = (
{
closed = 1;
nodes = (
(555,625,o),
(463,717,o),
(307,717,cs),
(152,717,o),
(58,626,o),
(58,485,cs),
(58,352,o),
(154,256,o),
(287,256,cs),
(334,256,o),
(392,278,o),
(411,294,c),
(414,377,l),
(161,0,l),
(298,0,l),
(445,234,ls),
(519,351,o),
(554,416,o),
(554,480,cs)
);
},
{
closed = 1;
nodes = (
(433,406,o),
(384,359,o),
(307,359,cs),
(220,359,o),
(181,406,o),
(181,485,cs),
(181,565,o),
(220,613,o),
(307,613,cs),
(394,613,o),
(433,565,o),
(433,485,cs)
);
}
);
width = 613;
},
{
layerId = m005;
shapes = (
{
closed = 1;
nodes = (
(559,625,o),
(464,717,o),
(307,717,cs),
(151,717,o),
(56,625,o),
(56,483,cs),
(56,352,o),
(153,254,o),
(283,254,cs),
(328,254,o),
(394,276,o),
(410,293,c),
(417,395,l),
(152,0,l),
(302,0,l),
(448,233,ls),
(511,333,o),
(558,400,o),
(558,478,cs)
);
},
{
closed = 1;
nodes = (
(424,409,o),
(378,366,o),
(307,366,cs),
(226,366,o),
(190,409,o),
(190,483,cs),
(190,557,o),
(227,603,o),
(307,603,cs),
(388,603,o),
(424,557,o),
(424,483,cs)
);
}
);
width = 611;
}
);
note = cid13010;
unicode = 57;
}
{
color = 0;
glyphname = colon;
layers = (
{
layerId = m003;
shapes = (
{
closed = 1;
nodes = (
(90,476,l),
(179,476,l),
(179,569,l),
(90,569,l)
);
},
{
closed = 1;
nodes = (
(90,56,l),
(179,56,l),
(179,149,l),
(90,149,l)
);
}
);
width = 269;
},
{
layerId = m01;
shapes = (
{
closed = 1;
nodes = (
(85,463,l),
(193,463,l),
(193,573,l),
(85,573,l)
);
},
{
closed = 1;
nodes = (
(85,52,l),
(193,52,l),
(193,162,l),
(85,162,l)
);
}
);
width = 278;
},
{
layerId = "54FF0D0B-6EB9-4889-908D-B8898FFCE7DE";
shapes = (
{
closed = 1;
nodes = (
(80,455,l),
(199,455,l),
(199,575,l),
(80,575,l)
);
},
{
closed = 1;
nodes = (
(80,51,l),
(199,51,l),
(199,170,l),
(80,170,l)
);
}
);
width = 279;
},
{
layerId = "E7059794-B319-4C6D-9648-9B840A1B2BBD";
shapes = (
{
closed = 1;
nodes = (
(73,440,l),
(210,440,l),
(210,577,l),
(73,577,l)
);
},
{
closed = 1;
nodes = (
(73,49,l),
(210,49,l),
(210,185,l),
(73,185,l)
);
}
);
width = 283;
},
{
layerId = m005;
shapes = (
{
closed = 1;
nodes = (
(70,433,l),
(216,433,l),
(216,577,l),
(70,577,l)
);
},
{
closed = 1;
nodes = (
(70,48,l),
(216,48,l),
(216,192,l),
(70,192,l)
);
}
);
width = 286;
}
);
unicode = 58;
}
{
color = 0;
glyphname = semicolon;
layers = (
{
layerId = m003;
shapes = (
{
closed = 1;
nodes = (
(185,149,l),
(106,149,l),
(60,-99,l),
(112,-99,l)
);
},
{
closed = 1;
nodes = (
(95,476,l),
(184,476,l),
(184,569,l),
(95,569,l)
);
}
);
width = 277;
},
{
layerId = m01;
shapes = (
{
closed = 1;
nodes = (
(207,162,l),
(97,162,l),
(53,-103,l),
(126,-103,l)
);
},
{
closed = 1;
nodes = (
(92,463,l),
(200,463,l),
(200,573,l),
(92,573,l)
);
}
);
width = 292;
},
{
layerId = "54FF0D0B-6EB9-4889-908D-B8898FFCE7DE";
shapes = (
{
closed = 1;
nodes = (
(213,170,l),
(96,170,l),
(48,-105,l),
(131,-105,l)
);
},
{
closed = 1;
nodes = (
(87,455,l),
(206,455,l),
(206,574,l),
(87,574,l)
);
}
);
width = 293;
},
{
layerId = "E7059794-B319-4C6D-9648-9B840A1B2BBD";
shapes = (
{
closed = 1;
nodes = (
(228,185,l),
(92,185,l),
(41,-107,l),
(140,-107,l)
);
},
{
closed = 1;
nodes = (
(81,440,l),
(218,440,l),
(218,576,l),
(81,576,l)
);
}
);
width = 301;
},
{
layerId = m005;
shapes = (
{
closed = 1;
nodes = (
(237,192,l),
(88,192,l),
(38,-108,l),
(145,-108,l)
);
},
{
closed = 1;
nodes = (
(79,433,l),
(225,433,l),
(225,577,l),
(79,577,l)
);
}
);
width = 307;
}
);
unicode = 59;
}
{
color = 0;
glyphname = less;
layers = (
{
layerId = m003;
shapes = (
{
closed = 1;
nodes = (
(70,297,l),
(479,61,l),
(479,119,l),
(143,313,l),
(143,319,l),
(479,513,l),
(479,571,l),
(70,335,l)
);
}
);
width = 549;
},
{
layerId = m01;
shapes = (
{
closed = 1;
nodes = (
(68,287,l),
(501,41,l),
(501,121,l),
(163,314,l),
(163,322,l),
(501,515,l),
(501,595,l),
(68,349,l)
);
}
);
width = 569;
},
{
layerId = "54FF0D0B-6EB9-4889-908D-B8898FFCE7DE";
shapes = (
{
closed = 1;
nodes = (
(66,281,l),
(511,28,l),
(511,119,l),
(170,313,l),
(170,322,l),
(511,517,l),
(511,608,l),
(66,355,l)
);
}
);
width = 577;
},
{
layerId = "E7059794-B319-4C6D-9648-9B840A1B2BBD";
shapes = (
{
closed = 1;
nodes = (
(63,271,l),
(531,5,l),
(531,114,l),
(184,312,l),
(184,323,l),
(531,520,l),
(531,629,l),
(63,363,l)
);
}
);
width = 594;
},
{
layerId = m005;
shapes = (
{
closed = 1;
nodes = (
(62,268,l),
(541,-4,l),
(541,112,l),
(191,311,l),
(191,323,l),
(541,521,l),
(541,637,l),
(62,366,l)
);
}
);
width = 603;
}
);
unicode = 60;
}
{
color = 0;
glyphname = equal;
layers = (
{
layerId = m003;
shapes = (
{
closed = 1;
nodes = (
(60,399,l),
(432,399,l),
(432,451,l),
(60,451,l)
);
},
{
closed = 1;
nodes = (
(60,181,l),
(432,181,l),
(432,233,l),
(60,233,l)
);
}
);
width = 492;
},
{
layerId = m01;
shapes = (
{
closed = 1;
nodes = (
(58,400,l),
(453,400,l),
(453,472,l),
(58,472,l)
);
},
{
closed = 1;
nodes = (
(58,163,l),
(453,163,l),
(453,236,l),
(58,236,l)
);
}
);
width = 511;
},
{
layerId = "54FF0D0B-6EB9-4889-908D-B8898FFCE7DE";
shapes = (
{
closed = 1;
nodes = (
(55,398,l),
(462,398,l),
(462,479,l),
(55,479,l)
);
},
{
closed = 1;
nodes = (
(55,156,l),
(462,156,l),
(462,238,l),
(55,238,l)
);
}
);
width = 517;
},
{
layerId = "E7059794-B319-4C6D-9648-9B840A1B2BBD";
shapes = (
{
closed = 1;
nodes = (
(51,394,l),
(480,394,l),
(480,495,l),
(51,495,l)
);
},
{
closed = 1;
nodes = (
(51,140,l),
(480,140,l),
(480,240,l),
(51,240,l)
);
}
);
width = 531;
},
{
layerId = m005;
shapes = (
{
closed = 1;
nodes = (
(50,393,l),
(489,393,l),
(489,504,l),
(50,504,l)
);
},
{
closed = 1;
nodes = (
(50,130,l),
(489,130,l),
(489,241,l),
(50,241,l)
);
}
);
width = 539;
}
);
unicode = 61;
}
{
color = 0;
glyphname = greater;
layers = (
{
layerId = m003;
shapes = (
{
closed = 1;
nodes = (
(90,571,l),
(90,513,l),
(426,319,l),
(426,313,l),
(90,119,l),
(90,61,l),
(499,297,l),
(499,335,l)
);
}
);
width = 589;
},
{
layerId = m01;
shapes = (
{
closed = 1;
nodes = (
(88,595,l),
(88,515,l),
(426,322,l),
(426,314,l),
(88,121,l),
(88,41,l),
(521,287,l),
(521,349,l)
);
}
);
width = 609;
},
{
layerId = "54FF0D0B-6EB9-4889-908D-B8898FFCE7DE";
shapes = (
{
closed = 1;
nodes = (
(86,608,l),
(86,517,l),
(427,322,l),
(427,313,l),
(86,119,l),
(86,28,l),
(531,281,l),
(531,355,l)
);
}
);
width = 617;
},
{
layerId = "E7059794-B319-4C6D-9648-9B840A1B2BBD";
shapes = (
{
closed = 1;
nodes = (
(83,629,l),
(83,520,l),
(430,323,l),
(430,312,l),
(83,114,l),
(83,5,l),
(551,271,l),
(551,363,l)
);
}
);
width = 634;
},
{
layerId = m005;
shapes = (
{
closed = 1;
nodes = (
(82,637,l),
(82,521,l),
(432,323,l),
(432,311,l),
(82,112,l),
(82,-4,l),
(561,268,l),
(561,366,l)
);
}
);
width = 643;
}
);
unicode = 62;
}
{
color = 0;
glyphname = question;
layers = (
{
layerId = m003;
shapes = (
{
closed = 1;
nodes = (
(452,646,o),
(374,717,o),
(251,717,cs),
(133,717,o),
(40,639,o),
(42,510,c),
(100,510,l),
(97,606,o),
(164,665,o),
(248,665,cs),
(332,665,o),
(392,628,o),
(392,541,cs),
(392,488,o),
(364,448,o),
(304,395,cs),
(247,344,o),
(207,308,o),
(207,234,cs),
(207,178,l),
(266,178,l),
(266,234,ls),
(266,283,o),
(294,316,o),
(347,362,cs),
(419,423,o),
(452,472,o),
(452,541,cs)
);
},
{
closed = 1;
nodes = (
(192,0,l),
(281,0,l),
(281,93,l),
(192,93,l)
);
}
);
width = 497;
},
{
layerId = m01;
shapes = (
{
closed = 1;
nodes = (
(463,641,o),
(380,717,o),
(255,717,cs),
(132,717,o),
(38,635,o),
(39,505,c),
(122,505,l),
(122,594,o),
(176,643,o),
(252,643,cs),
(326,643,o),
(379,603,o),
(379,531,cs),
(379,483,o),
(340,444,o),
(289,402,cs),
(232,354,o),
(196,323,o),
(196,236,cs),
(196,188,l),
(280,188,l),
(280,236,ls),
(280,289,o),
(299,314,o),
(358,360,cs),
(429,415,o),
(462,463,o),
(462,531,cs)
);
},
{
closed = 1;
nodes = (
(184,0,l),
(292,0,l),
(292,110,l),
(184,110,l)
);
}
);
width = 504;
},
{
layerId = "54FF0D0B-6EB9-4889-908D-B8898FFCE7DE";
shapes = (
{
closed = 1;
nodes = (
(472,639,o),
(390,717,o),
(259,717,cs),
(126,717,o),
(36,633,o),
(37,503,c),
(135,503,l),
(136,589,o),
(178,634,o),
(256,634,cs),
(330,634,o),
(374,598,o),
(374,532,cs),
(374,480,o),
(327,442,o),
(279,402,cs),
(226,356,o),
(192,325,o),
(192,237,cs),
(192,193,l),
(290,193,l),
(290,237,ls),
(290,287,o),
(311,314,o),
(366,357,cs),
(438,413,o),
(471,458,o),
(471,532,cs)
);
},
{
closed = 1;
nodes = (
(182,0,l),
(300,0,l),
(300,119,l),
(182,119,l)
);
}
);
width = 511;
},
{
layerId = "E7059794-B319-4C6D-9648-9B840A1B2BBD";
shapes = (
{
closed = 1;
nodes = (
(484,634,o),
(400,717,o),
(262,717,cs),
(119,717,o),
(33,629,o),
(34,498,c),
(156,498,l),
(159,572,o),
(184,614,o),
(259,614,cs),
(329,614,o),
(360,583,o),
(360,531,cs),
(360,476,o),
(306,443,o),
(260,402,cs),
(213,360,o),
(182,328,o),
(182,239,cs),
(182,202,l),
(303,202,l),
(303,239,ls),
(303,283,o),
(324,310,o),
(374,351,cs),
(448,411,o),
(483,451,o),
(483,531,cs)
);
},
{
closed = 1;
nodes = (
(174,0,l),
(311,0,l),
(311,135,l),
(174,135,l)
);
}
);
width = 519;
},
{
layerId = m005;
shapes = (
{
closed = 1;
nodes = (
(486,631,o),
(401,717,o),
(262,717,cs),
(118,717,o),
(32,627,o),
(32,495,c),
(165,495,l),
(169,561,o),
(188,602,o),
(259,602,cs),
(324,602,o),
(351,574,o),
(351,529,cs),
(351,474,o),
(298,445,o),
(251,403,cs),
(206,362,o),
(176,329,o),
(176,239,cs),
(176,207,l),
(305,207,l),
(305,239,ls),
(305,282,o),
(326,306,o),
(374,347,cs),
(449,412,o),
(485,448,o),
(485,529,cs)
);
},
{
closed = 1;
nodes = (
(168,0,l),
(314,0,l),
(314,142,l),
(168,142,l)
);
}
);
width = 520;
}
);
unicode = 63;
}
{
color = 0;
glyphname = B;
kernLeft = KO_H;
kernRight = KO_B;
layers = (
{
anchors = (
{
name = bottom;
pos = (308,0);
},
{
name = center;
pos = (154,177);
},
{
name = top;
pos = (308,626);
}
);
layerId = m003;
shapes = (
{
closed = 1;
nodes = (
(88,0,l),
(340,0,ls),
(511,0,o),
(572,75,o),
(572,185,cs),
(572,302,o),
(481,359,o),
(410,362,c),
(410,368,l),
(474,377,o),
(543,428,o),
(543,522,cs),
(543,630,o),
(484,707,o),
(332,707,cs),
(88,707,l)
);
},
{
closed = 1;
nodes = (
(148,52,l),
(148,334,l),
(344,334,ls),
(466,334,o),
(511,268,o),
(511,186,cs),
(511,115,o),
(481,52,o),
(339,52,cs)
);
},
{
closed = 1;
nodes = (
(148,386,l),
(148,655,l),
(332,655,ls),
(455,655,o),
(483,592,o),
(483,521,cs),
(483,438,o),
(435,386,o),
(328,386,cs)
);
}
);
width = 616;
},
{
anchors = (
{
name = bottom;
pos = (315,0);
},
{
name = center;
pos = (157,177);
},
{
name = top;
pos = (315,645);
}
);
layerId = m01;
shapes = (
{
closed = 1;
nodes = (
(83,0,l),
(347,0,ls),
(529,0,o),
(590,75,o),
(590,185,cs),
(590,302,o),
(499,361,o),
(429,364,c),
(429,371,l),
(492,381,o),
(561,428,o),
(561,522,cs),
(561,630,o),
(502,707,o),
(339,707,cs),
(83,707,l)
);
},
{
closed = 1;
nodes = (
(167,74,l),
(167,324,l),
(351,324,ls),
(461,324,o),
(506,268,o),
(506,186,cs),
(506,115,o),
(476,74,o),
(346,74,cs)
);
},
{
closed = 1;
nodes = (
(167,396,l),
(167,633,l),
(339,633,ls),
(450,633,o),
(478,592,o),
(478,521,cs),
(478,438,o),
(430,396,o),
(335,396,cs)
);
}
);
width = 629;
},
{
anchors = (
{
name = bottom;
pos = (317,0);
},
{
name = center;
pos = (158,177);
},
{
name = top;
pos = (317,653);
}
);
layerId = "54FF0D0B-6EB9-4889-908D-B8898FFCE7DE";
shapes = (
{
closed = 1;
nodes = (
(80,0,l),
(348,0,ls),
(534,0,o),
(596,79,o),
(596,189,cs),
(596,306,o),
(503,362,o),
(434,365,c),
(434,371,l),
(497,380,o),
(568,424,o),
(568,519,cs),
(568,628,o),
(506,707,o),
(340,707,cs),
(80,707,l)
);
},
{
closed = 1;
nodes = (
(179,83,l),
(179,319,l),
(352,319,ls),
(455,319,o),
(498,267,o),
(498,192,cs),
(498,124,o),
(471,83,o),
(347,83,cs)
);
},
{
closed = 1;
nodes = (
(179,401,l),
(179,624,l),
(339,624,ls),
(445,624,o),
(470,583,o),
(470,517,cs),
(470,440,o),
(425,401,o),
(336,401,cs)
);
}
);
width = 633;
},
{
anchors = (
{
name = bottom;
pos = (324,0);
},
{
name = center;
pos = (162,177);
},
{
name = top;
pos = (324,673);
}
);
layerId = "E7059794-B319-4C6D-9648-9B840A1B2BBD";
shapes = (
{
closed = 1;
nodes = (
(82,0,l),
(357,0,ls),
(551,0,o),
(614,85,o),
(614,195,cs),
(614,314,o),
(516,364,o),
(450,366,c),
(450,370,l),
(512,377,o),
(586,417,o),
(586,513,cs),
(586,624,o),
(520,707,o),
(348,707,cs),
(82,707,l)
);
},
{
closed = 1;
nodes = (
(208,104,l),
(208,308,l),
(360,308,ls),
(451,308,o),
(490,266,o),
(490,203,cs),
(490,140,o),
(470,104,o),
(355,104,cs)
);
},
{
closed = 1;
nodes = (
(208,411,l),
(208,604,l),
(347,604,ls),
(444,604,o),
(463,567,o),
(463,510,cs),
(463,443,o),
(424,411,o),
(344,411,cs)
);
}
);
width = 648;
},
{
anchors = (
{
name = bottom;
pos = (329,0);
},
{
name = center;
pos = (165,177);
},
{
name = top;
pos = (329,683);
}
);
layerId = m005;
shapes = (
{
closed = 1;
nodes = (
(87,0,l),
(364,0,ls),
(562,0,o),
(626,88,o),
(626,198,cs),
(626,317,o),
(526,364,o),
(461,366,c),
(461,369,l),
(523,375,o),
(598,413,o),
(598,510,cs),
(598,622,o),
(530,707,o),
(355,707,cs),
(87,707,l)
);
},
{
closed = 1;
nodes = (
(225,115,l),
(225,301,l),
(368,301,ls),
(453,301,o),
(491,265,o),
(491,208,cs),
(491,147,o),
(473,115,o),
(363,115,cs)
);
},
{
closed = 1;
nodes = (
(225,417,l),
(225,592,l),
(355,592,ls),
(447,592,o),
(464,559,o),
(464,507,cs),
(464,444,o),
(427,417,o),
(352,417,cs)
);
}
);
width = 658;
}
);
note = cid00035;
unicode = 66;
}
{
color = 0;
glyphname = C;
kernLeft = KO_C;
kernRight = KO_C;
layers = (
{
anchors = (
{
name = bottom;
pos = (357,0);
},
{
name = top;
pos = (357,626);
}
);
layerId = m003;
shapes = (
{
closed = 1;
nodes = (
(617,502,l),
(594,644,o),
(495,717,o),
(353,717,cs),
(155,717,o),
(58,585,o),
(58,355,cs),
(58,123,o),
(155,-10,o),
(353,-10,cs),
(505,-10,o),
(595,65,o),
(618,205,c),
(555,205,l),
(536,98,o),
(466,45,o),
(353,45,cs),
(203,45,o),
(118,145,o),
(118,355,cs),
(118,563,o),
(203,663,o),
(353,663,cs),
(466,663,o),
(536,610,o),
(554,502,c)
);
}
);
width = 674;
},
{
anchors = (
{
name = bottom;
pos = (359,0);
},
{
name = top;
pos = (359,645);
}
);
layerId = m01;
shapes = (
{
closed = 1;
nodes = (
(627,493,l),
(605,639,o),
(496,717,o),
(353,717,cs),
(164,717,o),
(53,588,o),
(53,354,cs),
(53,119,o),
(164,-10,o),
(353,-10,cs),
(507,-10,o),
(607,69,o),
(628,214,c),
(544,214,l),
(525,110,o),
(459,64,o),
(353,64,cs),
(214,64,o),
(137,155,o),
(137,354,cs),
(137,552,o),
(214,643,o),
(353,643,cs),
(459,643,o),
(525,597,o),
(543,493,c)
);
}
);
width = 678;
},
{
anchors = (
{
name = bottom;
pos = (361,0);
},
{
name = top;
pos = (361,653);
}
);
layerId = "54FF0D0B-6EB9-4889-908D-B8898FFCE7DE";
shapes = (
{
closed = 1;
nodes = (
(636,484,l),
(615,636,o),
(504,717,o),
(356,717,cs),
(163,717,o),
(50,590,o),
(50,354,cs),
(50,118,o),
(163,-10,o),
(356,-10,cs),
(515,-10,o),
(617,72,o),
(637,223,c),
(539,223,l),
(522,122,o),
(459,74,o),
(356,74,cs),
(220,74,o),
(149,166,o),
(149,354,cs),
(149,542,o),
(220,633,o),
(356,633,cs),
(459,633,o),
(522,586,o),
(538,484,c)
);
}
);
width = 682;
},
{
anchors = (
{
name = bottom;
pos = (366,0);
},
{
name = top;
pos = (366,673);
}
);
layerId = "E7059794-B319-4C6D-9648-9B840A1B2BBD";
shapes = (
{
closed = 1;
nodes = (
(652,473,l),
(634,631,o),
(518,717,o),
(362,717,cs),
(164,717,o),
(46,591,o),
(46,354,cs),
(46,118,o),
(164,-10,o),
(362,-10,cs),
(529,-10,o),
(636,77,o),
(653,233,c),
(528,233,l),
(513,140,o),
(457,95,o),
(362,95,cs),
(234,95,o),
(172,182,o),
(172,354,cs),
(172,526,o),
(234,613,o),
(362,613,cs),
(457,613,o),
(513,569,o),
(527,473,c)
);
}
);
width = 692;
},
{
anchors = (
{
name = bottom;
pos = (359,0);
},
{
name = top;
pos = (359,683);
}
);
layerId = m005;
shapes = (
{
closed = 1;
nodes = (
(659,471,l),
(643,629,o),
(523,717,o),
(365,717,cs),
(166,717,o),
(45,590,o),
(45,354,cs),
(45,118,o),
(165,-10,o),
(365,-10,cs),
(535,-10,o),
(645,79,o),
(660,235,c),
(522,235,l),
(508,146,o),
(455,105,o),
(365,105,cs),
(243,105,o),
(183,186,o),
(183,354,cs),
(183,521,o),
(243,602,o),
(365,602,cs),
(455,602,o),
(507,562,o),
(521,471,c)
);
}
);
width = 698;
}
);
note = cid00041;
unicode = 67;
userData = {
KernOnName = C;
};
}
{
color = 0;
glyphname = D;
kernLeft = KO_H;
kernRight = KO_D;
layers = (
{
anchors = (
{
name = bottom;
pos = (304,0);
},
{
name = center;
pos = (169,354);
},
{
name = top;
pos = (304,626);
}
);
layerId = m003;
shapes = (
{
closed = 1;
nodes = (
(297,0,ls),
(512,0,o),
(619,124,o),
(619,354,cs),
(619,585,o),
(512,707,o),
(307,707,cs),
(88,707,l),
(88,0,l)
);
},
{
closed = 1;
nodes = (
(148,52,l),
(148,655,l),
(300,655,ls),
(493,655,o),
(559,542,o),
(559,354,cs),
(559,167,o),
(493,52,o),
(292,52,cs)
);
}
);
width = 677;
},
{
anchors = (
{
name = bottom;
pos = (316,0);
},
{
name = center;
pos = (173,354);
},
{
name = top;
pos = (316,645);
}
);
layerId = m01;
shapes = (
{
closed = 1;
nodes = (
(304,0,ls),
(531,0,o),
(638,124,o),
(638,354,cs),
(638,585,o),
(531,707,o),
(314,707,cs),
(83,707,l),
(83,0,l)
);
},
{
closed = 1;
nodes = (
(167,74,l),
(167,633,l),
(307,633,ls),
(488,633,o),
(554,542,o),
(554,354,cs),
(554,167,o),
(488,74,o),
(299,74,cs)
);
}
);
width = 691;
},
{
anchors = (
{
name = bottom;
pos = (317,0);
},
{
name = center;
pos = (174,354);
},
{
name = top;
pos = (317,653);
}
);
layerId = "54FF0D0B-6EB9-4889-908D-B8898FFCE7DE";
shapes = (
{
closed = 1;
nodes = (
(308,0,ls),
(536,0,o),
(644,127,o),
(644,354,cs),
(644,582,o),
(536,707,o),
(318,707,cs),
(80,707,l),
(80,0,l)
);
},
{
closed = 1;
nodes = (
(179,83,l),
(179,624,l),
(311,624,ls),
(483,624,o),
(546,534,o),
(546,354,cs),
(546,175,o),
(483,83,o),
(303,83,cs)
);
}
);
width = 694;
},
{
anchors = (
{
name = bottom;
pos = (321,0);
},
{
name = center;
pos = (176,354);
},
{
name = top;
pos = (321,673);
}
);
layerId = "E7059794-B319-4C6D-9648-9B840A1B2BBD";
shapes = (
{
closed = 1;
nodes = (
(316,0,ls),
(545,0,o),
(656,133,o),
(656,354,cs),
(656,576,o),
(545,707,o),
(325,707,cs),
(76,707,l),
(76,0,l)
);
},
{
closed = 1;
nodes = (
(202,104,l),
(202,604,l),
(319,604,ls),
(475,604,o),
(531,520,o),
(531,354,cs),
(531,189,o),
(475,104,o),
(310,104,cs)
);
}
);
width = 702;
},
{
anchors = (
{
name = bottom;
pos = (324,0);
},
{
name = center;
pos = (177,354);
},
{
name = top;
pos = (324,683);
}
);
layerId = m005;
shapes = (
{
closed = 1;
nodes = (
(320,0,ls),
(550,0,o),
(662,135,o),
(662,354,cs),
(662,573,o),
(550,707,o),
(329,707,cs),
(75,707,l),
(75,0,l)
);
},
{
closed = 1;
nodes = (
(213,115,l),
(213,592,l),
(323,592,ls),
(472,592,o),
(524,513,o),
(524,354,cs),
(524,195,o),
(472,115,o),
(314,115,cs)
);
}
);
width = 707;
}
);
note = cid00049;
unicode = 68;
}
{
color = 0;
glyphname = E;
kernLeft = KO_H;
kernRight = KO_E;
layers = (
{
anchors = (
{
name = bottom;
pos = (292,0);
},
{
name = ogonek;
pos = (471,0);
},
{
name = top;
pos = (292,626);
},
{
name = topleft;
pos = (20,707);
}
);
layerId = m003;
shapes = (
{
closed = 1;
nodes = (
(88,0,l),
(491,0,l),
(491,52,l),
(148,52,l),
(148,328,l),
(463,328,l),
(463,380,l),
(148,380,l),
(148,655,l),
(486,655,l),
(486,707,l),
(88,707,l)
);
}
);
width = 558;
},
{
anchors = (
{
name = bottom;
pos = (300,0);
},
{
name = ogonek;
pos = (488,0);
},
{
name = top;
pos = (300,645);
},
{
name = topleft;
pos = (20,707);
}
);
layerId = m01;
shapes = (
{
closed = 1;
nodes = (
(83,0,l),
(508,0,l),
(508,74,l),
(167,74,l),
(167,318,l),
(480,318,l),
(480,390,l),
(167,390,l),
(167,633,l),
(503,633,l),
(503,707,l),
(83,707,l)
);
}
);
width = 570;
},
{
anchors = (
{
name = bottom;
pos = (301,0);
},
{
name = ogonek;
pos = (496,0);
},
{
name = top;
pos = (301,653);
},
{
name = topleft;
pos = (20,707);
}
);
layerId = "54FF0D0B-6EB9-4889-908D-B8898FFCE7DE";
shapes = (
{
closed = 1;
nodes = (
(80,0,l),
(516,0,l),
(516,83,l),
(179,83,l),
(179,314,l),
(488,314,l),
(488,396,l),
(179,396,l),
(179,624,l),
(511,624,l),
(511,707,l),
(80,707,l)
);
}
);
width = 575;
},
{
anchors = (
{
name = bottom;
pos = (304,0);
},
{
name = ogonek;
pos = (516,0);
},
{
name = top;
pos = (304,673);
},
{
name = topleft;
pos = (20,707);
}
);
layerId = "E7059794-B319-4C6D-9648-9B840A1B2BBD";
shapes = (
{
closed = 1;
nodes = (
(76,0,l),
(532,0,l),
(532,104,l),
(202,104,l),
(202,304,l),
(504,304,l),
(504,407,l),
(202,407,l),
(202,604,l),
(527,604,l),
(527,707,l),
(76,707,l)
);
}
);
width = 587;
},
{
anchors = (
{
name = bottom;
pos = (307,0);
},
{
name = ogonek;
pos = (524,0);
},
{
name = top;
pos = (307,683);
},
{
name = topleft;
pos = (20,707);
}
);
layerId = m005;
shapes = (
{
closed = 1;
nodes = (
(75,0,l),
(539,0,l),
(539,115,l),
(213,115,l),
(213,298,l),
(511,298,l),
(511,413,l),
(213,413,l),
(213,592,l),
(534,592,l),
(534,707,l),
(75,707,l)
);
}
);
width = 593;
}
);
note = cid00064;
unicode = 69;
}
{
color = 0;
glyphname = F;
kernLeft = KO_H;
kernRight = KO_F;
layers = (
{
anchors = (
{
name = bottom;
pos = (292,0);
},
{
name = top;
pos = (292,626);
}
);
layerId = m003;
shapes = (
{
closed = 1;
nodes = (
(88,0,l),
(148,0,l),
(148,328,l),
(458,328,l),
(458,380,l),
(148,380,l),
(148,655,l),
(491,655,l),
(491,707,l),
(88,707,l)
);
}
);
width = 543;
},
{
anchors = (
{
name = bottom;
pos = (300,0);
},
{
name = top;
pos = (300,645);
}
);
layerId = m01;
shapes = (
{
closed = 1;
nodes = (
(83,0,l),
(167,0,l),
(167,317,l),
(477,317,l),
(477,391,l),
(167,391,l),
(167,633,l),
(510,633,l),
(510,707,l),
(83,707,l)
);
}
);
width = 559;
},
{
anchors = (
{
name = bottom;
pos = (301,0);
},
{
name = top;
pos = (301,653);
}
);
layerId = "54FF0D0B-6EB9-4889-908D-B8898FFCE7DE";
shapes = (
{
closed = 1;
nodes = (
(80,0,l),
(179,0,l),
(179,312,l),
(483,312,l),
(483,395,l),
(179,395,l),
(179,624,l),
(515,624,l),
(515,707,l),
(80,707,l)
);
}
);
width = 561;
},
{
anchors = (
{
name = bottom;
pos = (304,0);
},
{
name = top;
pos = (304,673);
}
);
layerId = "E7059794-B319-4C6D-9648-9B840A1B2BBD";
shapes = (
{
closed = 1;
nodes = (
(76,0,l),
(202,0,l),
(202,301,l),
(494,301,l),
(494,405,l),
(202,405,l),
(202,604,l),
(526,604,l),
(526,707,l),
(76,707,l)
);
}
);
width = 567;
},
{
anchors = (
{
name = bottom;
pos = (306,0);
},
{
name = top;
pos = (306,683);
}
);
layerId = m005;
shapes = (
{
closed = 1;
nodes = (
(75,0,l),
(213,0,l),
(213,295,l),
(499,295,l),
(499,410,l),
(213,410,l),
(213,592,l),
(531,592,l),
(531,707,l),
(75,707,l)
);
}
);
width = 571;
}
);
note = cid00096;
unicode = 70;
}
{
color = 0;
glyphname = H;
kernLeft = KO_H;
kernRight = KO_H;
layers = (
{
anchors = (
{
name = bottom;
pos = (346,0);
},
{
name = center;
pos = (346,530);
},
{
name = top;
pos = (346,626);
},
{
name = topleft;
pos = (20,707);
}
);
layerId = m003;
shapes = (
{
closed = 1;
nodes = (
(88,0,l),
(148,0,l),
(148,328,l),
(543,328,l),
(543,0,l),
(603,0,l),
(603,707,l),
(543,707,l),
(543,380,l),
(148,380,l),
(148,707,l),
(88,707,l)
);
}
);
width = 691;
},
{
anchors = (
{
name = bottom;
pos = (351,0);
},
{
name = center;
pos = (351,530);
},
{
name = top;
pos = (351,645);
},
{
name = topleft;
pos = (20,707);
}
);
layerId = m01;
shapes = (
{
closed = 1;
nodes = (
(83,0,l),
(167,0,l),
(167,317,l),
(535,317,l),
(535,0,l),
(619,0,l),
(619,707,l),
(535,707,l),
(535,391,l),
(167,391,l),
(167,707,l),
(83,707,l)
);
}
);
width = 702;
},
{
anchors = (
{
name = bottom;
pos = (355,0);
},
{
name = center;
pos = (355,530);
},
{
name = top;
pos = (355,653);
},
{
name = topleft;
pos = (20,707);
}
);
layerId = "54FF0D0B-6EB9-4889-908D-B8898FFCE7DE";
shapes = (
{
closed = 1;
nodes = (
(80,0,l),
(179,0,l),
(179,313,l),
(530,313,l),
(530,0,l),
(629,0,l),
(629,707,l),
(530,707,l),
(530,396,l),
(179,396,l),
(179,707,l),
(80,707,l)
);
}
);
width = 709;
},
{
anchors = (
{
name = bottom;
pos = (362,0);
},
{
name = center;
pos = (362,530);
},
{
name = top;
pos = (362,673);
},
{
name = topleft;
pos = (20,707);
}
);
layerId = "E7059794-B319-4C6D-9648-9B840A1B2BBD";
shapes = (
{
closed = 1;
nodes = (
(76,0,l),
(202,0,l),
(202,304,l),
(522,304,l),
(522,0,l),
(647,0,l),
(647,707,l),
(522,707,l),
(522,407,l),
(202,407,l),
(202,707,l),
(76,707,l)
);
}
);
width = 723;
},
{
anchors = (
{
name = bottom;
pos = (366,0);
},
{
name = center;
pos = (366,530);
},
{
name = top;
pos = (366,683);
},
{
name = topleft;
pos = (20,707);
}
);
layerId = m005;
shapes = (
{
closed = 1;
nodes = (
(75,0,l),
(213,0,l),
(213,298,l),
(518,298,l),
(518,0,l),
(656,0,l),
(656,707,l),
(518,707,l),
(518,413,l),
(213,413,l),
(213,707,l),
(75,707,l)
);
}
);
width = 731;
}
);
note = cid00110;
unicode = 72;
userData = {
KernOnName = H;
};
}
{
color = 0;
glyphname = I;
kernLeft = KO_I;
kernRight = KO_I;
layers = (
{
anchors = (
{
name = bottom;
pos = (202,0);
},
{
name = ogonek;
pos = (363,10);
},
{
name = top;
pos = (202,626);
},
{
name = topleft;
pos = (20,707);
}
);
layerId = m003;
name = Regular;
shapes = (
{
closed = 1;
nodes = (
(232,707,l),
(172,707,l),
(172,0,l),
(232,0,l)
);
},
{
closed = 1;
nodes = (
(340,655,l),
(340,707,l),
(63,707,l),
(63,655,l)
);
},
{
closed = 1;
nodes = (
(340,0,l),
(340,52,l),
(63,52,l),
(63,0,l)
);
}
);
width = 403;
},
{
anchors = (
{
name = bottom;
pos = (210,0);
},
{
name = ogonek;
pos = (378,10);
},
{
name = top;
pos = (210,645);
},
{
name = topleft;
pos = (20,707);
}
);
layerId = m01;
name = Regular;
shapes = (
{
closed = 1;
nodes = (
(252,707,l),
(168,707,l),
(168,0,l),
(252,0,l)
);
},
{
closed = 1;
nodes = (
(360,633,l),
(360,707,l),
(60,707,l),
(60,633,l)
);
},
{
closed = 1;
nodes = (
(360,0,l),
(360,74,l),
(60,74,l),
(60,0,l)
);
}
);
width = 420;
},
{
anchors = (
{
name = bottom;
pos = (215,0);
},
{
name = ogonek;
pos = (387,10);
},
{
name = top;
pos = (215,653);
},
{
name = topleft;
pos = (20,707);
}
);
layerId = "54FF0D0B-6EB9-4889-908D-B8898FFCE7DE";
name = Regular;
shapes = (
{
closed = 1;
nodes = (
(265,707,l),
(166,707,l),
(166,0,l),
(265,0,l)
);
},
{
closed = 1;
nodes = (
(372,624,l),
(372,707,l),
(58,707,l),
(58,624,l)
);
},
{
closed = 1;
nodes = (
(372,0,l),
(372,83,l),
(58,83,l),
(58,0,l)
);
}
);
width = 430;
},
{
anchors = (
{
name = bottom;
pos = (220,0);
},
{
name = ogonek;
pos = (395,10);
},
{
name = top;
pos = (220,673);
},
{
name = topleft;
pos = (20,707);
}
);
layerId = "E7059794-B319-4C6D-9648-9B840A1B2BBD";
name = Regular;
shapes = (
{
closed = 1;
nodes = (
(283,707,l),
(157,707,l),
(157,0,l),
(283,0,l)
);
},
{
closed = 1;
nodes = (
(385,604,l),
(385,707,l),
(54,707,l),
(54,604,l)
);
},
{
closed = 1;
nodes = (
(385,0,l),
(385,104,l),
(54,104,l),
(54,0,l)
);
}
);
width = 439;
},
{
anchors = (
{
name = bottom;
pos = (219,0);
},
{
name = ogonek;
pos = (394,10);
},
{
name = top;
pos = (219,683);
},
{
name = topleft;
pos = (20,707);
}
);
layerId = m005;
name = Regular;
shapes = (
{
closed = 1;
nodes = (
(288,707,l),
(150,707,l),
(150,0,l),
(288,0,l)
);
},
{
closed = 1;
nodes = (
(386,592,l),
(386,707,l),
(52,707,l),
(52,592,l)
);
},
{
closed = 1;
nodes = (
(386,0,l),
(386,115,l),
(52,115,l),
(52,0,l)
);
}
);
width = 438;
}
);
note = cid00118;
unicode = 73;
}
{
color = 0;
glyphname = J;
kernLeft = KO_J;
kernRight = KO_J;
layers = (
{
anchors = (
{
name = bottom;
pos = (258,0);
},
{
name = top;
pos = (388,626);
}
);
layerId = m003;
name = Regular;
shapes = (
{
closed = 1;
nodes = (
(358,707,l),
(358,199,ls),
(358,87,o),
(321,42,o),
(220,42,cs),
(134,42,o),
(88,72,o),
(85,153,c),
(25,153,l),
(30,40,o),
(100,-10,o),
(220,-10,cs),
(352,-10,o),
(418,56,o),
(418,199,cs),
(418,707,l)
);
}
);
width = 515;
},
{
anchors = (
{
name = bottom;
pos = (262,0);
},
{
name = top;
pos = (387,645);
}
);
layerId = m01;
name = Regular;
shapes = (
{
closed = 1;
nodes = (
(345,707,l),
(345,200,ls),
(345,103,o),
(311,64,o),
(224,64,cs),
(147,64,o),
(106,93,o),
(103,164,c),
(23,164,l),
(26,50,o),
(99,-10,o),
(224,-10,cs),
(357,-10,o),
(429,60,o),
(429,200,cs),
(429,707,l)
);
}
);
width = 523;
},
{
anchors = (
{
name = bottom;
pos = (264,0);
},
{
name = top;
pos = (387,653);
}
);
layerId = "54FF0D0B-6EB9-4889-908D-B8898FFCE7DE";
name = Regular;
shapes = (
{
closed = 1;
nodes = (
(338,707,l),
(338,201,ls),
(338,112,o),
(305,73,o),
(226,73,cs),
(154,73,o),
(119,105,o),
(116,171,c),
(20,171,l),
(22,56,o),
(98,-10,o),
(226,-10,cs),
(360,-10,o),
(436,62,o),
(436,201,cs),
(436,707,l)
);
}
);
width = 528;
},
{
anchors = (
{
name = bottom;
pos = (269,0);
},
{
name = top;
pos = (388,673);
}
);
layerId = "E7059794-B319-4C6D-9648-9B840A1B2BBD";
name = Regular;
shapes = (
{
closed = 1;
nodes = (
(325,707,l),
(325,202,ls),
(325,128,o),
(296,94,o),
(231,94,cs),
(168,94,o),
(143,127,o),
(140,182,c),
(15,182,l),
(15,66,o),
(98,-10,o),
(231,-10,cs),
(366,-10,o),
(451,66,o),
(451,202,cs),
(451,707,l)
);
}
);
width = 538;
},
{
anchors = (
{
name = bottom;
pos = (272,0);
},
{
name = top;
pos = (389,683);
}
);
layerId = m005;
name = Regular;
shapes = (
{
closed = 1;
nodes = (
(320,707,l),
(320,202,ls),
(320,135,o),
(293,105,o),
(234,105,cs),
(175,105,o),
(153,136,o),
(150,187,c),
(13,187,l),
(13,70,o),
(99,-10,o),
(234,-10,cs),
(369,-10,o),
(458,68,o),
(458,202,cs),
(458,707,l)
);
}
);
width = 543;
}
);
note = cid00138;
unicode = 74;
}
{
color = 0;
glyphname = L;
kernLeft = KO_H;
kernRight = KO_L;
layers = (
{
anchors = (
{
name = bottom;
pos = (286,0);
},
{
name = top;
pos = (118,626);
},
{
name = topright;
pos = (491,707);
}
);
layerId = m003;
shapes = (
{
closed = 1;
nodes = (
(88,0,l),
(485,0,l),
(485,52,l),
(148,52,l),
(148,707,l),
(88,707,l)
);
}
);
width = 511;
},
{
anchors = (
{
name = bottom;
pos = (292,0);
},
{
name = top;
pos = (126,645);
},
{
name = topright;
pos = (503,707);
}
);
layerId = m01;
shapes = (
{
closed = 1;
nodes = (
(83,0,l),
(500,0,l),
(500,74,l),
(167,74,l),
(167,707,l),
(83,707,l)
);
}
);
width = 523;
},
{
anchors = (
{
name = bottom;
pos = (292,0);
},
{
name = top;
pos = (129,653);
},
{
name = topright;
pos = (504,707);
}
);
layerId = "54FF0D0B-6EB9-4889-908D-B8898FFCE7DE";
shapes = (
{
closed = 1;
nodes = (
(80,0,l),
(503,0,l),
(503,86,l),
(179,86,l),
(179,707,l),
(80,707,l)
);
}
);
width = 524;
},
{
anchors = (
{
name = bottom;
pos = (293,0);
},
{
name = top;
pos = (139,673);
},
{
name = topright;
pos = (506,707);
}
);
layerId = "E7059794-B319-4C6D-9648-9B840A1B2BBD";
shapes = (
{
closed = 1;
nodes = (
(76,0,l),
(508,0,l),
(508,106,l),
(202,106,l),
(202,707,l),
(76,707,l)
);
}
);
width = 526;
},
{
anchors = (
{
name = bottom;
pos = (305,0);
},
{
name = top;
pos = (144,683);
},
{
name = topright;
pos = (509,707);
}
);
layerId = m005;
shapes = (
{
closed = 1;
nodes = (
(75,0,l),
(511,0,l),
(511,115,l),
(213,115,l),
(213,707,l),
(75,707,l)
);
}
);
width = 529;
}
);
note = cid00147;
unicode = 76;
userData = {
KernOnName = L;
};
}
{
color = 0;
glyphname = M;
kernLeft = KO_H;
kernRight = KO_H;
layers = (
{
anchors = (
{
name = bottom;
pos = (413,0);
},
{
name = top;
pos = (413,626);
}
);
layerId = m003;
shapes = (
{
closed = 1;
nodes = (
(88,707,l),
(88,0,l),
(146,0,l),
(146,564,l),
(150,564,l),
(395,0,l),
(429,0,l),
(674,564,l),
(679,564,l),
(679,0,l),
(737,0,l),
(737,707,l),
(677,707,l),
(417,101,l),
(410,101,l),
(150,707,l)
);
}
);
width = 825;
},
{
anchors = (
{
name = bottom;
pos = (436,0);
},
{
name = top;
pos = (436,645);
}
);
layerId = m01;
shapes = (
{
closed = 1;
nodes = (
(83,707,l),
(83,0,l),
(165,0,l),
(165,559,l),
(171,559,l),
(396,0,l),
(475,0,l),
(700,559,l),
(707,559,l),
(707,0,l),
(789,0,l),
(789,707,l),
(678,707,l),
(439,110,l),
(434,110,l),
(194,707,l)
);
}
);
width = 872;
},
{
anchors = (
{
name = bottom;
pos = (434,0);
},
{
name = top;
pos = (434,653);
}
);
layerId = "54FF0D0B-6EB9-4889-908D-B8898FFCE7DE";
shapes = (
{
closed = 1;
nodes = (
(80,707,l),
(80,0,l),
(175,0,l),
(175,533,l),
(181,533,l),
(387,0,l),
(479,0,l),
(686,533,l),
(692,533,l),
(692,0,l),
(787,0,l),
(787,707,l),
(657,707,l),
(436,137,l),
(431,137,l),
(211,707,l)
);
}
);
width = 867;
},
{
anchors = (
{
name = bottom;
pos = (435,0);
},
{
name = top;
pos = (435,673);
}
);
layerId = "E7059794-B319-4C6D-9648-9B840A1B2BBD";
shapes = (
{
closed = 1;
nodes = (
(76,707,l),
(76,0,l),
(196,0,l),
(196,506,l),
(199,506,l),
(372,0,l),
(495,0,l),
(671,506,l),
(675,506,l),
(675,0,l),
(794,0,l),
(794,707,l),
(626,707,l),
(436,165,l),
(432,165,l),
(247,707,l)
);
}
);
width = 870;
},
{
anchors = (
{
name = bottom;
pos = (439,0);
},
{
name = top;
pos = (439,683);
}
);
layerId = m005;
shapes = (
{
closed = 1;
nodes = (
(75,707,l),
(75,0,l),
(206,0,l),
(206,506,l),
(208,506,l),
(366,0,l),
(506,0,l),
(671,506,l),
(673,506,l),
(673,0,l),
(803,0,l),
(803,707,l),
(617,707,l),
(439,166,l),
(436,166,l),
(266,707,l)
);
}
);
width = 878;
}
);
note = cid00160;
unicode = 77;
}
{
color = 0;
glyphname = N;
kernLeft = KO_H;
kernRight = KO_H;
layers = (
{
anchors = (
{
name = bottom;
pos = (353,0);
},
{
name = top;
pos = (353,626);
}
);
layerId = m003;
shapes = (
{
closed = 1;
nodes = (
(617,707,l),
(558,707,l),
(558,101,l),
(550,101,l),
(156,707,l),
(88,707,l),
(88,0,l),
(147,0,l),
(147,607,l),
(155,607,l),
(550,0,l),
(617,0,l)
);
}
);
width = 705;
},
{
anchors = (
{
name = bottom;
pos = (353,0);
},
{
name = top;
pos = (353,645);
}
);
layerId = m01;
shapes = (
{
closed = 1;
nodes = (
(622,707,l),
(540,707,l),
(540,139,l),
(533,139,l),
(168,707,l),
(83,707,l),
(83,0,l),
(165,0,l),
(165,568,l),
(172,568,l),
(537,0,l),
(622,0,l)
);
}
);
width = 705;
},
{
anchors = (
{
name = bottom;
pos = (354,0);
},
{
name = top;
pos = (354,653);
}
);
layerId = "54FF0D0B-6EB9-4889-908D-B8898FFCE7DE";
shapes = (
{
closed = 1;
nodes = (
(628,707,l),
(532,707,l),
(532,160,l),
(527,160,l),
(177,707,l),
(80,707,l),
(80,0,l),
(177,0,l),
(177,547,l),
(182,547,l),
(532,0,l),
(628,0,l)
);
}
);
width = 708;
},
{
anchors = (
{
name = bottom;
pos = (359,0);
},
{
name = top;
pos = (359,673);
}
);
layerId = "E7059794-B319-4C6D-9648-9B840A1B2BBD";
shapes = (
{
closed = 1;
nodes = (
(641,707,l),
(519,707,l),
(519,198,l),
(516,198,l),
(194,707,l),
(76,707,l),
(76,0,l),
(199,0,l),
(199,509,l),
(202,509,l),
(523,0,l),
(641,0,l)
);
}
);
width = 717;
},
{
anchors = (
{
name = bottom;
pos = (361,0);
},
{
name = top;
pos = (361,683);
}
);
layerId = m005;
shapes = (
{
closed = 1;
nodes = (
(647,707,l),
(514,707,l),
(514,215,l),
(512,215,l),
(202,707,l),
(75,707,l),
(75,0,l),
(210,0,l),
(210,491,l),
(212,491,l),
(520,0,l),
(647,0,l)
);
}
);
width = 722;
}
);
note = cid00164;
unicode = 78;
}
{
color = 0;
glyphname = O;
kernLeft = KO_O;
kernRight = KO_O;
layers = (
{
anchors = (
{
name = bottom;
pos = (355,0);
},
{
name = center;
pos = (355,354);
},
{
name = ogonek;
pos = (639,10);
},
{
name = top;
pos = (355,626);
},
{
name = topleft;
pos = (20,707);
},
{
name = topright;
pos = (690,707);
}
);
layerId = m003;
shapes = (
{
closed = 1;
nodes = (
(652,587,o),
(550,717,o),
(355,717,cs),
(160,717,o),
(58,587,o),
(58,354,cs),
(58,121,o),
(160,-10,o),
(355,-10,cs),
(550,-10,o),
(652,121,o),
(652,354,cs)
);
},
{
closed = 1;
nodes = (
(592,142,o),
(515,44,o),
(355,44,cs),
(195,44,o),
(118,142,o),
(118,354,cs),
(118,566,o),
(195,663,o),
(355,663,cs),
(515,663,o),
(592,566,o),
(592,354,cs)
);
}
);
width = 710;
},
{
anchors = (
{
name = bottom;
pos = (359,0);
},
{
name = center;
pos = (359,354);
},
{
name = ogonek;
pos = (646,10);
},
{
name = top;
pos = (359,645);
},
{
name = topleft;
pos = (20,707);
},
{
name = topright;
pos = (698,707);
}
);
layerId = m01;
shapes = (
{
closed = 1;
nodes = (
(665,588,o),
(557,717,o),
(359,717,cs),
(159,717,o),
(53,588,o),
(53,354,cs),
(53,119,o),
(159,-10,o),
(359,-10,cs),
(557,-10,o),
(665,119,o),
(665,354,cs)
);
},
{
closed = 1;
nodes = (
(581,155,o),
(508,64,o),
(359,64,cs),
(210,64,o),
(137,155,o),
(137,354,cs),
(137,552,o),
(210,643,o),
(359,643,cs),
(508,643,o),
(581,552,o),
(581,354,cs)
);
}
);
width = 718;
},
{
anchors = (
{
name = bottom;
pos = (362,0);
},
{
name = center;
pos = (362,354);
},
{
name = ogonek;
pos = (651,10);
},
{
name = top;
pos = (362,653);
},
{
name = topleft;
pos = (20,707);
},
{
name = topright;
pos = (703,707);
}
);
layerId = "54FF0D0B-6EB9-4889-908D-B8898FFCE7DE";
shapes = (
{
closed = 1;
nodes = (
(673,589,o),
(563,717,o),
(362,717,cs),
(159,717,o),
(50,589,o),
(50,354,cs),
(50,119,o),
(159,-10,o),
(362,-10,cs),
(563,-10,o),
(673,119,o),
(673,354,cs)
);
},
{
closed = 1;
nodes = (
(574,163,o),
(505,74,o),
(362,74,cs),
(219,74,o),
(149,163,o),
(149,354,cs),
(149,545,o),
(219,633,o),
(362,633,cs),
(505,633,o),
(574,545,o),
(574,354,cs)
);
}
);
width = 723;
},
{
anchors = (
{
name = bottom;
pos = (366,0);
},
{
name = center;
pos = (366,354);
},
{
name = ogonek;
pos = (658,10);
},
{
name = top;
pos = (366,673);
},
{
name = topleft;
pos = (20,707);
},
{
name = topright;
pos = (711,707);
}
);
layerId = "E7059794-B319-4C6D-9648-9B840A1B2BBD";
shapes = (
{
closed = 1;
nodes = (
(685,590,o),
(571,717,o),
(366,717,cs),
(160,717,o),
(46,590,o),
(46,354,cs),
(46,118,o),
(160,-10,o),
(366,-10,cs),
(571,-10,o),
(685,118,o),
(685,354,cs)
);
},
{
closed = 1;
nodes = (
(559,176,o),
(497,95,o),
(366,95,cs),
(235,95,o),
(172,176,o),
(172,354,cs),
(172,531,o),
(235,613,o),
(366,613,cs),
(497,613,o),
(559,531,o),
(559,354,cs)
);
}
);
width = 731;
},
{
anchors = (
{
name = bottom;
pos = (367,0);
},
{
name = center;
pos = (367,354);
},
{
name = ogonek;
pos = (661,10);
},
{
name = top;
pos = (367,683);
},
{
name = topleft;
pos = (20,707);
},
{
name = topright;
pos = (714,707);
}
);
layerId = m005;
shapes = (
{
closed = 1;
nodes = (
(689,590,o),
(572,717,o),
(367,717,cs),
(160,717,o),
(45,590,o),
(45,354,cs),
(45,117,o),
(160,-10,o),
(367,-10,cs),
(572,-10,o),
(689,117,o),
(689,354,cs)
);
},
{
closed = 1;
nodes = (
(551,182,o),
(492,105,o),
(367,105,cs),
(243,105,o),
(183,182,o),
(183,354,cs),
(183,525,o),
(243,602,o),
(367,602,cs),
(492,602,o),
(551,525,o),
(551,354,cs)
);
}
);
width = 734;
}
);
note = cid00177;
unicode = 79;
userData = {
KernOnName = O;
};
}
{
color = 0;
glyphname = R;
kernLeft = KO_H;
kernRight = KO_R;
layers = (
{
anchors = (
{
name = bottom;
pos = (300,0);
},
{
name = top;
pos = (300,626);
}
);
layerId = m003;
shapes = (
{
closed = 1;
nodes = (
(338,313,l),
(515,0,l),
(582,0,l),
(398,324,l)
);
},
{
closed = 1;
nodes = (
(148,343,l),
(148,655,l),
(320,655,ls),
(461,655,o),
(501,603,o),
(501,500,cs),
(501,397,o),
(461,343,o),
(320,343,cs)
);
},
{
closed = 1;
nodes = (
(509,291,o),
(561,362,o),
(561,500,cs),
(561,631,o),
(496,707,o),
(324,707,cs),
(88,707,l),
(88,0,l),
(148,0,l),
(148,291,l),
(325,291,ls)
);
}
);
width = 620;
},
{
anchors = (
{
name = bottom;
pos = (307,0);
},
{
name = top;
pos = (307,645);
}
);
layerId = m01;
shapes = (
{
closed = 1;
nodes = (
(332,304,l),
(501,0,l),
(598,0,l),
(418,319,l)
);
},
{
closed = 1;
nodes = (
(167,353,l),
(167,633,l),
(321,633,ls),
(459,633,o),
(486,587,o),
(486,493,cs),
(486,399,o),
(459,353,o),
(321,353,cs)
);
},
{
closed = 1;
nodes = (
(524,279,o),
(570,363,o),
(570,493,cs),
(570,623,o),
(511,707,o),
(325,707,cs),
(83,707,l),
(83,0,l),
(167,0,l),
(167,279,l),
(326,279,ls)
);
}
);
width = 634;
},
{
anchors = (
{
name = bottom;
pos = (301,0);
},
{
name = top;
pos = (301,653);
}
);
layerId = "54FF0D0B-6EB9-4889-908D-B8898FFCE7DE";
shapes = (
{
closed = 1;
nodes = (
(324,310,l),
(494,0,l),
(607,0,l),
(424,327,l)
);
},
{
closed = 1;
nodes = (
(179,358,l),
(179,622,l),
(322,622,ls),
(451,622,o),
(477,578,o),
(477,489,cs),
(477,401,o),
(451,358,o),
(322,358,cs)
);
},
{
closed = 1;
nodes = (
(527,273,o),
(575,364,o),
(575,489,cs),
(575,619,o),
(514,707,o),
(326,707,cs),
(80,707,l),
(80,0,l),
(179,0,l),
(179,273,l),
(327,273,ls)
);
}
);
width = 641;
},
{
anchors = (
{
name = bottom;
pos = (308,0);
},
{
name = top;
pos = (308,673);
}
);
layerId = "E7059794-B319-4C6D-9648-9B840A1B2BBD";
shapes = (
{
closed = 1;
nodes = (
(310,321,l),
(482,0,l),
(625,0,l),
(436,342,l)
);
},
{
closed = 1;
nodes = (
(202,367,l),
(202,601,l),
(325,601,ls),
(438,601,o),
(460,562,o),
(460,482,cs),
(460,403,o),
(438,367,o),
(325,367,cs)
);
},
{
closed = 1;
nodes = (
(534,261,o),
(586,365,o),
(586,482,cs),
(586,611,o),
(521,707,o),
(329,707,cs),
(76,707,l),
(76,0,l),
(202,0,l),
(202,261,l),
(330,261,ls)
);
}
);
width = 655;
},
{
anchors = (
{
name = bottom;
pos = (311,0);
},
{
name = top;
pos = (311,683);
}
);
layerId = m005;
shapes = (
{
closed = 1;
nodes = (
(304,325,l),
(477,0,l),
(633,0,l),
(442,348,l)
);
},
{
closed = 1;
nodes = (
(213,371,l),
(213,592,l),
(326,592,ls),
(432,592,o),
(453,555,o),
(453,479,cs),
(453,404,o),
(433,371,o),
(327,371,cs)
);
},
{
closed = 1;
nodes = (
(537,256,o),
(591,365,o),
(591,479,cs),
(591,607,o),
(524,707,o),
(330,707,cs),
(75,707,l),
(75,0,l),
(213,0,l),
(213,256,l),
(331,256,ls)
);
}
);
width = 661;
}
);
note = cid00221;
unicode = 82;
}
{
color = 0;
glyphname = S;
kernLeft = KO_S;
kernRight = KO_S;
layers = (
{
anchors = (
{
name = bottom;
pos = (291,0);
},
{
name = top;
pos = (291,626);
}
);
layerId = m003;
shapes = (
{
closed = 1;
nodes = (
(532,554,l),
(523,651,o),
(437,717,o),
(298,717,cs),
(153,717,o),
(64,644,o),
(64,527,cs),
(64,431,o),
(125,380,o),
(235,350,cs),
(331,324,ls),
(413,302,o),
(486,276,o),
(486,186,cs),
(486,86,o),
(416,40,o),
(293,40,cs),
(192,40,o),
(119,65,o),
(107,161,c),
(45,161,l),
(55,54,o),
(138,-13,o),
(293,-13,cs),
(466,-13,o),
(546,71,o),
(546,184,cs),
(546,315,o),
(428,352,o),
(350,373,cs),
(273,394,ls),
(214,410,o),
(124,431,o),
(124,532,cs),
(124,619,o),
(179,664,o),
(295,664,cs),
(396,664,o),
(461,637,o),
(472,554,c)
);
}
);
width = 581;
},
{
anchors = (
{
name = bottom;
pos = (297,0);
},
{
name = top;
pos = (297,645);
}
);
layerId = m01;
shapes = (
{
closed = 1;
nodes = (
(544,539,l),
(538,644,o),
(451,717,o),
(305,717,cs),
(159,717,o),
(63,644,o),
(63,521,cs),
(63,423,o),
(130,369,o),
(243,338,cs),
(333,313,ls),
(409,292,o),
(475,269,o),
(475,192,cs),
(475,104,o),
(411,61,o),
(300,61,cs),
(204,61,o),
(137,88,o),
(128,175,c),
(44,175,l),
(53,59,o),
(138,-13,o),
(300,-13,cs),
(475,-13,o),
(559,71,o),
(559,190,cs),
(559,324,o),
(434,362,o),
(356,384,cs),
(284,404,ls),
(230,419,o),
(145,440,o),
(145,525,cs),
(145,603,o),
(196,643,o),
(302,643,cs),
(397,643,o),
(454,614,o),
(463,539,c)
);
}
);
width = 593;
},
{
anchors = (
{
name = bottom;
pos = (300,0);
},
{
name = top;
pos = (300,653);
}
);
layerId = "54FF0D0B-6EB9-4889-908D-B8898FFCE7DE";
shapes = (
{
closed = 1;
nodes = (
(552,531,l),
(547,641,o),
(459,717,o),
(309,717,cs),
(162,717,o),
(62,644,o),
(62,518,cs),
(62,419,o),
(132,364,o),
(247,332,cs),
(334,307,ls),
(407,287,o),
(468,265,o),
(468,196,cs),
(468,114,o),
(408,71,o),
(304,71,cs),
(211,71,o),
(150,101,o),
(143,183,c),
(43,183,l),
(52,62,o),
(138,-13,o),
(304,-13,cs),
(480,-13,o),
(566,72,o),
(566,194,cs),
(566,329,o),
(437,369,o),
(359,391,cs),
(290,410,ls),
(239,425,o),
(159,445,o),
(159,522,cs),
(159,593,o),
(206,633,o),
(306,633,cs),
(397,633,o),
(448,602,o),
(456,531,c)
);
}
);
width = 599;
},
{
anchors = (
{
name = bottom;
pos = (306,0);
},
{
name = top;
pos = (306,673);
}
);
layerId = "E7059794-B319-4C6D-9648-9B840A1B2BBD";
shapes = (
{
closed = 1;
nodes = (
(565,516,l),
(564,634,o),
(472,717,o),
(315,717,cs),
(167,717,o),
(61,644,o),
(61,512,cs),
(61,411,o),
(136,354,o),
(255,320,cs),
(336,297,ls),
(402,277,o),
(454,258,o),
(454,202,cs),
(454,133,o),
(403,92,o),
(310,92,cs),
(222,92,o),
(174,124,o),
(169,198,c),
(42,198,l),
(49,68,o),
(137,-13,o),
(310,-13,cs),
(488,-13,o),
(579,72,o),
(579,200,cs),
(579,339,o),
(442,380,o),
(364,402,cs),
(300,421,ls),
(254,434,o),
(184,454,o),
(184,515,cs),
(184,575,o),
(225,613,o),
(312,613,cs),
(398,613,o),
(436,579,o),
(442,516,c)
);
}
);
width = 611;
},
{
anchors = (
{
name = bottom;
pos = (308,0);
},
{
name = top;
pos = (308,683);
}
);
layerId = m005;
shapes = (
{
closed = 1;
nodes = (
(571,509,l),
(571,631,o),
(478,717,o),
(317,717,cs),
(169,717,o),
(60,644,o),
(60,509,cs),
(60,407,o),
(138,350,o),
(258,315,cs),
(336,292,ls),
(400,273,o),
(448,255,o),
(448,204,cs),
(448,141,o),
(400,102,o),
(312,102,cs),
(227,102,o),
(184,134,o),
(180,204,c),
(41,204,l),
(47,70,o),
(136,-13,o),
(312,-13,cs),
(491,-13,o),
(585,72,o),
(585,202,cs),
(585,343,o),
(444,384,o),
(366,407,cs),
(304,425,ls),
(261,437,o),
(195,458,o),
(195,512,cs),
(195,567,o),
(233,602,o),
(314,602,cs),
(398,602,o),
(431,569,o),
(436,509,c)
);
}
);
width = 616;
}
);
note = cid00231;
unicode = 83;
}
{
color = 0;
glyphname = T;
kernLeft = KO_T;
kernRight = KO_T;
layers = (
{
anchors = (
{
name = bottom;
pos = (291,0);
},
{
name = center;
pos = (291,354);
},
{
name = top;
pos = (291,626);
}
);
layerId = m003;
shapes = (
{
closed = 1;
nodes = (
(30,655,l),
(261,655,l),
(261,0,l),
(321,0,l),
(321,655,l),
(552,655,l),
(552,707,l),
(30,707,l)
);
}
);
width = 582;
},
{
anchors = (
{
name = bottom;
pos = (296,0);
},
{
name = center;
pos = (296,354);
},
{
name = top;
pos = (296,645);
}
);
layerId = m01;
shapes = (
{
closed = 1;
nodes = (
(28,633,l),
(254,633,l),
(254,0,l),
(338,0,l),
(338,633,l),
(563,633,l),
(563,707,l),
(28,707,l)
);
}
);
width = 591;
},
{
anchors = (
{
name = bottom;
pos = (298,0);
},
{
name = center;
pos = (298,354);
},
{
name = top;
pos = (298,653);
}
);
layerId = "54FF0D0B-6EB9-4889-908D-B8898FFCE7DE";
shapes = (
{
closed = 1;
nodes = (
(26,624,l),
(249,624,l),
(249,0,l),
(347,0,l),
(347,624,l),
(569,624,l),
(569,707,l),
(26,707,l)
);
}
);
width = 595;
},
{
anchors = (
{
name = bottom;
pos = (302,0);
},
{
name = center;
pos = (302,354);
},
{
name = top;
pos = (302,673);
}
);
layerId = "E7059794-B319-4C6D-9648-9B840A1B2BBD";
shapes = (
{
closed = 1;
nodes = (
(23,604,l),
(239,604,l),
(239,0,l),
(365,0,l),
(365,604,l),
(581,604,l),
(581,707,l),
(23,707,l)
);
}
);
width = 604;
},
{
anchors = (
{
name = bottom;
pos = (304,0);
},
{
name = center;
pos = (304,354);
},
{
name = top;
pos = (304,683);
}
);
layerId = m005;
shapes = (
{
closed = 1;
nodes = (
(22,592,l),
(235,592,l),
(235,0,l),
(373,0,l),
(373,592,l),
(586,592,l),
(586,707,l),
(22,707,l)
);
}
);
width = 608;
}
);
note = cid00243;
unicode = 84;
}
{
color = 0;
glyphname = U;
kernLeft = KO_U;
kernRight = KO_U;
layers = (
{
anchors = (
{
name = bottom;
pos = (343,0);
},
{
name = ogonek;
pos = (617,10);
},
{
name = top;
pos = (343,626);
},
{
name = topright;
pos = (666,707);
}
);
layerId = m003;
shapes = (
{
closed = 1;
nodes = (
(539,707,l),
(539,235,ls),
(539,116,o),
(492,41,o),
(343,41,cs),
(194,41,o),
(147,116,o),
(147,235,cs),
(147,707,l),
(87,707,l),
(87,226,ls),
(87,85,o),
(162,-13,o),
(343,-13,cs),
(524,-13,o),
(599,85,o),
(599,226,cs),
(599,707,l)
);
}
);
width = 686;
},
{
anchors = (
{
name = bottom;
pos = (348,0);
},
{
name = ogonek;
pos = (626,10);
},
{
name = top;
pos = (348,645);
},
{
name = topright;
pos = (676,707);
}
);
layerId = m01;
shapes = (
{
closed = 1;
nodes = (
(530,707,l),
(530,245,ls),
(530,132,o),
(485,61,o),
(348,61,cs),
(210,61,o),
(166,132,o),
(166,245,cs),
(166,707,l),
(82,707,l),
(82,237,ls),
(82,88,o),
(163,-13,o),
(348,-13,cs),
(532,-13,o),
(614,88,o),
(614,237,cs),
(614,707,l)
);
}
);
width = 696;
},
{
anchors = (
{
name = bottom;
pos = (351,0);
},
{
name = ogonek;
pos = (632,10);
},
{
name = top;
pos = (351,653);
},
{
name = topright;
pos = (682,707);
}
);
layerId = "54FF0D0B-6EB9-4889-908D-B8898FFCE7DE";
shapes = (
{
closed = 1;
nodes = (
(525,707,l),
(525,251,ls),
(525,140,o),
(483,71,o),
(351,71,cs),
(219,71,o),
(178,140,o),
(178,251,cs),
(178,707,l),
(79,707,l),
(79,243,ls),
(79,90,o),
(164,-13,o),
(351,-13,cs),
(538,-13,o),
(623,90,o),
(623,243,cs),
(623,707,l)
);
}
);
width = 702;
},
{
anchors = (
{
name = bottom;
pos = (358,0);
},
{
name = ogonek;
pos = (644,10);
},
{
name = top;
pos = (358,673);
},
{
name = topright;
pos = (696,707);
}
);
layerId = "E7059794-B319-4C6D-9648-9B840A1B2BBD";
shapes = (
{
closed = 1;
nodes = (
(516,707,l),
(516,262,ls),
(516,156,o),
(479,92,o),
(358,92,cs),
(237,92,o),
(201,156,o),
(201,262,cs),
(201,707,l),
(75,707,l),
(75,254,ls),
(75,93,o),
(167,-13,o),
(358,-13,cs),
(549,-13,o),
(641,93,o),
(641,254,cs),
(641,707,l)
);
}
);
width = 716;
},
{
anchors = (
{
name = bottom;
pos = (362,0);
},
{
name = ogonek;
pos = (652,10);
},
{
name = top;
pos = (362,683);
},
{
name = topright;
pos = (704,707);
}
);
layerId = m005;
shapes = (
{
closed = 1;
nodes = (
(512,707,l),
(512,266,ls),
(512,164,o),
(478,102,o),
(362,102,cs),
(246,102,o),
(212,164,o),
(212,266,cs),
(212,707,l),
(74,707,l),
(74,259,ls),
(74,94,o),
(169,-13,o),
(362,-13,cs),
(555,-13,o),
(650,94,o),
(650,259,cs),
(650,707,l)
);
}
);
width = 724;
}
);
note = cid00256;
unicode = 85;
}
{
color = 0;
glyphname = V;
kernLeft = KO_V;
kernRight = KO_V;
layers = (
{
anchors = (
{
name = bottom;
pos = (323,0);
},
{
name = top;
pos = (323,626);
}
);
layerId = m003;
shapes = (
{
closed = 1;
nodes = (
(88,707,l),
(24,707,l),
(281,0,l),
(364,0,l),
(622,707,l),
(559,707,l),
(326,69,l),
(320,69,l)
);
}
);
width = 646;
},
{
anchors = (
{
name = bottom;
pos = (331,0);
},
{
name = top;
pos = (331,645);
}
);
layerId = m01;
shapes = (
{
closed = 1;
nodes = (
(113,707,l),
(22,707,l),
(280,0,l),
(380,0,l),
(639,707,l),
(549,707,l),
(334,88,l),
(327,88,l)
);
}
);
width = 661;
},
{
anchors = (
{
name = bottom;
pos = (334,0);
},
{
name = top;
pos = (334,653);
}
);
layerId = "54FF0D0B-6EB9-4889-908D-B8898FFCE7DE";
shapes = (
{
closed = 1;
nodes = (
(126,707,l),
(20,707,l),
(279,0,l),
(388,0,l),
(648,707,l),
(543,707,l),
(337,112,l),
(331,112,l)
);
}
);
width = 668;
},
{
anchors = (
{
name = bottom;
pos = (341,0);
},
{
name = top;
pos = (341,673);
}
);
layerId = "E7059794-B319-4C6D-9648-9B840A1B2BBD";
shapes = (
{
closed = 1;
nodes = (
(150,707,l),
(17,707,l),
(277,0,l),
(404,0,l),
(664,707,l),
(532,707,l),
(342,156,l),
(339,156,l)
);
}
);
width = 681;
},
{
anchors = (
{
name = bottom;
pos = (344,0);
},
{
name = top;
pos = (344,683);
}
);
layerId = m005;
shapes = (
{
closed = 1;
nodes = (
(160,707,l),
(16,707,l),
(276,0,l),
(411,0,l),
(672,707,l),
(527,707,l),
(344,176,l),
(342,176,l)
);
}
);
width = 688;
}
);
note = cid00288;
unicode = 86;
}
{
color = 0;
glyphname = W;
kernLeft = KO_W;
kernRight = KO_W;
layers = (
{
anchors = (
{
name = bottom;
pos = (464,0);
},
{
name = top;
pos = (464,626);
}
);
layerId = m003;
shapes = (
{
closed = 1;
nodes = (
(212,0,l),
(287,0,l),
(458,627,l),
(466,627,l),
(639,0,l),
(713,0,l),
(903,707,l),
(840,707,l),
(674,76,l),
(670,76,l),
(500,707,l),
(424,707,l),
(257,76,l),
(253,76,l),
(87,707,l),
(24,707,l)
);
}
);
width = 927;
},
{
anchors = (
{
name = bottom;
pos = (472,0);
},
{
name = top;
pos = (472,645);
}
);
layerId = m01;
shapes = (
{
closed = 1;
nodes = (
(215,0,l),
(308,0,l),
(469,588,l),
(475,588,l),
(635,0,l),
(727,0,l),
(921,707,l),
(832,707,l),
(679,116,l),
(676,116,l),
(520,707,l),
(423,707,l),
(268,116,l),
(264,116,l),
(111,707,l),
(22,707,l)
);
}
);
width = 943;
},
{
anchors = (
{
name = bottom;
pos = (476,0);
},
{
name = top;
pos = (476,653);
}
);
layerId = "54FF0D0B-6EB9-4889-908D-B8898FFCE7DE";
shapes = (
{
closed = 1;
nodes = (
(216,0,l),
(320,0,l),
(474,567,l),
(479,567,l),
(633,0,l),
(736,0,l),
(932,707,l),
(829,707,l),
(683,139,l),
(680,139,l),
(530,707,l),
(422,707,l),
(273,139,l),
(269,139,l),
(123,707,l),
(20,707,l)
);
}
);
width = 952;
},
{
anchors = (
{
name = bottom;
pos = (485,0);
},
{
name = top;
pos = (485,673);
}
);
layerId = "E7059794-B319-4C6D-9648-9B840A1B2BBD";
shapes = (
{
closed = 1;
nodes = (
(219,0,l),
(341,0,l),
(484,528,l),
(487,528,l),
(628,0,l),
(751,0,l),
(952,707,l),
(824,707,l),
(690,179,l),
(687,179,l),
(549,707,l),
(420,707,l),
(282,179,l),
(279,179,l),
(145,707,l),
(17,707,l)
);
}
);
width = 969;
},
{
anchors = (
{
name = bottom;
pos = (489,0);
},
{
name = top;
pos = (489,683);
}
);
layerId = m005;
shapes = (
{
closed = 1;
nodes = (
(220,0,l),
(351,0,l),
(488,510,l),
(490,510,l),
(626,0,l),
(757,0,l),
(961,707,l),
(822,707,l),
(693,197,l),
(690,197,l),
(558,707,l),
(419,707,l),
(286,197,l),
(283,197,l),
(155,707,l),
(16,707,l)
);
}
);
width = 977;
}
);
note = cid00293;
unicode = 87;
}
{
color = 0;
glyphname = Z;
kernLeft = KO_Z;
kernRight = KO_Z;
layers = (
{
anchors = (
{
name = bottom;
pos = (274,0);
},
{
name = center;
pos = (274,354);
},
{
name = top;
pos = (274,626);
}
);
layerId = m003;
shapes = (
{
closed = 1;
nodes = (
(41,0,l),
(515,0,l),
(515,54,l),
(83,54,l),
(87,27,l),
(512,667,l),
(512,707,l),
(37,707,l),
(37,654,l),
(477,654,l),
(462,678,l),
(41,40,l)
);
}
);
width = 548;
},
{
anchors = (
{
name = bottom;
pos = (281,0);
},
{
name = center;
pos = (281,354);
},
{
name = top;
pos = (281,645);
}
);
layerId = m01;
shapes = (
{
closed = 1;
nodes = (
(40,0,l),
(529,0,l),
(529,74,l),
(102,74,l),
(114,35,l),
(526,651,l),
(526,707,l),
(36,707,l),
(36,633,l),
(468,633,l),
(449,669,l),
(40,56,l)
);
}
);
width = 561;
},
{
anchors = (
{
name = bottom;
pos = (284,0);
},
{
name = center;
pos = (284,354);
},
{
name = top;
pos = (284,653);
}
);
layerId = "54FF0D0B-6EB9-4889-908D-B8898FFCE7DE";
shapes = (
{
closed = 1;
nodes = (
(39,0,l),
(537,0,l),
(537,86,l),
(112,86,l),
(129,40,l),
(533,642,l),
(533,707,l),
(35,707,l),
(35,622,l),
(463,622,l),
(442,665,l),
(39,65,l)
);
}
);
width = 568;
},
{
anchors = (
{
name = bottom;
pos = (290,0);
},
{
name = center;
pos = (290,354);
},
{
name = top;
pos = (290,673);
}
);
layerId = "E7059794-B319-4C6D-9648-9B840A1B2BBD";
shapes = (
{
closed = 1;
nodes = (
(38,0,l),
(550,0,l),
(550,106,l),
(130,106,l),
(155,48,l),
(546,626,l),
(546,707,l),
(34,707,l),
(34,601,l),
(453,601,l),
(428,656,l),
(38,81,l)
);
}
);
width = 580;
},
{
anchors = (
{
name = bottom;
pos = (293,0);
},
{
name = center;
pos = (293,354);
},
{
name = top;
pos = (293,683);
}
);
layerId = m005;
shapes = (
{
closed = 1;
nodes = (
(37,0,l),
(556,0,l),
(556,115,l),
(138,115,l),
(166,52,l),
(552,619,l),
(552,707,l),
(33,707,l),
(33,592,l),
(448,592,l),
(421,652,l),
(37,88,l)
);
}
);
width = 585;
}
);
note = cid00314;
unicode = 90;
}
{
color = 0;
glyphname = bracketleft;
layers = (
{
hints = (
{
horizontal = 1;
place = (-120,76);
type = Stem;
},
{
horizontal = 1;
place = (624,76);
type = Stem;
},
{
place = (111,84);
type = Stem;
}
);
layerId = m003;
shapes = (
{
closed = 1;
nodes = (
(168,-153,l),
(223,-153,l),
(223,788,l),
(168,788,l)
);
},
{
closed = 1;
nodes = (
(186,736,l),
(392,736,l),
(392,788,l),
(186,788,l)
);
},
{
closed = 1;
nodes = (
(186,-153,l),
(392,-153,l),
(392,-100,l),
(186,-100,l)
);
}
);
width = 422;
},
{
hints = (
{
horizontal = 1;
place = (-120,91);
type = Stem;
},
{
horizontal = 1;
place = (610,91);
type = Stem;
},
{
place = (104,104);
type = Stem;
}
);
layerId = m01;
shapes = (
{
closed = 1;
nodes = (
(162,-156,l),
(232,-156,l),
(232,788,l),
(162,788,l)
);
},
{
closed = 1;
nodes = (
(193,721,l),
(399,721,l),
(399,788,l),
(193,788,l)
);
},
{
closed = 1;
nodes = (
(193,-156,l),
(399,-156,l),
(399,-89,l),
(193,-89,l)
);
}
);
width = 424;
},
{
hints = (
{
horizontal = 1;
place = (-120,98);
type = Stem;
},
{
horizontal = 1;
place = (603,98);
type = Stem;
},
{
place = (101,114);
type = Stem;
}
);
layerId = "54FF0D0B-6EB9-4889-908D-B8898FFCE7DE";
shapes = (
{
closed = 1;
nodes = (
(159,-157,l),
(240,-157,l),
(240,788,l),
(159,788,l)
);
},
{
closed = 1;
nodes = (
(197,710,l),
(402,710,l),
(402,788,l),
(197,788,l)
);
},
{
closed = 1;
nodes = (
(197,-157,l),
(402,-157,l),
(402,-79,l),
(197,-79,l)
);
}
);
width = 425;
},
{
hints = (
{
horizontal = 1;
place = (-120,105);
type = Stem;
},
{
horizontal = 1;
place = (595,105);
type = Stem;
},
{
place = (97,123);
type = Stem;
}
);
layerId = "E7059794-B319-4C6D-9648-9B840A1B2BBD";
shapes = (
{
closed = 1;
nodes = (
(155,-158,l),
(254,-158,l),
(254,788,l),
(155,788,l)
);
},
{
closed = 1;
nodes = (
(200,693,l),
(405,693,l),
(405,788,l),
(200,788,l)
);
},
{
closed = 1;
nodes = (
(200,-158,l),
(405,-158,l),
(405,-63,l),
(200,-63,l)
);
}
);
width = 424;
},
{
hints = (
{
horizontal = 1;
place = (-120,105);
type = Stem;
},
{
horizontal = 1;
place = (595,105);
type = Stem;
},
{
place = (97,123);
type = Stem;
}
);
layerId = m005;
shapes = (
{
closed = 1;
nodes = (
(155,-158,l),
(260,-158,l),
(260,788,l),
(155,788,l)
);
},
{
closed = 1;
nodes = (
(200,688,l),
(405,688,l),
(405,788,l),
(200,788,l)
);
},
{
closed = 1;
nodes = (
(200,-158,l),
(405,-158,l),
(405,-58,l),
(200,-58,l)
);
}
);
width = 423;
}
);
unicode = 91;
}
{
color = 0;
glyphname = backslash;
layers = (
{
layerId = m003;
shapes = (
{
closed = 1;
nodes = (
(305,-106,l),
(75,745,l),
(19,745,l),
(249,-106,l)
);
}
);
width = 324;
},
{
layerId = m01;
shapes = (
{
closed = 1;
nodes = (
(322,-106,l),
(92,745,l),
(17,745,l),
(247,-106,l)
);
}
);
width = 339;
},
{
layerId = "54FF0D0B-6EB9-4889-908D-B8898FFCE7DE";
shapes = (
{
closed = 1;
nodes = (
(337,-106,l),
(107,745,l),
(16,745,l),
(246,-106,l)
);
}
);
width = 353;
},
{
layerId = "E7059794-B319-4C6D-9648-9B840A1B2BBD";
shapes = (
{
closed = 1;
nodes = (
(360,-106,l),
(131,745,l),
(14,745,l),
(243,-106,l)
);
}
);
width = 374;
},
{
layerId = m005;
shapes = (
{
closed = 1;
nodes = (
(368,-106,l),
(139,745,l),
(13,745,l),
(242,-106,l)
);
}
);
width = 381;
}
);
unicode = 92;
}
{
color = 0;
glyphname = asciicircum;
layers = (
{
layerId = m003;
shapes = (
{
closed = 1;
nodes = (
(137,396,l),
(322,693,l),
(278,693,l),
(463,396,l),
(524,396,l),
(324,712,l),
(276,712,l),
(76,396,l)
);
}
);
width = 600;
},
{
layerId = m01;
shapes = (
{
closed = 1;
nodes = (
(149,394,l),
(328,684,l),
(273,684,l),
(452,394,l),
(535,394,l),
(335,712,l),
(266,712,l),
(66,394,l)
);
}
);
width = 600;
},
{
layerId = "54FF0D0B-6EB9-4889-908D-B8898FFCE7DE";
shapes = (
{
closed = 1;
nodes = (
(155,393,l),
(332,680,l),
(269,680,l),
(446,393,l),
(540,393,l),
(340,712,l),
(261,712,l),
(61,393,l)
);
}
);
width = 600;
},
{
layerId = "E7059794-B319-4C6D-9648-9B840A1B2BBD";
shapes = (
{
closed = 1;
nodes = (
(167,391,l),
(338,673,l),
(262,673,l),
(434,391,l),
(548,391,l),
(348,712,l),
(253,712,l),
(53,391,l)
);
}
);
width = 600;
},
{
layerId = m005;
shapes = (
{
closed = 1;
nodes = (
(172,390,l),
(341,671,l),
(259,671,l),
(428,390,l),
(550,390,l),
(350,712,l),
(250,712,l),
(50,390,l)
);
}
);
width = 600;
}
);
unicode = 94;
}
{
color = 0;
glyphname = underscore;
layers = (
{
layerId = m003;
shapes = (
{
closed = 1;
nodes = (
(431,0,l),
(-1,0,l),
(-1,-52,l),
(431,-52,l)
);
}
);
width = 430;
},
{
layerId = m01;
shapes = (
{
closed = 1;
nodes = (
(445,0,l),
(-1,0,l),
(-1,-71,l),
(445,-71,l)
);
}
);
width = 444;
},
{
layerId = "54FF0D0B-6EB9-4889-908D-B8898FFCE7DE";
shapes = (
{
closed = 1;
nodes = (
(452,0,l),
(-1,0,l),
(-1,-81,l),
(452,-81,l)
);
}
);
width = 451;
},
{
layerId = "E7059794-B319-4C6D-9648-9B840A1B2BBD";
shapes = (
{
closed = 1;
nodes = (
(462,0,l),
(-1,0,l),
(-1,-99,l),
(462,-99,l)
);
}
);
width = 461;
},
{
layerId = m005;
shapes = (
{
closed = 1;
nodes = (
(465,0,l),
(-1,0,l),
(-1,-108,l),
(465,-108,l)
);
}
);
width = 464;
}
);
unicode = 95;
}
{
color = 0;
glyphname = grave;
layers = (
{
layerId = m003;
shapes = (
{
closed = 1;
nodes = (
(255,605,l),
(315,605,l),
(223,760,l),
(150,760,l)
);
}
);
width = 465;
},
{
layerId = m01;
shapes = (
{
closed = 1;
nodes = (
(245,603,l),
(329,603,l),
(245,759,l),
(140,759,l)
);
}
);
width = 470;
},
{
layerId = "54FF0D0B-6EB9-4889-908D-B8898FFCE7DE";
shapes = (
{
closed = 1;
nodes = (
(241,602,l),
(337,602,l),
(256,759,l),
(135,759,l)
);
}
);
width = 473;
},
{
layerId = "E7059794-B319-4C6D-9648-9B840A1B2BBD";
shapes = (
{
closed = 1;
nodes = (
(234,600,l),
(348,600,l),
(273,758,l),
(128,758,l)
);
}
);
width = 477;
},
{
layerId = m005;
shapes = (
{
closed = 1;
nodes = (
(232,599,l),
(352,599,l),
(279,758,l),
(126,758,l)
);
}
);
width = 478;
}
);
unicode = 96;
}
{
color = 0;
glyphname = e;
kernLeft = KO_e;
kernRight = KO_e;
layers = (
{
anchors = (
{
name = bottom;
pos = (273,0);
},
{
name = ogonek;
pos = (391,10);
},
{
name = top;
pos = (273,505);
}
);
layerId = m003;
shapes = (
{
closed = 1;
nodes = (
(70,229,l),
(493,229,l),
(493,251,ls),
(493,442,o),
(395,511,o),
(278,511,cs),
(131,511,o),
(51,419,o),
(51,251,cs),
(51,83,o),
(130,-10,o),
(285,-10,cs),
(413,-10,o),
(458,44,o),
(483,120,c),
(420,120,l),
(405,72,o),
(369,40,o),
(285,40,cs),
(156,40,o),
(108,115,o),
(108,251,cs),
(108,387,o),
(160,461,o),
(278,461,cs),
(386,461,o),
(436,387,o),
(436,276,c),
(71,276,l)
);
}
);
width = 543;
},
{
anchors = (
{
name = bottom;
pos = (278,0);
},
{
name = ogonek;
pos = (393,10);
},
{
name = top;
pos = (278,505);
}
);
layerId = m01;
shapes = (
{
closed = 1;
nodes = (
(85,228,l),
(509,228,l),
(509,253,ls),
(509,449,o),
(399,515,o),
(283,515,cs),
(132,515,o),
(47,422,o),
(47,253,cs),
(47,89,o),
(130,-10,o),
(290,-10,cs),
(402,-10,o),
(477,47,o),
(499,129,c),
(415,129,l),
(399,85,o),
(369,58,o),
(290,58,cs),
(172,58,o),
(127,138,o),
(127,254,cs),
(127,370,o),
(176,447,o),
(283,447,cs),
(379,447,o),
(429,402,o),
(429,290,c),
(86,290,l)
);
}
);
width = 555;
},
{
anchors = (
{
name = bottom;
pos = (279,0);
},
{
name = ogonek;
pos = (401,10);
},
{
name = top;
pos = (279,505);
}
);
layerId = "54FF0D0B-6EB9-4889-908D-B8898FFCE7DE";
shapes = (
{
closed = 1;
nodes = (
(92,225,l),
(515,225,l),
(515,256,ls),
(515,445,o),
(411,518,o),
(284,518,cs),
(131,518,o),
(43,425,o),
(43,254,cs),
(43,87,o),
(128,-10,o),
(291,-10,cs),
(414,-10,o),
(488,49,o),
(507,134,c),
(408,134,l),
(395,92,o),
(367,68,o),
(291,68,cs),
(179,68,o),
(138,131,o),
(138,257,cs),
(138,379,o),
(183,440,o),
(284,440,cs),
(373,440,o),
(420,396,o),
(421,295,c),
(93,295,l)
);
}
);
width = 557;
},
{
anchors = (
{
name = bottom;
pos = (283,0);
},
{
name = ogonek;
pos = (415,10);
},
{
name = top;
pos = (283,505);
}
);
layerId = "E7059794-B319-4C6D-9648-9B840A1B2BBD";
shapes = (
{
closed = 1;
nodes = (
(106,220,l),
(529,220,l),
(529,258,ls),
(529,436,o),
(434,525,o),
(288,525,cs),
(130,525,o),
(38,429,o),
(38,256,cs),
(38,84,o),
(127,-10,o),
(295,-10,cs),
(438,-10,o),
(511,53,o),
(524,143,c),
(398,143,l),
(390,105,o),
(366,85,o),
(295,85,cs),
(194,85,o),
(159,130,o),
(159,258,cs),
(159,383,o),
(198,430,o),
(288,430,cs),
(363,430,o),
(404,383,o),
(407,304,c),
(107,304,l)
);
}
);
width = 566;
},
{
anchors = (
{
name = bottom;
pos = (286,0);
},
{
name = ogonek;
pos = (425,10);
},
{
name = top;
pos = (286,505);
}
);
layerId = m005;
shapes = (
{
closed = 1;
nodes = (
(113,217,l),
(536,217,l),
(536,257,ls),
(536,431,o),
(446,529,o),
(291,529,cs),
(131,529,o),
(37,431,o),
(37,257,cs),
(37,83,o),
(128,-10,o),
(298,-10,cs),
(450,-10,o),
(522,54,o),
(532,147,c),
(394,147,l),
(389,111,o),
(366,92,o),
(298,92,cs),
(202,92,o),
(170,135,o),
(170,257,cs),
(170,379,o),
(206,427,o),
(291,427,cs),
(360,427,o),
(398,377,o),
(402,308,c),
(114,308,l)
);
}
);
width = 572;
}
);
note = cid00489;
unicode = 101;
}
{
color = 0;
glyphname = f;
kernLeft = KO_f;
kernRight = KO_f;
layers = (
{
anchors = (
{
name = bottom;
pos = (146,0);
},
{
name = top;
pos = (207,707);
}
);
layerId = m003;
shapes = (
{
closed = 1;
nodes = (
(173,665,l),
(298,665,l),
(298,717,l),
(236,717,ls),
(148,717,o),
(116,686,o),
(116,614,cs),
(116,0,l),
(173,0,l)
);
},
{
closed = 1;
nodes = (
(294,451,l),
(294,501,l),
(28,501,l),
(28,451,l)
);
}
);
width = 318;
},
{
anchors = (
{
name = bottom;
pos = (154,0);
},
{
name = top;
pos = (208,707);
}
);
layerId = m01;
shapes = (
{
closed = 1;
nodes = (
(194,647,l),
(321,647,l),
(321,717,l),
(244,717,ls),
(159,717,o),
(114,671,o),
(114,602,cs),
(114,0,l),
(194,0,l)
);
},
{
closed = 1;
nodes = (
(313,435,l),
(313,505,l),
(27,505,l),
(27,435,l)
);
}
);
width = 340;
},
{
anchors = (
{
name = bottom;
pos = (160,0);
},
{
name = top;
pos = (218,707);
}
);
layerId = "54FF0D0B-6EB9-4889-908D-B8898FFCE7DE";
shapes = (
{
closed = 1;
nodes = (
(206,637,l),
(334,637,l),
(334,717,l),
(248,717,ls),
(159,717,o),
(112,668,o),
(112,594,cs),
(112,0,l),
(206,0,l)
);
},
{
closed = 1;
nodes = (
(323,427,l),
(323,507,l),
(26,507,l),
(26,427,l)
);
}
);
width = 352;
},
{
anchors = (
{
name = bottom;
pos = (168,0);
},
{
name = top;
pos = (232,707);
}
);
layerId = "E7059794-B319-4C6D-9648-9B840A1B2BBD";
shapes = (
{
closed = 1;
nodes = (
(229,621,l),
(357,621,l),
(357,718,l),
(256,718,ls),
(160,718,o),
(107,659,o),
(107,584,cs),
(107,0,l),
(229,0,l)
);
},
{
closed = 1;
nodes = (
(342,417,l),
(342,514,l),
(25,514,l),
(25,417,l)
);
}
);
width = 373;
},
{
anchors = (
{
name = bottom;
pos = (172,0);
},
{
name = top;
pos = (241,707);
}
);
layerId = m005;
shapes = (
{
closed = 1;
nodes = (
(239,614,l),
(367,614,l),
(367,719,l),
(259,719,ls),
(160,719,o),
(105,653,o),
(105,582,cs),
(105,0,l),
(239,0,l)
);
},
{
closed = 1;
nodes = (
(351,414,l),
(351,519,l),
(24,519,l),
(24,414,l)
);
}
);
width = 383;
}
);
note = cid00532;
unicode = 102;
}
{
color = 0;
glyphname = g;
kernLeft = KO_g;
kernRight = KO_g;
layers = (
{
anchors = (
{
name = bottom;
pos = (291,-241);
},
{
name = top;
pos = (282,505);
}
);
layerId = m003;
name = Regular;
shapes = (
{
closed = 1;
nodes = (
(395,6,o),
(468,98,o),
(468,257,cs),
(468,417,o),
(395,511,o),
(263,511,cs),
(127,511,o),
(51,417,o),
(51,257,cs),
(51,98,o),
(127,6,o),
(263,6,cs)
);
},
{
closed = 1;
nodes = (
(170,57,o),
(108,131,o),
(108,257,cs),
(108,384,o),
(170,460,o),
(282,460,cs),
(384,460,o),
(441,384,o),
(441,257,cs),
(441,131,o),
(384,57,o),
(282,57,cs)
);
},
{
closed = 1;
nodes = (
(441,375,l),
(441,369,l),
(441,0,l),
(498,0,l),
(498,501,l),
(441,501,l)
);
},
{
closed = 1;
nodes = (
(441,6,l),
(441,-103,o),
(413,-157,o),
(298,-157,cs),
(188,-157,o),
(157,-123,o),
(151,-64,c),
(90,-64,l),
(101,-157,o),
(166,-207,o),
(298,-207,cs),
(430,-207,o),
(498,-152,o),
(498,6,c)
);
}
);
width = 581;
},
{
anchors = (
{
name = bottom;
pos = (295,-241);
},
{
name = top;
pos = (282,505);
}
);
layerId = m01;
name = Regular;
shapes = (
{
closed = 1;
nodes = (
(401,8,o),
(456,120,o),
(456,261,cs),
(456,402,o),
(401,515,o),
(264,515,cs),
(125,515,o),
(47,422,o),
(47,261,cs),
(47,100,o),
(125,8,o),
(264,8,cs)
);
},
{
closed = 1;
nodes = (
(168,78,o),
(127,155,o),
(127,261,cs),
(127,367,o),
(168,445,o),
(282,445,cs),
(391,445,o),
(431,367,o),
(431,261,cs),
(431,155,o),
(391,78,o),
(282,78,cs)
);
},
{
closed = 1;
nodes = (
(433,385,l),
(431,379,l),
(431,0,l),
(511,0,l),
(511,505,l),
(433,505,l)
);
},
{
closed = 1;
nodes = (
(431,6,l),
(431,-94,o),
(408,-142,o),
(298,-142,cs),
(195,-142,o),
(175,-114,o),
(168,-59,c),
(83,-59,l),
(93,-153,o),
(152,-212,o),
(298,-212,cs),
(443,-212,o),
(511,-140,o),
(511,6,c)
);
}
);
width = 589;
},
{
anchors = (
{
name = bottom;
pos = (299,-241);
},
{
name = top;
pos = (284,505);
}
);
layerId = "54FF0D0B-6EB9-4889-908D-B8898FFCE7DE";
name = Regular;
shapes = (
{
closed = 1;
nodes = (
(401,7,o),
(458,119,o),
(458,262,cs),
(458,405,o),
(401,518,o),
(263,518,cs),
(128,518,o),
(43,431,o),
(43,262,cs),
(43,98,o),
(125,7,o),
(263,7,cs)
);
},
{
closed = 1;
nodes = (
(181,87,o),
(138,154,o),
(138,262,cs),
(138,371,o),
(181,438,o),
(285,438,cs),
(385,438,o),
(427,371,o),
(427,262,cs),
(427,154,o),
(385,87,o),
(285,87,cs)
);
},
{
closed = 1;
nodes = (
(429,396,l),
(427,388,l),
(427,0,l),
(522,0,l),
(522,507,l),
(429,507,l)
);
},
{
closed = 1;
nodes = (
(427,15,l),
(428,-89,o),
(406,-135,o),
(299,-135,cs),
(199,-135,o),
(180,-109,o),
(174,-56,c),
(75,-56,l),
(84,-153,o),
(144,-215,o),
(299,-215,cs),
(453,-215,o),
(523,-138,o),
(522,15,c)
);
}
);
width = 597;
},
{
anchors = (
{
name = bottom;
pos = (308,-241);
},
{
name = top;
pos = (288,505);
}
);
layerId = "E7059794-B319-4C6D-9648-9B840A1B2BBD";
name = Regular;
shapes = (
{
closed = 1;
nodes = (
(407,8,o),
(465,122,o),
(465,266,cs),
(465,410,o),
(407,525,o),
(259,525,cs),
(135,525,o),
(38,445,o),
(38,266,cs),
(38,98,o),
(126,8,o),
(259,8,cs)
);
},
{
closed = 1;
nodes = (
(204,105,o),
(160,160,o),
(160,266,cs),
(160,373,o),
(204,428,o),
(293,428,cs),
(380,428,o),
(423,373,o),
(423,266,cs),
(423,160,o),
(380,105,o),
(293,105,cs)
);
},
{
closed = 1;
nodes = (
(425,418,l),
(423,410,l),
(423,14,l),
(544,14,l),
(544,514,l),
(425,514,l)
);
},
{
closed = 1;
nodes = (
(423,30,l),
(424,-80,o),
(403,-123,o),
(307,-123,cs),
(214,-123,o),
(198,-100,o),
(192,-51,c),
(69,-51,l),
(75,-153,o),
(138,-220,o),
(307,-220,cs),
(474,-220,o),
(549,-134,o),
(544,30,c)
);
}
);
width = 615;
},
{
anchors = (
{
name = bottom;
pos = (313,-241);
},
{
name = top;
pos = (299,505);
}
);
layerId = m005;
name = Regular;
shapes = (
{
closed = 1;
nodes = (
(412,10,o),
(471,126,o),
(471,268,cs),
(471,411,o),
(412,529,o),
(257,529,cs),
(138,529,o),
(37,450,o),
(37,268,cs),
(37,101,o),
(127,10,o),
(257,10,cs)
);
},
{
closed = 1;
nodes = (
(213,114,o),
(171,168,o),
(171,269,cs),
(171,370,o),
(213,425,o),
(298,425,cs),
(381,425,o),
(422,370,o),
(422,269,cs),
(422,168,o),
(381,114,o),
(298,114,cs)
);
},
{
closed = 1;
nodes = (
(424,429,l),
(422,422,l),
(422,28,l),
(556,28,l),
(556,519,l),
(424,519,l)
);
},
{
closed = 1;
nodes = (
(422,36,l),
(424,-76,o),
(403,-117,o),
(314,-117,cs),
(226,-117,o),
(211,-96,o),
(205,-49,c),
(71,-49,l),
(74,-153,o),
(140,-222,o),
(314,-222,cs),
(485,-222,o),
(562,-132,o),
(556,36,c)
);
}
);
width = 626;
}
);
note = cid00537;
unicode = 103;
}
{
color = 0;
glyphname = i;
kernLeft = KO_i;
kernRight = KO_i;
layers = (
{
anchors = (
{
name = bottom;
pos = (113,0);
},
{
name = top;
pos = (112,707);
}
);
layerId = m003;
shapes = (
{
closed = 1;
nodes = (
(84,501,l),
(84,0,l),
(141,0,l),
(141,501,l)
);
},
{
closed = 1;
nodes = (
(78,636,l),
(147,636,l),
(147,717,l),
(78,717,l)
);
}
);
width = 225;
},
{
anchors = (
{
name = bottom;
pos = (121,0);
},
{
name = top;
pos = (121,707);
}
);
layerId = m01;
shapes = (
{
closed = 1;
nodes = (
(81,505,l),
(81,0,l),
(161,0,l),
(161,505,l)
);
},
{
closed = 1;
nodes = (
(73,619,l),
(169,619,l),
(169,717,l),
(73,717,l)
);
}
);
width = 242;
},
{
anchors = (
{
name = bottom;
pos = (123,0);
},
{
name = top;
pos = (123,707);
}
);
layerId = "54FF0D0B-6EB9-4889-908D-B8898FFCE7DE";
shapes = (
{
closed = 1;
nodes = (
(76,507,l),
(76,0,l),
(171,0,l),
(171,507,l)
);
},
{
closed = 1;
nodes = (
(71,611,l),
(176,611,l),
(176,717,l),
(71,717,l)
);
}
);
width = 246;
},
{
anchors = (
{
name = bottom;
pos = (130,0);
},
{
name = top;
pos = (130,707);
}
);
layerId = "E7059794-B319-4C6D-9648-9B840A1B2BBD";
shapes = (
{
closed = 1;
nodes = (
(70,514,l),
(70,0,l),
(191,0,l),
(191,514,l)
);
},
{
closed = 1;
nodes = (
(67,592,l),
(194,592,l),
(194,718,l),
(67,718,l)
);
}
);
width = 260;
},
{
anchors = (
{
name = bottom;
pos = (135,0);
},
{
name = top;
pos = (136,707);
}
);
layerId = m005;
shapes = (
{
closed = 1;
nodes = (
(68,519,l),
(68,0,l),
(202,0,l),
(202,519,l)
);
},
{
closed = 1;
nodes = (
(65,581,l),
(205,581,l),
(205,719,l),
(65,719,l)
);
}
);
width = 270;
}
);
note = cid00570;
unicode = 105;
}
{
color = 0;
glyphname = j;
kernLeft = KO_j;
kernRight = KO_j;
layers = (
{
anchors = (
{
name = top;
pos = (126,707);
}
);
layerId = m003;
shapes = (
{
closed = 1;
nodes = (
(154,501,l),
(97,501,l),
(97,-152,l),
(0,-152,l),
(0,-202,l),
(48,-202,ls),
(127,-202,o),
(154,-168,o),
(154,-102,cs)
);
},
{
closed = 1;
nodes = (
(91,636,l),
(160,636,l),
(160,717,l),
(91,717,l)
);
}
);
width = 238;
},
{
anchors = (
{
name = top;
pos = (127,707);
}
);
layerId = m01;
shapes = (
{
closed = 1;
nodes = (
(167,505,l),
(87,505,l),
(87,-132,l),
(-2,-132,l),
(-2,-202,l),
(42,-202,ls),
(126,-202,o),
(167,-166,o),
(167,-87,cs)
);
},
{
closed = 1;
nodes = (
(79,619,l),
(175,619,l),
(175,717,l),
(79,717,l)
);
}
);
width = 248;
},
{
anchors = (
{
name = top;
pos = (128,707);
}
);
layerId = "54FF0D0B-6EB9-4889-908D-B8898FFCE7DE";
shapes = (
{
closed = 1;
nodes = (
(175,507,l),
(81,507,l),
(81,-123,l),
(-5,-123,l),
(-5,-202,l),
(35,-202,ls),
(131,-202,o),
(175,-162,o),
(175,-64,cs)
);
},
{
closed = 1;
nodes = (
(75,611,l),
(180,611,l),
(180,717,l),
(75,717,l)
);
}
);
width = 251;
},
{
anchors = (
{
name = top;
pos = (129,707);
}
);
layerId = "E7059794-B319-4C6D-9648-9B840A1B2BBD";
shapes = (
{
closed = 1;
nodes = (
(190,514,l),
(68,514,l),
(68,-105,l),
(-10,-105,l),
(-10,-202,l),
(35,-202,ls),
(139,-202,o),
(190,-163,o),
(190,-54,cs)
);
},
{
closed = 1;
nodes = (
(65,592,l),
(192,592,l),
(192,718,l),
(65,718,l)
);
}
);
width = 259;
},
{
anchors = (
{
name = top;
pos = (129,707);
}
);
layerId = m005;
shapes = (
{
closed = 1;
nodes = (
(196,519,l),
(62,519,l),
(62,-97,l),
(-12,-97,l),
(-12,-202,l),
(42,-202,ls),
(143,-202,o),
(196,-168,o),
(196,-67,cs)
);
},
{
closed = 1;
nodes = (
(59,581,l),
(199,581,l),
(199,719,l),
(59,719,l)
);
}
);
width = 264;
}
);
note = cid00589;
unicode = 106;
userData = {
KernOnName = j;
};
}
{
color = 0;
glyphname = k;
kernLeft = KO_k;
kernRight = KO_k;
layers = (
{
anchors = (
{
name = bottom;
pos = (260,0);
},
{
name = top;
pos = (112,707);
}
);
layerId = m003;
shapes = (
{
closed = 1;
nodes = (
(207,277,l),
(430,0,l),
(502,0,l),
(246,312,l)
);
},
{
closed = 1;
nodes = (
(140,717,l),
(83,717,l),
(83,0,l),
(140,0,l)
);
},
{
closed = 1;
nodes = (
(105,166,l),
(458,501,l),
(382,501,l),
(106,234,l)
);
}
);
width = 520;
},
{
anchors = (
{
name = bottom;
pos = (270,0);
},
{
name = top;
pos = (118,707);
}
);
layerId = m01;
shapes = (
{
closed = 1;
nodes = (
(204,278,l),
(423,0,l),
(524,0,l),
(261,327,l)
);
},
{
closed = 1;
nodes = (
(158,717,l),
(78,717,l),
(78,0,l),
(158,0,l)
);
},
{
closed = 1;
nodes = (
(131,167,l),
(487,505,l),
(383,505,l),
(131,260,l)
);
}
);
width = 540;
},
{
anchors = (
{
name = bottom;
pos = (276,0);
},
{
name = top;
pos = (123,707);
}
);
layerId = "54FF0D0B-6EB9-4889-908D-B8898FFCE7DE";
shapes = (
{
closed = 1;
nodes = (
(204,279,l),
(421,0,l),
(538,0,l),
(271,336,l)
);
},
{
closed = 1;
nodes = (
(170,717,l),
(75,717,l),
(75,0,l),
(170,0,l)
);
},
{
closed = 1;
nodes = (
(147,168,l),
(505,507,l),
(386,507,l),
(146,275,l)
);
}
);
width = 552;
},
{
anchors = (
{
name = bottom;
pos = (288,0);
},
{
name = top;
pos = (132,707);
}
);
layerId = "E7059794-B319-4C6D-9648-9B840A1B2BBD";
shapes = (
{
closed = 1;
nodes = (
(206,280,l),
(419,0,l),
(565,0,l),
(291,351,l)
);
},
{
closed = 1;
nodes = (
(193,718,l),
(71,718,l),
(71,0,l),
(193,0,l)
);
},
{
closed = 1;
nodes = (
(178,168,l),
(538,514,l),
(392,514,l),
(176,300,l)
);
}
);
width = 576;
},
{
anchors = (
{
name = bottom;
pos = (294,0);
},
{
name = top;
pos = (136,707);
}
);
layerId = m005;
shapes = (
{
closed = 1;
nodes = (
(208,280,l),
(419,0,l),
(578,0,l),
(301,357,l)
);
},
{
closed = 1;
nodes = (
(204,719,l),
(70,719,l),
(70,0,l),
(204,0,l)
);
},
{
closed = 1;
nodes = (
(192,168,l),
(554,519,l),
(395,519,l),
(190,311,l)
);
}
);
width = 588;
}
);
note = cid00596;
unicode = 107;
userData = {
KernOnName = k;
};
}
{
color = 0;
glyphname = l;
kernLeft = KO_l;
kernRight = KO_l;
layers = (
{
anchors = (
{
name = bottom;
pos = (112,0);
},
{
name = top;
pos = (112,707);
}
);
layerId = m003;
name = Regular;
shapes = (
{
closed = 1;
nodes = (
(140,717,l),
(83,717,l),
(83,0,l),
(140,0,l)
);
}
);
width = 223;
},
{
anchors = (
{
name = bottom;
pos = (118,0);
},
{
name = top;
pos = (118,707);
}
);
layerId = m01;
name = Regular;
shapes = (
{
closed = 1;
nodes = (
(158,717,l),
(78,717,l),
(78,0,l),
(158,0,l)
);
}
);
width = 236;
},
{
anchors = (
{
name = bottom;
pos = (123,0);
},
{
name = top;
pos = (123,707);
}
);
layerId = "54FF0D0B-6EB9-4889-908D-B8898FFCE7DE";
name = Regular;
shapes = (
{
closed = 1;
nodes = (
(170,717,l),
(75,717,l),
(75,0,l),
(170,0,l)
);
}
);
width = 245;
},
{
anchors = (
{
name = bottom;
pos = (132,0);
},
{
name = top;
pos = (132,707);
}
);
layerId = "E7059794-B319-4C6D-9648-9B840A1B2BBD";
name = Regular;
shapes = (
{
closed = 1;
nodes = (
(193,718,l),
(71,718,l),
(71,0,l),
(193,0,l)
);
}
);
width = 264;
},
{
anchors = (
{
name = bottom;
pos = (137,0);
},
{
name = top;
pos = (136,707);
}
);
layerId = m005;
name = Regular;
shapes = (
{
closed = 1;
nodes = (
(204,719,l),
(70,719,l),
(70,0,l),
(204,0,l)
);
}
);
width = 274;
}
);
note = cid00605;
unicode = 108;
}
{
color = 0;
glyphname = m;
kernLeft = KO_r;
kernRight = KO_m;
layers = (
{
anchors = (
{
name = bottom;
pos = (436,0);
},
{
name = top;
pos = (436,505);
}
);
layerId = m003;
shapes = (
{
closed = 1;
nodes = (
(83,0,l),
(140,0,l),
(140,295,ls),
(140,413,o),
(193,460,o),
(281,460,cs),
(363,460,o),
(411,427,o),
(410,309,cs),
(408,0,l),
(465,0,l),
(465,293,ls),
(465,412,o),
(520,460,o),
(604,460,cs),
(692,460,o),
(734,425,o),
(734,309,cs),
(733,0,l),
(790,0,l),
(790,312,ls),
(790,445,o),
(730,511,o),
(625,511,cs),
(541,511,o),
(492,479,o),
(455,401,c),
(450,401,l),
(430,478,o),
(371,511,o),
(301,511,cs),
(224,511,o),
(170,477,o),
(138,421,c),
(138,501,l),
(83,501,l)
);
}
);
width = 871;
},
{
anchors = (
{
name = bottom;
pos = (424,0);
},
{
name = top;
pos = (424,505);
}
);
layerId = m01;
shapes = (
{
closed = 1;
nodes = (
(78,0,l),
(159,0,l),
(157,299,ls),
(156,405,o),
(203,445,o),
(279,445,cs),
(350,445,o),
(385,417,o),
(385,314,cs),
(385,0,l),
(465,0,l),
(465,299,ls),
(465,405,o),
(511,445,o),
(583,445,cs),
(659,445,o),
(693,415,o),
(693,314,cs),
(693,0,l),
(773,0,l),
(773,317,ls),
(773,451,o),
(714,515,o),
(612,515,cs),
(541,515,o),
(487,483,o),
(458,413,c),
(454,413,l),
(437,479,o),
(386,515,o),
(307,515,cs),
(238,515,o),
(190,480,o),
(157,422,c),
(158,505,l),
(78,505,l)
);
}
);
width = 848;
},
{
anchors = (
{
name = bottom;
pos = (428,0);
},
{
name = top;
pos = (428,505);
}
);
layerId = "54FF0D0B-6EB9-4889-908D-B8898FFCE7DE";
shapes = (
{
closed = 1;
nodes = (
(75,0,l),
(170,0,l),
(169,299,ls),
(169,396,o),
(210,436,o),
(283,436,cs),
(350,436,o),
(383,404,o),
(383,314,cs),
(383,0,l),
(477,0,l),
(477,299,ls),
(477,396,o),
(517,436,o),
(587,436,cs),
(657,436,o),
(690,403,o),
(690,314,cs),
(690,0,l),
(785,0,l),
(785,317,ls),
(785,466,o),
(712,517,o),
(616,517,cs),
(545,517,o),
(495,485,o),
(462,420,c),
(458,420,l),
(436,486,o),
(388,517,o),
(311,517,cs),
(251,517,o),
(204,490,o),
(169,435,c),
(170,507,l),
(75,507,l)
);
}
);
width = 856;
},
{
anchors = (
{
name = bottom;
pos = (438,0);
},
{
name = top;
pos = (438,505);
}
);
layerId = "E7059794-B319-4C6D-9648-9B840A1B2BBD";
shapes = (
{
closed = 1;
nodes = (
(71,0,l),
(193,0,l),
(193,297,ls),
(193,385,o),
(222,426,o),
(292,426,cs),
(353,426,o),
(379,390,o),
(379,312,cs),
(379,0,l),
(500,0,l),
(500,297,ls),
(500,385,o),
(528,426,o),
(596,426,cs),
(659,426,o),
(686,390,o),
(686,312,cs),
(686,0,l),
(808,0,l),
(808,318,ls),
(808,484,o),
(715,524,o),
(625,524,cs),
(554,524,o),
(507,492,o),
(470,432,c),
(469,432,l),
(441,497,o),
(395,524,o),
(320,524,cs),
(270,524,o),
(229,505,o),
(193,453,c),
(193,514,l),
(71,514,l)
);
}
);
width = 875;
},
{
anchors = (
{
name = bottom;
pos = (443,0);
},
{
name = top;
pos = (443,505);
}
);
layerId = m005;
shapes = (
{
closed = 1;
nodes = (
(70,0,l),
(204,0,l),
(204,295,ls),
(204,383,o),
(228,425,o),
(297,425,cs),
(357,425,o),
(377,388,o),
(377,310,cs),
(377,0,l),
(511,0,l),
(511,295,ls),
(511,383,o),
(534,425,o),
(601,425,cs),
(663,425,o),
(685,388,o),
(685,310,cs),
(685,0,l),
(819,0,l),
(819,319,ls),
(819,486,o),
(720,529,o),
(630,529,cs),
(558,529,o),
(510,496,o),
(474,436,c),
(475,436,l),
(447,501,o),
(400,529,o),
(325,529,cs),
(275,529,o),
(239,510,o),
(204,459,c),
(204,519,l),
(70,519,l)
);
}
);
width = 885;
}
);
note = cid00623;
unicode = 109;
}
{
color = 0;
glyphname = n;
kernLeft = KO_n;
kernRight = KO_n;
layers = (
{
anchors = (
{
name = bottom;
pos = (289,0);
},
{
name = top;
pos = (289,505);
}
);
layerId = m003;
shapes = (
{
closed = 1;
nodes = (
(140,294,ls),
(140,417,o),
(206,461,o),
(294,461,cs),
(380,461,o),
(429,423,o),
(429,310,cs),
(429,0,l),
(486,0,l),
(486,313,ls),
(486,450,o),
(421,511,o),
(308,511,cs),
(218,511,o),
(170,474,o),
(140,417,c),
(140,501,l),
(83,501,l),
(83,0,l),
(140,0,l)
);
}
);
width = 567;
},
{
anchors = (
{
name = bottom;
pos = (287,0);
},
{
name = top;
pos = (287,505);
}
);
layerId = m01;
shapes = (
{
closed = 1;
nodes = (
(158,299,ls),
(158,405,o),
(212,445,o),
(291,445,cs),
(367,445,o),
(407,412,o),
(407,314,cs),
(407,0,l),
(487,0,l),
(487,317,ls),
(487,456,o),
(425,515,o),
(316,515,cs),
(237,515,o),
(191,478,o),
(158,422,c),
(158,505,l),
(78,505,l),
(78,0,l),
(158,0,l)
);
}
);
width = 562;
},
{
anchors = (
{
name = bottom;
pos = (290,0);
},
{
name = top;
pos = (290,505);
}
);
layerId = "54FF0D0B-6EB9-4889-908D-B8898FFCE7DE";
shapes = (
{
closed = 1;
nodes = (
(170,299,ls),
(170,396,o),
(216,437,o),
(295,437,cs),
(367,437,o),
(404,402,o),
(404,314,cs),
(404,0,l),
(499,0,l),
(499,317,ls),
(499,463,o),
(429,518,o),
(320,518,cs),
(243,518,o),
(202,483,o),
(170,434,c),
(170,507,l),
(75,507,l),
(75,0,l),
(170,0,l)
);
}
);
width = 570;
},
{
anchors = (
{
name = bottom;
pos = (300,0);
},
{
name = top;
pos = (300,505);
}
);
layerId = "E7059794-B319-4C6D-9648-9B840A1B2BBD";
shapes = (
{
closed = 1;
nodes = (
(193,302,ls),
(193,388,o),
(229,426,o),
(304,426,cs),
(368,426,o),
(400,393,o),
(400,317,cs),
(400,0,l),
(522,0,l),
(522,318,ls),
(522,470,o),
(444,525,o),
(331,525,cs),
(261,525,o),
(223,497,o),
(192,452,c),
(193,514,l),
(71,514,l),
(71,0,l),
(193,0,l)
);
}
);
width = 589;
},
{
anchors = (
{
name = bottom;
pos = (305,0);
},
{
name = top;
pos = (305,505);
}
);
layerId = m005;
shapes = (
{
closed = 1;
nodes = (
(204,305,ls),
(204,389,o),
(238,424,o),
(309,424,cs),
(369,424,o),
(399,394,o),
(399,319,cs),
(399,0,l),
(533,0,l),
(533,318,ls),
(533,469,o),
(455,529,o),
(338,529,cs),
(274,529,o),
(233,507,o),
(203,458,c),
(204,519,l),
(70,519,l),
(70,0,l),
(204,0,l)
);
}
);
width = 599;
}
);
note = cid00630;
unicode = 110;
userData = {
KernOnName = n;
};
}
{
color = 0;
glyphname = o;
kernLeft = KO_o;
kernRight = KO_o;
layers = (
{
anchors = (
{
name = bottom;
pos = (283,0);
},
{
name = center;
pos = (283,253);
},
{
name = ogonek;
pos = (509,10);
},
{
name = top;
pos = (283,505);
},
{
name = topright;
pos = (546,505);
}
);
layerId = m003;
shapes = (
{
closed = 1;
nodes = (
(432,-10,o),
(515,83,o),
(515,251,cs),
(515,419,o),
(432,511,o),
(283,511,cs),
(134,511,o),
(51,419,o),
(51,251,cs),
(51,83,o),
(134,-10,o),
(283,-10,cs)
);
},
{
closed = 1;
nodes = (
(171,41,o),
(108,115,o),
(108,251,cs),
(108,387,o),
(171,460,o),
(283,460,cs),
(395,460,o),
(458,387,o),
(458,251,cs),
(458,115,o),
(395,41,o),
(283,41,cs)
);
}
);
width = 566;
},
{
anchors = (
{
name = bottom;
pos = (282,0);
},
{
name = center;
pos = (282,253);
},
{
name = ogonek;
pos = (507,10);
},
{
name = top;
pos = (282,505);
},
{
name = topright;
pos = (543,505);
}
);
layerId = m01;
shapes = (
{
closed = 1;
nodes = (
(431,-10,o),
(516,82,o),
(516,252,cs),
(516,422,o),
(431,515,o),
(282,515,cs),
(133,515,o),
(47,422,o),
(47,252,cs),
(47,82,o),
(133,-10,o),
(282,-10,cs)
);
},
{
closed = 1;
nodes = (
(169,60,o),
(127,137,o),
(127,252,cs),
(127,367,o),
(169,445,o),
(282,445,cs),
(394,445,o),
(436,367,o),
(436,252,cs),
(436,137,o),
(394,60,o),
(282,60,cs)
);
}
);
width = 563;
},
{
anchors = (
{
name = bottom;
pos = (285,0);
},
{
name = center;
pos = (285,253);
},
{
name = ogonek;
pos = (513,10);
},
{
name = top;
pos = (285,505);
},
{
name = topright;
pos = (550,505);
}
);
layerId = "54FF0D0B-6EB9-4889-908D-B8898FFCE7DE";
shapes = (
{
closed = 1;
nodes = (
(438,-10,o),
(527,82,o),
(527,253,cs),
(527,424,o),
(437,518,o),
(285,518,cs),
(132,518,o),
(43,422,o),
(43,253,cs),
(43,84,o),
(132,-10,o),
(285,-10,cs)
);
},
{
closed = 1;
nodes = (
(182,71,o),
(138,137,o),
(138,253,cs),
(138,369,o),
(182,437,o),
(285,437,cs),
(388,437,o),
(432,369,o),
(432,253,cs),
(432,137,o),
(388,71,o),
(285,71,cs)
);
}
);
width = 570;
},
{
anchors = (
{
name = bottom;
pos = (294,0);
},
{
name = center;
pos = (294,253);
},
{
name = ogonek;
pos = (528,10);
},
{
name = top;
pos = (294,505);
},
{
name = topright;
pos = (567,505);
}
);
layerId = "E7059794-B319-4C6D-9648-9B840A1B2BBD";
shapes = (
{
closed = 1;
nodes = (
(450,-10,o),
(549,84,o),
(549,256,cs),
(549,429,o),
(449,525,o),
(293,525,cs),
(135,525,o),
(38,427,o),
(38,256,cs),
(38,86,o),
(134,-10,o),
(293,-10,cs)
);
},
{
closed = 1;
nodes = (
(204,89,o),
(160,142,o),
(160,256,cs),
(160,370,o),
(204,426,o),
(293,426,cs),
(383,426,o),
(427,370,o),
(427,256,cs),
(427,142,o),
(383,89,o),
(293,89,cs)
);
}
);
width = 587;
},
{
anchors = (
{
name = bottom;
pos = (299,0);
},
{
name = center;
pos = (299,253);
},
{
name = ogonek;
pos = (537,10);
},
{
name = top;
pos = (299,505);
},
{
name = topright;
pos = (577,505);
}
);
layerId = m005;
shapes = (
{
closed = 1;
nodes = (
(456,-10,o),
(560,86,o),
(560,259,cs),
(560,432,o),
(455,529,o),
(298,529,cs),
(139,529,o),
(37,432,o),
(37,259,cs),
(37,86,o),
(138,-10,o),
(298,-10,cs)
);
},
{
closed = 1;
nodes = (
(213,95,o),
(171,148,o),
(171,259,cs),
(171,370,o),
(213,424,o),
(298,424,cs),
(384,424,o),
(426,370,o),
(426,259,cs),
(426,148,o),
(384,95,o),
(298,95,cs)
);
}
);
width = 597;
}
);
note = cid00645;
unicode = 111;
userData = {
KernOnName = o;
};
}
{
color = 0;
glyphname = p;
kernLeft = KO_p;
kernRight = KO_p;
layers = (
{
anchors = (
{
name = bottom;
pos = (308,0);
},
{
name = top;
pos = (308,505);
}
);
layerId = m003;
shapes = (
{
closed = 1;
nodes = (
(88,501,l),
(88,-202,l),
(145,-202,l),
(145,501,l)
);
},
{
closed = 1;
nodes = (
(459,-10,o),
(535,82,o),
(535,249,cs),
(535,417,o),
(459,511,o),
(323,511,cs),
(191,511,o),
(118,417,o),
(118,249,cs),
(118,81,o),
(191,-10,o),
(323,-10,cs)
);
},
{
closed = 1;
nodes = (
(202,41,o),
(145,114,o),
(145,249,cs),
(145,384,o),
(202,460,o),
(304,460,cs),
(416,460,o),
(478,384,o),
(478,249,cs),
(478,115,o),
(416,41,o),
(304,41,cs)
);
}
);
width = 586;
},
{
anchors = (
{
name = bottom;
pos = (311,0);
},
{
name = top;
pos = (311,505);
}
);
layerId = m01;
shapes = (
{
closed = 1;
nodes = (
(83,505,l),
(83,-202,l),
(163,-202,l),
(163,505,l)
);
},
{
closed = 1;
nodes = (
(469,-10,o),
(545,82,o),
(545,252,cs),
(545,422,o),
(469,515,o),
(329,515,cs),
(193,515,o),
(136,402,o),
(136,252,cs),
(136,102,o),
(193,-10,o),
(329,-10,cs)
);
},
{
closed = 1;
nodes = (
(203,60,o),
(163,137,o),
(163,252,cs),
(163,367,o),
(203,445,o),
(312,445,cs),
(425,445,o),
(465,367,o),
(465,252,cs),
(465,137,o),
(425,60,o),
(312,60,cs)
);
}
);
width = 592;
},
{
anchors = (
{
name = bottom;
pos = (316,0);
},
{
name = top;
pos = (316,505);
}
);
layerId = "54FF0D0B-6EB9-4889-908D-B8898FFCE7DE";
shapes = (
{
closed = 1;
nodes = (
(80,507,l),
(80,-202,l),
(175,-202,l),
(175,507,l)
);
},
{
closed = 1;
nodes = (
(476,-10,o),
(558,79,o),
(558,253,cs),
(558,426,o),
(477,517,o),
(338,517,cs),
(201,517,o),
(143,404,o),
(143,253,cs),
(143,102,o),
(201,-10,o),
(338,-10,cs)
);
},
{
closed = 1;
nodes = (
(217,71,o),
(175,137,o),
(175,253,cs),
(175,369,o),
(217,436,o),
(317,436,cs),
(420,436,o),
(463,369,o),
(463,253,cs),
(463,137,o),
(420,71,o),
(317,71,cs)
);
}
);
width = 601;
},
{
anchors = (
{
name = bottom;
pos = (325,0);
},
{
name = top;
pos = (325,505);
}
);
layerId = "E7059794-B319-4C6D-9648-9B840A1B2BBD";
shapes = (
{
closed = 1;
nodes = (
(76,514,l),
(76,-202,l),
(198,-202,l),
(198,514,l)
);
},
{
closed = 1;
nodes = (
(494,-10,o),
(582,79,o),
(582,256,cs),
(582,440,o),
(489,524,o),
(361,524,cs),
(214,524,o),
(155,408,o),
(155,256,cs),
(155,104,o),
(214,-10,o),
(361,-10,cs)
);
},
{
closed = 1;
nodes = (
(241,88,o),
(198,142,o),
(198,256,cs),
(198,370,o),
(241,426,o),
(328,426,cs),
(417,426,o),
(461,370,o),
(461,256,cs),
(461,142,o),
(417,88,o),
(328,88,cs)
);
}
);
width = 620;
},
{
anchors = (
{
name = bottom;
pos = (331,0);
},
{
name = top;
pos = (331,505);
}
);
layerId = m005;
shapes = (
{
closed = 1;
nodes = (
(75,519,l),
(75,-202,l),
(209,-202,l),
(209,519,l)
);
},
{
closed = 1;
nodes = (
(504,-10,o),
(594,81,o),
(594,258,cs),
(594,450,o),
(493,529,o),
(374,529,cs),
(219,529,o),
(160,411,o),
(160,258,cs),
(160,106,o),
(219,-10,o),
(374,-10,cs)
);
},
{
closed = 1;
nodes = (
(250,94,o),
(209,148,o),
(209,259,cs),
(209,370,o),
(250,425,o),
(333,425,cs),
(418,425,o),
(460,370,o),
(460,259,cs),
(460,148,o),
(418,94,o),
(333,94,cs)
);
}
);
width = 631;
}
);
note = cid00683;
unicode = 112;
}
{
color = 0;
glyphname = s;
kernLeft = KO_s;
kernRight = KO_s;
layers = (
{
anchors = (
{
name = bottom;
pos = (245,0);
},
{
name = top;
pos = (245,505);
}
);
layerId = m003;
shapes = (
{
closed = 1;
nodes = (
(429,379,l),
(416,469,o),
(360,511,o),
(250,511,cs),
(126,511,o),
(65,458,o),
(65,373,cs),
(65,305,o),
(107,268,o),
(194,246,cs),
(279,224,ls),
(355,204,o),
(383,180,o),
(383,128,cs),
(383,78,o),
(339,40,o),
(240,40,cs),
(147,40,o),
(120,73,o),
(111,132,c),
(50,132,l),
(66,32,o),
(124,-10,o),
(242,-10,cs),
(378,-10,o),
(440,55,o),
(440,133,cs),
(440,208,o),
(400,249,o),
(311,271,cs),
(226,292,ls),
(156,309,o),
(122,323,o),
(122,379,cs),
(122,426,o),
(162,461,o),
(250,461,cs),
(329,461,o),
(363,434,o),
(373,379,c)
);
}
);
width = 490;
},
{
anchors = (
{
name = bottom;
pos = (249,0);
},
{
name = top;
pos = (249,505);
}
);
layerId = m01;
shapes = (
{
closed = 1;
nodes = (
(443,372,l),
(434,466,o),
(370,515,o),
(255,515,cs),
(129,515,o),
(62,459,o),
(62,371,cs),
(62,301,o),
(108,254,o),
(201,232,cs),
(281,213,ls),
(342,199,o),
(371,176,o),
(371,134,cs),
(371,90,o),
(335,61,o),
(245,61,cs),
(165,61,o),
(137,86,o),
(129,140,c),
(45,140,l),
(58,38,o),
(123,-10,o),
(247,-10,cs),
(385,-10,o),
(453,53,o),
(453,139,cs),
(453,213,o),
(408,258,o),
(314,280,cs),
(234,299,ls),
(172,314,o),
(141,331,o),
(141,376,cs),
(141,418,o),
(181,445,o),
(255,445,cs),
(323,445,o),
(356,424,o),
(365,372,c)
);
}
);
width = 498;
},
{
anchors = (
{
name = bottom;
pos = (251,0);
},
{
name = top;
pos = (251,505);
}
);
layerId = "54FF0D0B-6EB9-4889-908D-B8898FFCE7DE";
shapes = (
{
closed = 1;
nodes = (
(450,369,l),
(444,465,o),
(375,518,o),
(257,518,cs),
(131,518,o),
(60,460,o),
(60,370,cs),
(60,300,o),
(109,252,o),
(205,229,cs),
(282,210,ls),
(338,197,o),
(363,175,o),
(363,138,cs),
(363,97,o),
(333,71,o),
(247,71,cs),
(175,71,o),
(148,93,o),
(141,145,c),
(42,145,l),
(53,42,o),
(122,-10,o),
(249,-10,cs),
(389,-10,o),
(460,52,o),
(460,143,cs),
(460,217,o),
(412,263,o),
(315,286,cs),
(238,305,ls),
(181,319,o),
(154,337,o),
(154,375,cs),
(154,414,o),
(191,438,o),
(257,438,cs),
(320,438,o),
(350,419,o),
(358,369,c)
);
}
);
width = 502;
},
{
anchors = (
{
name = bottom;
pos = (254,0);
},
{
name = top;
pos = (254,505);
}
);
layerId = "E7059794-B319-4C6D-9648-9B840A1B2BBD";
shapes = (
{
closed = 1;
nodes = (
(463,365,l),
(460,466,o),
(384,525,o),
(261,525,cs),
(133,525,o),
(55,464,o),
(55,371,cs),
(55,298,o),
(109,250,o),
(210,224,cs),
(282,206,ls),
(330,194,o),
(348,175,o),
(348,144,cs),
(348,109,o),
(327,88,o),
(251,88,cs),
(191,88,o),
(168,106,o),
(162,153,c),
(36,153,l),
(44,48,o),
(120,-10,o),
(253,-10,cs),
(394,-10,o),
(472,51,o),
(472,149,cs),
(472,226,o),
(419,272,o),
(317,298,cs),
(245,317,ls),
(196,329,o),
(176,347,o),
(176,376,cs),
(176,410,o),
(209,427,o),
(261,427,cs),
(313,427,o),
(337,413,o),
(345,365,c)
);
}
);
width = 508;
},
{
anchors = (
{
name = bottom;
pos = (255,0);
},
{
name = top;
pos = (255,505);
}
);
layerId = m005;
shapes = (
{
closed = 1;
nodes = (
(468,364,l),
(467,467,o),
(388,529,o),
(262,529,cs),
(133,529,o),
(52,467,o),
(52,373,cs),
(52,297,o),
(108,249,o),
(212,222,cs),
(282,204,ls),
(326,193,o),
(341,175,o),
(341,146,cs),
(341,114,o),
(324,95,o),
(252,95,cs),
(198,95,o),
(176,112,o),
(171,156,c),
(33,156,l),
(39,50,o),
(119,-10,o),
(254,-10,cs),
(396,-10,o),
(477,50,o),
(477,151,cs),
(477,230,o),
(421,277,o),
(317,304,cs),
(247,322,ls),
(202,334,o),
(186,352,o),
(186,377,cs),
(186,409,o),
(217,424,o),
(262,424,cs),
(309,424,o),
(331,411,o),
(338,364,c)
);
}
);
width = 510;
}
);
note = cid00707;
unicode = 115;
}
{
color = 0;
glyphname = t;
kernLeft = KO_t;
kernRight = KO_t;
layers = (
{
anchors = (
{
name = bottom;
pos = (144,0);
},
{
name = center;
pos = (159,253);
},
{
name = top;
pos = (141,651);
}
);
layerId = m003;
name = Light;
shapes = (
{
closed = 1;
nodes = (
(293,501,l),
(169,501,l),
(169,651,l),
(112,651,l),
(112,501,l),
(23,501,l),
(23,451,l),
(112,451,l),
(112,101,ls),
(112,19,o),
(143,0,o),
(224,0,cs),
(288,0,l),
(288,50,l),
(169,50,l),
(169,451,l),
(293,451,l)
);
}
);
width = 318;
},
{
anchors = (
{
name = bottom;
pos = (145,0);
},
{
name = center;
pos = (160,253);
},
{
name = top;
pos = (145,656);
}
);
layerId = m01;
name = Regular;
shapes = (
{
closed = 1;
nodes = (
(301,505,l),
(185,505,l),
(185,656,l),
(105,656,l),
(105,505,l),
(17,505,l),
(17,435,l),
(105,435,l),
(105,115,ls),
(105,23,o),
(159,0,o),
(235,0,cs),
(301,0,l),
(301,70,l),
(185,70,l),
(185,435,l),
(301,435,l)
);
}
);
width = 320;
},
{
anchors = (
{
name = bottom;
pos = (147,0);
},
{
name = center;
pos = (163,253);
},
{
name = top;
pos = (147,658);
}
);
layerId = "54FF0D0B-6EB9-4889-908D-B8898FFCE7DE";
name = Regular;
shapes = (
{
closed = 1;
nodes = (
(308,507,l),
(196,507,l),
(196,658,l),
(101,658,l),
(101,507,l),
(15,507,l),
(15,427,l),
(101,427,l),
(101,123,ls),
(101,31,o),
(157,0,o),
(237,0,cs),
(308,0,l),
(308,80,l),
(196,80,l),
(196,427,l),
(308,427,l)
);
}
);
width = 325;
},
{
anchors = (
{
name = bottom;
pos = (155,0);
},
{
name = center;
pos = (168,253);
},
{
name = top;
pos = (155,662);
}
);
layerId = "E7059794-B319-4C6D-9648-9B840A1B2BBD";
name = Medium;
shapes = (
{
closed = 1;
nodes = (
(322,514,l),
(216,514,l),
(216,662,l),
(94,662,l),
(94,514,l),
(13,514,l),
(13,417,l),
(94,417,l),
(94,133,ls),
(94,40,o),
(155,0,o),
(242,0,cs),
(322,0,l),
(322,97,l),
(216,97,l),
(216,417,l),
(322,417,l)
);
}
);
width = 335;
},
{
anchors = (
{
name = bottom;
pos = (159,0);
},
{
name = center;
pos = (170,253);
},
{
name = top;
pos = (159,664);
}
);
layerId = m005;
name = Semibold;
shapes = (
{
closed = 1;
nodes = (
(329,519,l),
(226,519,l),
(226,664,l),
(92,664,l),
(92,519,l),
(12,519,l),
(12,414,l),
(92,414,l),
(92,135,ls),
(92,42,o),
(155,0,o),
(245,0,cs),
(329,0,l),
(329,105,l),
(226,105,l),
(226,414,l),
(329,414,l)
);
}
);
width = 339;
}
);
note = cid00723;
unicode = 116;
userData = {
KernOnName = t;
};
}
{
color = 0;
glyphname = x;
kernLeft = KO_x;
kernRight = KO_x;
layers = (
{
anchors = (
{
name = bottom;
pos = (247,0);
},
{
name = top;
pos = (247,505);
}
);
layerId = m003;
shapes = (
{
closed = 1;
nodes = (
(390,501,l),
(239,277,l),
(274,240,l),
(452,501,l)
);
},
{
closed = 1;
nodes = (
(98,0,l),
(249,214,l),
(212,248,l),
(34,0,l)
);
},
{
closed = 1;
nodes = (
(36,501,l),
(210,242,l),
(241,212,l),
(387,0,l),
(458,0,l),
(278,250,l),
(248,282,l),
(106,501,l)
);
}
);
width = 493;
},
{
anchors = (
{
name = bottom;
pos = (258,0);
},
{
name = top;
pos = (258,505);
}
);
layerId = m01;
shapes = (
{
closed = 1;
nodes = (
(391,505,l),
(246,282,l),
(293,232,l),
(481,505,l)
);
},
{
closed = 1;
nodes = (
(121,0,l),
(267,212,l),
(217,265,l),
(31,0,l)
);
},
{
closed = 1;
nodes = (
(31,505,l),
(206,246,l),
(252,203,l),
(389,0,l),
(482,0,l),
(304,251,l),
(258,295,l),
(125,505,l)
);
}
);
width = 515;
},
{
anchors = (
{
name = bottom;
pos = (265,0);
},
{
name = top;
pos = (265,505);
}
);
layerId = "54FF0D0B-6EB9-4889-908D-B8898FFCE7DE";
shapes = (
{
closed = 1;
nodes = (
(393,507,l),
(250,285,l),
(304,228,l),
(498,507,l)
);
},
{
closed = 1;
nodes = (
(134,0,l),
(278,211,l),
(221,275,l),
(29,0,l)
);
},
{
closed = 1;
nodes = (
(30,507,l),
(208,245,l),
(257,201,l),
(392,0,l),
(499,0,l),
(317,258,l),
(269,299,l),
(137,507,l)
);
}
);
width = 530;
},
{
anchors = (
{
name = bottom;
pos = (278,0);
},
{
name = top;
pos = (278,505);
}
);
layerId = "E7059794-B319-4C6D-9648-9B840A1B2BBD";
shapes = (
{
closed = 1;
nodes = (
(396,514,l),
(256,291,l),
(325,221,l),
(528,514,l)
);
},
{
closed = 1;
nodes = (
(158,0,l),
(297,209,l),
(230,296,l),
(25,0,l)
);
},
{
closed = 1;
nodes = (
(26,514,l),
(210,241,l),
(264,197,l),
(396,0,l),
(529,0,l),
(338,270,l),
(288,305,l),
(159,514,l)
);
}
);
width = 556;
},
{
anchors = (
{
name = bottom;
pos = (284,0);
},
{
name = top;
pos = (284,505);
}
);
layerId = m005;
shapes = (
{
closed = 1;
nodes = (
(397,519,l),
(258,293,l),
(334,217,l),
(541,519,l)
);
},
{
closed = 1;
nodes = (
(169,0,l),
(305,208,l),
(236,308,l),
(23,0,l)
);
},
{
closed = 1;
nodes = (
(24,519,l),
(211,239,l),
(267,195,l),
(396,0,l),
(542,0,l),
(346,275,l),
(296,308,l),
(168,519,l)
);
}
);
width = 567;
}
);
note = cid00823;
unicode = 120;
}
{
color = 0;
glyphname = y;
kernLeft = KO_y;
kernRight = KO_y;
layers = (
{
anchors = (
{
name = bottom;
pos = (247,0);
},
{
name = top;
pos = (247,505);
}
);
layerId = m003;
name = Regular;
shapes = (
{
closed = 1;
nodes = (
(248,-68,ls),
(230,-131,o),
(205,-152,o),
(147,-152,cs),
(76,-152,l),
(76,-202,l),
(152,-202,ls),
(222,-202,o),
(273,-174,o),
(299,-84,cs),
(470,501,l),
(410,501,l)
);
},
{
closed = 1;
nodes = (
(23,501,l),
(146,118,ls),
(178,17,o),
(198,0,o),
(260,0,cs),
(305,0,l),
(305,50,l),
(265,50,ls),
(231,50,o),
(224,60,o),
(201,133,cs),
(84,501,l)
);
}
);
width = 493;
},
{
anchors = (
{
name = bottom;
pos = (265,0);
},
{
name = top;
pos = (265,505);
}
);
layerId = m01;
name = Regular;
shapes = (
{
closed = 1;
nodes = (
(262,-63,ls),
(246,-119,o),
(219,-132,o),
(166,-132,cs),
(104,-132,l),
(104,-202,l),
(171,-202,ls),
(256,-202,o),
(306,-172,o),
(333,-81,cs),
(507,505,l),
(424,505,l)
);
},
{
closed = 1;
nodes = (
(22,505,l),
(148,128,ls),
(181,29,o),
(198,0,o),
(267,0,cs),
(340,0,l),
(340,70,l),
(279,70,ls),
(251,70,o),
(241,87,o),
(222,145,cs),
(106,505,l)
);
}
);
width = 529;
},
{
anchors = (
{
name = bottom;
pos = (269,0);
},
{
name = top;
pos = (269,505);
}
);
layerId = "54FF0D0B-6EB9-4889-908D-B8898FFCE7DE";
name = Regular;
shapes = (
{
closed = 1;
nodes = (
(261,-54,ls),
(246,-107,o),
(222,-121,o),
(171,-121,cs),
(100,-121,l),
(100,-202,l),
(176,-202,ls),
(260,-202,o),
(313,-171,o),
(341,-78,cs),
(516,507,l),
(421,507,l)
);
},
{
closed = 1;
nodes = (
(21,507,l),
(148,130,ls),
(182,30,o),
(203,3,o),
(273,3,cs),
(352,3,l),
(352,87,l),
(284,87,ls),
(260,87,o),
(252,101,o),
(233,158,cs),
(118,507,l)
);
}
);
width = 537;
},
{
anchors = (
{
name = bottom;
pos = (281,0);
},
{
name = top;
pos = (281,505);
}
);
layerId = "E7059794-B319-4C6D-9648-9B840A1B2BBD";
name = Regular;
shapes = (
{
closed = 1;
nodes = (
(266,-40,ls),
(252,-89,o),
(231,-104,o),
(184,-104,cs),
(102,-104,l),
(102,-202,l),
(195,-202,ls),
(278,-202,o),
(337,-170,o),
(366,-73,cs),
(542,514,l),
(425,514,l)
);
},
{
closed = 1;
nodes = (
(20,514,l),
(148,133,ls),
(182,31,o),
(209,6,o),
(281,6,cs),
(372,6,l),
(372,107,l),
(296,107,ls),
(276,107,o),
(269,127,o),
(253,174,cs),
(141,514,l)
);
}
);
width = 561;
},
{
anchors = (
{
name = bottom;
pos = (289,0);
},
{
name = top;
pos = (289,505);
}
);
layerId = m005;
name = Regular;
shapes = (
{
closed = 1;
nodes = (
(272,-34,ls),
(258,-83,o),
(238,-97,o),
(192,-97,cs),
(108,-97,l),
(108,-202,l),
(209,-202,ls),
(292,-202,o),
(353,-169,o),
(382,-72,cs),
(558,519,l),
(431,519,l)
);
},
{
closed = 1;
nodes = (
(19,519,l),
(147,134,ls),
(181,32,o),
(210,6,o),
(283,6,cs),
(380,6,l),
(380,111,l),
(304,111,ls),
(284,111,o),
(275,139,o),
(263,177,cs),
(152,519,l)
);
}
);
width = 577;
}
);
note = cid00826;
unicode = 121;
}
{
color = 0;
glyphname = bar;
layers = (
{
layerId = m003;
shapes = (
{
closed = 1;
nodes = (
(159,800,l),
(105,800,l),
(105,-140,l),
(159,-140,l)
);
}
);
width = 264;
},
{
layerId = m01;
shapes = (
{
closed = 1;
nodes = (
(180,800,l),
(111,800,l),
(111,-140,l),
(180,-140,l)
);
}
);
width = 291;
},
{
layerId = "54FF0D0B-6EB9-4889-908D-B8898FFCE7DE";
shapes = (
{
closed = 1;
nodes = (
(192,800,l),
(112,800,l),
(112,-140,l),
(192,-140,l)
);
}
);
width = 304;
},
{
layerId = "E7059794-B319-4C6D-9648-9B840A1B2BBD";
shapes = (
{
closed = 1;
nodes = (
(212,800,l),
(114,800,l),
(114,-140,l),
(212,-140,l)
);
}
);
width = 326;
},
{
layerId = m005;
shapes = (
{
closed = 1;
nodes = (
(220,800,l),
(115,800,l),
(115,-140,l),
(220,-140,l)
);
}
);
width = 335;
}
);
unicode = 124;
}
{
color = 0;
glyphname = braceright;
layers = (
{
hints = (
{
horizontal = 1;
place = (-120,76);
type = Stem;
},
{
horizontal = 1;
place = (263,54);
type = Stem;
},
{
horizontal = 1;
place = (624,76);
type = Stem;
},
{
place = (189,85);
type = Stem;
}
);
layerId = m003;
shapes = (
{
closed = 1;
nodes = (
(351,344,l),
(317,344,ls),
(272,344,o),
(234,362,o),
(234,420,cs),
(234,662,ls),
(234,736,o),
(180,788,o),
(103,788,cs),
(30,788,l),
(30,736,l),
(95,736,ls),
(154,736,o),
(179,706,o),
(179,648,cs),
(179,413,ls),
(179,356,o),
(220,320,o),
(269,308,c),
(269,328,l),
(220,316,o),
(179,280,o),
(179,222,cs),
(179,-13,ls),
(179,-71,o),
(154,-101,o),
(95,-101,cs),
(30,-101,l),
(30,-153,l),
(100,-153,ls),
(178,-153,o),
(234,-101,o),
(234,-27,cs),
(234,215,ls),
(234,273,o),
(272,292,o),
(317,292,cs),
(351,292,l)
);
}
);
width = 426;
},
{
hints = (
{
horizontal = 1;
place = (-120,91);
type = Stem;
},
{
horizontal = 1;
place = (260,62);
type = Stem;
},
{
horizontal = 1;
place = (610,91);
type = Stem;
},
{
place = (185,105);
type = Stem;
}
);
layerId = m01;
shapes = (
{
closed = 1;
nodes = (
(356,350,l),
(323,350,ls),
(273,350,o),
(242,372,o),
(242,430,cs),
(242,659,ls),
(242,733,o),
(189,788,o),
(114,788,cs),
(25,788,l),
(25,721,l),
(88,721,ls),
(158,721,o),
(172,688,o),
(172,630,cs),
(172,413,ls),
(172,358,o),
(210,319,o),
(264,306,c),
(264,326,l),
(210,313,o),
(172,274,o),
(172,218,cs),
(172,1,ls),
(172,-57,o),
(158,-89,o),
(88,-89,cs),
(25,-89,l),
(25,-156,l),
(110,-156,ls),
(186,-156,o),
(242,-102,o),
(242,-27,cs),
(242,202,ls),
(242,260,o),
(273,282,o),
(323,282,cs),
(356,282,l)
);
}
);
width = 426;
},
{
hints = (
{
horizontal = 1;
place = (-120,98);
type = Stem;
},
{
horizontal = 1;
place = (258,66);
type = Stem;
},
{
horizontal = 1;
place = (603,98);
type = Stem;
},
{
place = (183,115);
type = Stem;
}
);
layerId = "54FF0D0B-6EB9-4889-908D-B8898FFCE7DE";
shapes = (
{
closed = 1;
nodes = (
(359,356,l),
(327,356,ls),
(274,356,o),
(247,378,o),
(247,436,cs),
(247,658,ls),
(247,732,o),
(194,788,o),
(120,788,cs),
(23,788,l),
(23,710,l),
(85,710,ls),
(154,710,o),
(166,685,o),
(166,622,cs),
(166,414,ls),
(166,360,o),
(203,319,o),
(260,306,c),
(260,326,l),
(203,312,o),
(166,272,o),
(166,217,cs),
(166,9,ls),
(166,-55,o),
(154,-79,o),
(85,-79,cs),
(23,-79,l),
(23,-157,l),
(115,-157,ls),
(190,-157,o),
(247,-102,o),
(247,-27,cs),
(247,196,ls),
(247,254,o),
(274,276,o),
(327,276,cs),
(359,276,l)
);
}
);
width = 426;
},
{
hints = (
{
horizontal = 1;
place = (-60,53);
type = Stem;
},
{
horizontal = 1;
place = (128,35);
type = Stem;
},
{
horizontal = 1;
place = (298,53);
type = Stem;
},
{
place = (90,62);
type = Stem;
}
);
layerId = "E7059794-B319-4C6D-9648-9B840A1B2BBD";
shapes = (
{
closed = 1;
nodes = (
(356,364,l),
(329,364,ls),
(274,364,o),
(250,383,o),
(250,441,cs),
(250,657,ls),
(250,731,o),
(198,788,o),
(124,788,cs),
(19,788,l),
(19,693,l),
(89,693,ls),
(148,693,o),
(152,674,o),
(152,613,cs),
(152,414,ls),
(152,361,o),
(194,319,o),
(254,305,c),
(254,325,l),
(194,310,o),
(152,269,o),
(152,215,cs),
(152,16,ls),
(152,-44,o),
(148,-63,o),
(89,-63,cs),
(19,-63,l),
(19,-158,l),
(119,-158,ls),
(193,-158,o),
(250,-101,o),
(250,-27,cs),
(250,189,ls),
(250,247,o),
(274,267,o),
(329,267,cs),
(356,267,l)
);
}
);
width = 425;
},
{
hints = (
{
horizontal = 1;
place = (-120,76);
type = Stem;
},
{
horizontal = 1;
place = (263,54);
type = Stem;
},
{
horizontal = 1;
place = (624,76);
type = Stem;
},
{
place = (189,85);
type = Stem;
}
);
layerId = m005;
shapes = (
{
closed = 1;
nodes = (
(350,366,l),
(328,366,ls),
(273,366,o),
(249,383,o),
(249,441,cs),
(249,657,ls),
(249,731,o),
(197,788,o),
(123,788,cs),
(18,788,l),
(18,688,l),
(96,688,ls),
(145,688,o),
(144,666,o),
(144,613,cs),
(144,414,ls),
(144,361,o),
(193,319,o),
(253,305,c),
(253,325,l),
(193,310,o),
(144,269,o),
(144,215,cs),
(144,16,ls),
(144,-36,o),
(145,-58,o),
(96,-58,cs),
(18,-58,l),
(18,-158,l),
(118,-158,ls),
(192,-158,o),
(249,-101,o),
(249,-27,cs),
(249,189,ls),
(249,247,o),
(273,264,o),
(328,264,cs),
(350,264,l)
);
}
);
width = 424;
}
);
unicode = 125;
}
{
glyphname = cent;
layers = (
{
layerId = m003;
shapes = (
{
closed = 1;
nodes = (
(241,486,l),
(242,479,l),
(242,22,l),
(241,15,l),
(241,-118,l),
(296,-118,l),
(296,13,l),
(295,19,l),
(295,479,l),
(296,486,l),
(296,623,l),
(241,623,l)
);
},
{
closed = 1;
nodes = (
(397,-10,o),
(463,47,o),
(478,131,c),
(418,131,l),
(405,67,o),
(365,40,o),
(279,40,cs),
(168,40,o),
(103,112,o),
(103,251,cs),
(103,390,o),
(168,461,o),
(279,461,cs),
(369,461,o),
(405,423,o),
(418,364,c),
(478,364,l),
(460,455,o),
(389,511,o),
(278,511,cs),
(130,511,o),
(47,418,o),
(47,251,cs),
(47,84,o),
(124,-10,o),
(280,-10,cs)
);
}
);
width = 499;
},
{
layerId = m01;
shapes = (
{
closed = 1;
nodes = (
(236,493,l),
(241,486,l),
(241,21,l),
(236,14,l),
(236,-110,l),
(310,-110,l),
(310,12,l),
(305,18,l),
(305,486,l),
(310,493,l),
(310,623,l),
(236,623,l)
);
},
{
closed = 1;
nodes = (
(409,-10,o),
(481,58,o),
(492,145,c),
(410,145,l),
(401,86,o),
(364,59,o),
(283,59,cs),
(175,59,o),
(122,124,o),
(122,253,cs),
(122,382,o),
(175,447,o),
(283,447,cs),
(367,447,o),
(401,409,o),
(410,356,c),
(491,356,l),
(478,451,o),
(398,515,o),
(282,515,cs),
(128,515,o),
(43,420,o),
(43,253,cs),
(43,86,o),
(123,-10,o),
(284,-10,cs)
);
}
);
width = 507;
},
{
layerId = "54FF0D0B-6EB9-4889-908D-B8898FFCE7DE";
shapes = (
{
closed = 1;
nodes = (
(234,496,l),
(241,489,l),
(241,20,l),
(234,13,l),
(234,-106,l),
(317,-106,l),
(317,11,l),
(310,17,l),
(310,489,l),
(317,496,l),
(317,623,l),
(234,623,l)
);
},
{
closed = 1;
nodes = (
(414,-10,o),
(491,64,o),
(499,152,c),
(406,152,l),
(398,96,o),
(364,68,o),
(284,68,cs),
(178,68,o),
(132,130,o),
(132,254,cs),
(132,377,o),
(178,439,o),
(284,439,cs),
(366,439,o),
(398,401,o),
(405,351,c),
(498,351,l),
(488,449,o),
(403,517,o),
(283,517,cs),
(127,517,o),
(41,420,o),
(41,254,cs),
(41,87,o),
(123,-10,o),
(285,-10,cs)
);
}
);
width = 511;
},
{
layerId = "E7059794-B319-4C6D-9648-9B840A1B2BBD";
shapes = (
{
closed = 1;
nodes = (
(230,501,l),
(240,494,l),
(240,19,l),
(230,12,l),
(230,-100,l),
(329,-100,l),
(329,10,l),
(318,16,l),
(318,494,l),
(329,501,l),
(329,623,l),
(230,623,l)
);
},
{
closed = 1;
nodes = (
(423,-10,o),
(506,72,o),
(511,163,c),
(400,163,l),
(395,112,o),
(363,83,o),
(287,83,cs),
(183,83,o),
(148,139,o),
(148,255,cs),
(148,371,o),
(183,427,o),
(287,427,cs),
(365,427,o),
(395,389,o),
(398,345,c),
(509,345,l),
(503,446,o),
(410,520,o),
(286,520,cs),
(126,520,o),
(38,421,o),
(38,255,cs),
(38,89,o),
(122,-10,o),
(288,-10,cs)
);
}
);
width = 517;
},
{
layerId = m005;
shapes = (
{
closed = 1;
nodes = (
(227,506,l),
(239,499,l),
(239,18,l),
(227,11,l),
(227,-95,l),
(338,-95,l),
(338,9,l),
(325,15,l),
(325,499,l),
(338,506,l),
(338,623,l),
(227,623,l)
);
},
{
closed = 1;
nodes = (
(431,-10,o),
(518,80,o),
(520,172,c),
(395,172,l),
(392,125,o),
(362,95,o),
(289,95,cs),
(188,95,o),
(161,147,o),
(161,256,cs),
(161,365,o),
(188,418,o),
(289,418,cs),
(364,418,o),
(392,380,o),
(392,339,c),
(517,339,l),
(515,443,o),
(417,523,o),
(288,523,cs),
(125,523,o),
(35,422,o),
(35,256,cs),
(35,91,o),
(121,-10,o),
(290,-10,cs)
);
}
);
width = 523;
}
);
unicode = 162;
}
{
glyphname = sterling;
layers = (
{
layerId = m003;
shapes = (
{
closed = 1;
nodes = (
(494,678,o),
(425,717,o),
(340,717,cs),
(229,717,o),
(140,641,o),
(144,508,cs),
(148,347,l),
(61,347,l),
(61,296,l),
(150,296,l),
(153,166,ls),
(154,115,o),
(140,52,o),
(97,51,cs),
(62,51,l),
(62,0,l),
(516,0,l),
(516,51,l),
(177,51,l),
(202,77,o),
(210,119,o),
(209,167,cs),
(206,296,l),
(376,296,l),
(376,347,l),
(204,347,l),
(199,508,ls),
(196,608,o),
(260,665,o),
(342,665,cs),
(401,665,o),
(444,642,o),
(454,589,c),
(510,589,l)
);
}
);
width = 588;
},
{
layerId = m01;
shapes = (
{
closed = 1;
nodes = (
(512,673,o),
(441,717,o),
(344,717,cs),
(229,717,o),
(135,646,o),
(139,506,cs),
(143,361,l),
(61,361,l),
(61,292,l),
(145,292,l),
(148,182,ls),
(149,136,o),
(138,71,o),
(99,69,cs),
(62,69,l),
(62,0,l),
(536,0,l),
(536,69,l),
(198,69,l),
(222,95,o),
(230,140,o),
(229,184,cs),
(225,292,l),
(395,292,l),
(395,361,l),
(223,361,l),
(218,506,ls),
(215,599,o),
(272,647,o),
(345,647,cs),
(404,647,o),
(442,627,o),
(451,574,c),
(528,574,l)
);
}
);
width = 607;
},
{
layerId = "54FF0D0B-6EB9-4889-908D-B8898FFCE7DE";
shapes = (
{
closed = 1;
nodes = (
(521,670,o),
(449,717,o),
(346,717,cs),
(228,717,o),
(132,649,o),
(136,504,cs),
(140,368,l),
(60,368,l),
(60,290,l),
(143,290,l),
(146,189,ls),
(147,147,o),
(137,81,o),
(100,78,cs),
(62,78,l),
(62,0,l),
(546,0,l),
(546,78,l),
(209,78,l),
(232,105,o),
(240,150,o),
(239,193,cs),
(235,290,l),
(404,290,l),
(404,368,l),
(232,368,l),
(228,504,ls),
(225,594,o),
(278,637,o),
(347,637,cs),
(405,637,o),
(441,619,o),
(449,566,c),
(537,566,l)
);
}
);
width = 616;
},
{
layerId = "E7059794-B319-4C6D-9648-9B840A1B2BBD";
shapes = (
{
closed = 1;
nodes = (
(536,666,o),
(463,717,o),
(349,717,cs),
(228,717,o),
(127,653,o),
(132,502,cs),
(136,380,l),
(60,380,l),
(60,287,l),
(139,287,l),
(142,202,ls),
(143,164,o),
(135,97,o),
(101,93,cs),
(62,93,l),
(62,0,l),
(562,0,l),
(562,93,l),
(226,93,l),
(248,120,o),
(257,167,o),
(255,207,cs),
(251,287,l),
(420,287,l),
(420,380,l),
(248,380,l),
(244,502,ls),
(241,587,o),
(287,622,o),
(349,622,cs),
(407,622,o),
(439,606,o),
(446,553,c),
(551,553,l)
);
}
);
width = 631;
},
{
layerId = m005;
shapes = (
{
closed = 1;
nodes = (
(548,662,o),
(474,717,o),
(352,717,cs),
(228,717,o),
(123,657,o),
(128,500,cs),
(132,389,l),
(60,389,l),
(60,284,l),
(136,284,l),
(139,212,ls),
(140,178,o),
(133,110,o),
(102,105,cs),
(62,105,l),
(62,0,l),
(575,0,l),
(575,105,l),
(240,105,l),
(261,132,o),
(270,181,o),
(268,218,cs),
(264,284,l),
(432,284,l),
(432,389,l),
(260,389,l),
(257,500,ls),
(254,580,o),
(295,610,o),
(351,610,cs),
(409,610,o),
(437,596,o),
(444,543,c),
(562,543,l)
);
}
);
width = 643;
}
);
unicode = 163;
}
{
glyphname = currency;
layers = (
{
layerId = m003;
shapes = (
{
closed = 1;
nodes = (
(403,141,o),
(486,215,o),
(486,351,cs),
(486,487,o),
(403,561,o),
(288,561,cs),
(175,561,o),
(90,487,o),
(90,351,cs),
(90,215,o),
(175,141,o),
(288,141,cs)
);
},
{
closed = 1;
nodes = (
(203,186,o),
(141,241,o),
(141,351,cs),
(141,460,o),
(203,516,o),
(288,516,cs),
(374,516,o),
(435,460,o),
(435,351,cs),
(435,241,o),
(374,186,o),
(288,186,cs)
);
},
{
closed = 1;
nodes = (
(404,501,l),
(436,469,l),
(549,583,l),
(518,614,l)
);
},
{
closed = 1;
nodes = (
(27,119,l),
(58,88,l),
(172,201,l),
(140,233,l)
);
},
{
closed = 1;
nodes = (
(27,583,l),
(140,469,l),
(172,501,l),
(58,614,l)
);
},
{
closed = 1;
nodes = (
(404,201,l),
(518,88,l),
(549,119,l),
(436,233,l)
);
}
);
width = 577;
},
{
layerId = m01;
shapes = (
{
closed = 1;
nodes = (
(406,139,o),
(491,213,o),
(491,352,cs),
(491,491,o),
(406,565,o),
(290,565,cs),
(174,565,o),
(88,491,o),
(88,352,cs),
(88,213,o),
(174,139,o),
(290,139,cs)
);
},
{
closed = 1;
nodes = (
(212,198,o),
(156,249,o),
(156,352,cs),
(156,455,o),
(212,506,o),
(290,506,cs),
(368,506,o),
(423,455,o),
(423,352,cs),
(423,249,o),
(368,198,o),
(290,198,cs)
);
},
{
closed = 1;
nodes = (
(399,507,l),
(441,465,l),
(554,579,l),
(513,620,l)
);
},
{
closed = 1;
nodes = (
(25,125,l),
(67,84,l),
(181,197,l),
(138,239,l)
);
},
{
closed = 1;
nodes = (
(25,579,l),
(138,465,l),
(181,507,l),
(67,620,l)
);
},
{
closed = 1;
nodes = (
(399,197,l),
(513,84,l),
(554,125,l),
(441,239,l)
);
}
);
width = 579;
},
{
layerId = "54FF0D0B-6EB9-4889-908D-B8898FFCE7DE";
shapes = (
{
closed = 1;
nodes = (
(407,138,o),
(493,212,o),
(493,352,cs),
(493,493,o),
(407,567,o),
(290,567,cs),
(174,567,o),
(86,493,o),
(86,352,cs),
(86,212,o),
(174,138,o),
(290,138,cs)
);
},
{
closed = 1;
nodes = (
(216,204,o),
(164,253,o),
(164,352,cs),
(164,452,o),
(216,501,o),
(290,501,cs),
(365,501,o),
(417,452,o),
(417,352,cs),
(417,253,o),
(365,204,o),
(290,204,cs)
);
},
{
closed = 1;
nodes = (
(396,510,l),
(443,462,l),
(556,576,l),
(510,623,l)
);
},
{
closed = 1;
nodes = (
(24,128,l),
(71,81,l),
(185,194,l),
(137,242,l)
);
},
{
closed = 1;
nodes = (
(24,576,l),
(137,462,l),
(185,510,l),
(71,623,l)
);
},
{
closed = 1;
nodes = (
(396,194,l),
(510,81,l),
(556,128,l),
(443,242,l)
);
}
);
width = 580;
},
{
layerId = "E7059794-B319-4C6D-9648-9B840A1B2BBD";
shapes = (
{
closed = 1;
nodes = (
(409,136,o),
(497,210,o),
(497,353,cs),
(497,496,o),
(409,570,o),
(291,570,cs),
(173,570,o),
(84,496,o),
(84,353,cs),
(84,210,o),
(173,136,o),
(291,136,cs)
);
},
{
closed = 1;
nodes = (
(222,213,o),
(176,259,o),
(176,353,cs),
(176,447,o),
(222,493,o),
(291,493,cs),
(360,493,o),
(407,447,o),
(407,353,cs),
(407,259,o),
(360,213,o),
(291,213,cs)
);
},
{
closed = 1;
nodes = (
(391,515,l),
(447,459,l),
(560,573,l),
(505,628,l)
);
},
{
closed = 1;
nodes = (
(22,133,l),
(77,78,l),
(191,191,l),
(135,247,l)
);
},
{
closed = 1;
nodes = (
(22,573,l),
(135,459,l),
(191,515,l),
(77,628,l)
);
},
{
closed = 1;
nodes = (
(391,191,l),
(505,78,l),
(560,133,l),
(447,247,l)
);
}
);
width = 582;
},
{
layerId = m005;
shapes = (
{
closed = 1;
nodes = (
(411,134,o),
(500,208,o),
(500,354,cs),
(500,499,o),
(411,573,o),
(292,573,cs),
(172,573,o),
(82,499,o),
(82,354,cs),
(82,208,o),
(172,134,o),
(292,134,cs)
);
},
{
closed = 1;
nodes = (
(228,221,o),
(185,265,o),
(185,354,cs),
(185,443,o),
(228,486,o),
(292,486,cs),
(356,486,o),
(398,443,o),
(398,354,cs),
(398,265,o),
(356,221,o),
(292,221,cs)
);
},
{
closed = 1;
nodes = (
(387,519,l),
(450,456,l),
(563,570,l),
(501,632,l)
);
},
{
closed = 1;
nodes = (
(20,137,l),
(83,75,l),
(197,188,l),
(133,251,l)
);
},
{
closed = 1;
nodes = (
(20,570,l),
(133,456,l),
(197,519,l),
(83,632,l)
);
},
{
closed = 1;
nodes = (
(387,188,l),
(501,75,l),
(563,137,l),
(450,251,l)
);
}
);
width = 584;
}
);
unicode = 164;
}
{
glyphname = copyright;
layers = (
{
layerId = m003;
shapes = (
{
closed = 1;
nodes = (
(604,-13,o),
(788,125,o),
(788,356,cs),
(788,587,o),
(604,724,o),
(418,724,cs),
(232,724,o),
(47,587,o),
(47,356,cs),
(47,125,o),
(232,-13,o),
(418,-13,cs)
);
},
{
closed = 1;
nodes = (
(259,33,o),
(97,150,o),
(97,356,cs),
(97,562,o),
(259,679,o),
(418,679,cs),
(576,679,o),
(738,562,o),
(738,356,cs),
(738,150,o),
(576,33,o),
(418,33,cs)
);
},
{
closed = 1;
nodes = (
(517,160,o),
(571,208,o),
(580,278,c),
(524,278,l),
(515,229,o),
(488,208,o),
(421,208,cs),
(336,208,o),
(289,261,o),
(289,357,cs),
(289,452,o),
(336,504,o),
(421,504,cs),
(491,504,o),
(515,475,o),
(524,429,c),
(580,429,l),
(568,505,o),
(511,552,o),
(420,552,cs),
(304,552,o),
(236,478,o),
(236,357,cs),
(236,235,o),
(299,160,o),
(422,160,cs)
);
}
);
width = 835;
},
{
layerId = m01;
shapes = (
{
closed = 1;
nodes = (
(610,-14,o),
(795,123,o),
(795,356,cs),
(795,589,o),
(610,726,o),
(420,726,cs),
(231,726,o),
(45,589,o),
(45,356,cs),
(45,123,o),
(231,-14,o),
(420,-14,cs)
);
},
{
closed = 1;
nodes = (
(263,43,o),
(107,156,o),
(107,356,cs),
(107,556,o),
(263,669,o),
(420,669,cs),
(577,669,o),
(733,556,o),
(733,356,cs),
(733,156,o),
(577,43,o),
(420,43,cs)
);
},
{
closed = 1;
nodes = (
(524,160,o),
(583,215,o),
(589,286,c),
(520,286,l),
(513,240,o),
(487,219,o),
(424,219,cs),
(341,219,o),
(303,267,o),
(303,357,cs),
(303,446,o),
(341,493,o),
(424,493,cs),
(489,493,o),
(513,464,o),
(519,423,c),
(588,423,l),
(581,500,o),
(516,552,o),
(423,552,cs),
(304,552,o),
(235,476,o),
(235,357,cs),
(235,237,o),
(300,160,o),
(425,160,cs)
);
}
);
width = 840;
},
{
layerId = "54FF0D0B-6EB9-4889-908D-B8898FFCE7DE";
shapes = (
{
closed = 1;
nodes = (
(613,-14,o),
(799,122,o),
(799,356,cs),
(799,589,o),
(613,726,o),
(421,726,cs),
(230,726,o),
(44,589,o),
(44,356,cs),
(44,122,o),
(230,-14,o),
(421,-14,cs)
);
},
{
closed = 1;
nodes = (
(263,45,o),
(109,157,o),
(109,356,cs),
(109,555,o),
(263,667,o),
(421,667,cs),
(580,667,o),
(733,555,o),
(733,356,cs),
(733,157,o),
(580,45,o),
(421,45,cs)
);
},
{
closed = 1;
nodes = (
(528,160,o),
(590,219,o),
(594,290,c),
(517,290,l),
(511,246,o),
(487,225,o),
(425,225,cs),
(345,225,o),
(310,271,o),
(310,356,cs),
(310,442,o),
(344,487,o),
(425,487,cs),
(488,487,o),
(511,458,o),
(516,419,c),
(593,419,l),
(588,498,o),
(519,552,o),
(424,552,cs),
(303,552,o),
(234,476,o),
(234,356,cs),
(234,237,o),
(299,160,o),
(426,160,cs)
);
}
);
width = 842;
},
{
layerId = "E7059794-B319-4C6D-9648-9B840A1B2BBD";
shapes = (
{
closed = 1;
nodes = (
(617,-15,o),
(804,121,o),
(804,356,cs),
(804,590,o),
(617,727,o),
(423,727,cs),
(229,727,o),
(42,590,o),
(42,356,cs),
(42,121,o),
(229,-15,o),
(423,-15,cs)
);
},
{
closed = 1;
nodes = (
(265,53,o),
(116,162,o),
(116,356,cs),
(116,550,o),
(265,659,o),
(423,659,cs),
(581,659,o),
(729,550,o),
(729,356,cs),
(729,162,o),
(581,53,o),
(423,53,cs)
);
},
{
closed = 1;
nodes = (
(533,160,o),
(599,224,o),
(601,295,c),
(514,295,l),
(510,255,o),
(486,233,o),
(427,233,cs),
(348,233,o),
(321,276,o),
(321,356,cs),
(321,436,o),
(348,479,o),
(427,479,cs),
(487,479,o),
(510,450,o),
(512,415,c),
(599,415,l),
(597,494,o),
(523,552,o),
(426,552,cs),
(302,552,o),
(233,475,o),
(233,356,cs),
(233,237,o),
(299,160,o),
(428,160,cs)
);
}
);
width = 846;
},
{
layerId = m005;
shapes = (
{
closed = 1;
nodes = (
(621,-16,o),
(809,120,o),
(809,356,cs),
(809,591,o),
(621,728,o),
(425,728,cs),
(228,728,o),
(40,591,o),
(40,356,cs),
(40,120,o),
(228,-16,o),
(425,-16,cs)
);
},
{
closed = 1;
nodes = (
(267,60,o),
(123,166,o),
(123,356,cs),
(123,546,o),
(267,652,o),
(425,652,cs),
(582,652,o),
(725,546,o),
(725,356,cs),
(725,166,o),
(582,60,o),
(425,60,cs)
);
},
{
closed = 1;
nodes = (
(539,159,o),
(607,229,o),
(608,301,c),
(510,301,l),
(508,264,o),
(485,241,o),
(429,241,cs),
(352,241,o),
(330,281,o),
(330,356,cs),
(330,431,o),
(352,471,o),
(429,471,cs),
(486,471,o),
(508,442,o),
(508,410,c),
(606,410,l),
(606,491,o),
(527,553,o),
(428,553,cs),
(301,553,o),
(231,474,o),
(231,356,cs),
(231,237,o),
(299,159,o),
(430,159,cs)
);
}
);
width = 849;
}
);
unicode = 169;
}
{
glyphname = guillemetleft;
layers = (
{
layerId = m003;
shapes = (
{
closed = 1;
nodes = (
(518,56,l),
(159,250,l),
(518,444,l),
(518,495,l),
(103,270,l),
(103,231,l),
(518,5,l)
);
},
{
closed = 1;
nodes = (
(845,56,l),
(486,250,l),
(845,444,l),
(845,495,l),
(430,270,l),
(430,231,l),
(845,5,l)
);
}
);
width = 1000;
},
{
layerId = m01;
shapes = (
{
closed = 1;
nodes = (
(517,69,l),
(174,252,l),
(517,435,l),
(517,501,l),
(100,278,l),
(100,226,l),
(517,3,l)
);
},
{
closed = 1;
nodes = (
(851,69,l),
(508,252,l),
(851,435,l),
(851,501,l),
(433,278,l),
(433,226,l),
(851,3,l)
);
}
);
width = 1000;
},
{
layerId = "54FF0D0B-6EB9-4889-908D-B8898FFCE7DE";
shapes = (
{
closed = 1;
nodes = (
(517,76,l),
(182,253,l),
(517,430,l),
(517,504,l),
(98,282,l),
(98,224,l),
(517,2,l)
);
},
{
closed = 1;
nodes = (
(854,76,l),
(519,253,l),
(854,430,l),
(854,504,l),
(435,282,l),
(435,224,l),
(854,2,l)
);
}
);
width = 1000;
},
{
layerId = "E7059794-B319-4C6D-9648-9B840A1B2BBD";
shapes = (
{
closed = 1;
nodes = (
(516,87,l),
(194,254,l),
(516,422,l),
(516,508,l),
(95,288,l),
(95,220,l),
(516,0,l)
);
},
{
closed = 1;
nodes = (
(858,87,l),
(536,254,l),
(858,422,l),
(858,508,l),
(437,288,l),
(437,220,l),
(858,0,l)
);
}
);
width = 1000;
},
{
layerId = m005;
shapes = (
{
closed = 1;
nodes = (
(515,95,l),
(203,255,l),
(515,415,l),
(515,512,l),
(93,294,l),
(93,217,l),
(515,-2,l)
);
},
{
closed = 1;
nodes = (
(862,95,l),
(550,255,l),
(862,415,l),
(862,512,l),
(439,294,l),
(439,217,l),
(862,-2,l)
);
}
);
width = 1000;
}
);
note = cid00176;
unicode = 171;
}
{
color = 3;
glyphname = logicalnot;
layers = (
{
layerId = m003;
shapes = (
{
closed = 1;
nodes = (
(471,416,l),
(471,234,l),
(522,234,l),
(522,465,l),
(58,465,l),
(58,416,l)
);
}
);
width = 584;
},
{
layerId = m01;
shapes = (
{
closed = 1;
nodes = (
(456,403,l),
(456,232,l),
(524,232,l),
(524,470,l),
(57,470,l),
(57,403,l)
);
}
);
width = 587;
},
{
layerId = "54FF0D0B-6EB9-4889-908D-B8898FFCE7DE";
shapes = (
{
closed = 1;
nodes = (
(447,396,l),
(447,231,l),
(525,231,l),
(525,472,l),
(56,472,l),
(56,396,l)
);
}
);
width = 589;
},
{
layerId = "E7059794-B319-4C6D-9648-9B840A1B2BBD";
shapes = (
{
closed = 1;
nodes = (
(434,384,l),
(434,229,l),
(526,229,l),
(526,475,l),
(54,475,l),
(54,384,l)
);
}
);
width = 591;
},
{
layerId = m005;
shapes = (
{
closed = 1;
nodes = (
(424,375,l),
(424,227,l),
(527,227,l),
(527,478,l),
(53,478,l),
(53,375,l)
);
}
);
width = 593;
}
);
note = logicalnot;
unicode = 172;
}
{
glyphname = registered;
layers = (
{
layerId = m003;
shapes = (
{
closed = 1;
nodes = (
(370,285,o),
(459,369,o),
(459,502,cs),
(459,636,o),
(370,720,o),
(245,720,cs),
(122,720,o),
(32,636,o),
(32,502,cs),
(32,369,o),
(122,285,o),
(245,285,cs)
);
},
{
closed = 1;
nodes = (
(144,318,o),
(68,386,o),
(68,502,cs),
(68,619,o),
(144,686,o),
(245,686,cs),
(348,686,o),
(423,619,o),
(423,502,cs),
(423,386,o),
(348,318,o),
(245,318,cs)
);
},
{
closed = 1;
nodes = (
(167,387,l),
(199,387,l),
(199,614,l),
(167,614,l)
);
},
{
closed = 1;
nodes = (
(185,584,l),
(257,584,ls),
(289,584,o),
(306,579,o),
(306,545,cs),
(306,511,o),
(289,506,o),
(257,506,cs),
(185,506,l),
(185,475,l),
(258,475,ls),
(298,475,o),
(340,487,o),
(340,545,cs),
(340,603,o),
(298,614,o),
(258,614,cs),
(185,614,l)
);
},
{
closed = 1;
nodes = (
(311,387,l),
(349,387,l),
(286,494,l),
(251,494,l)
);
}
);
width = 491;
},
{
layerId = m01;
shapes = (
{
closed = 1;
nodes = (
(373,283,o),
(464,367,o),
(464,503,cs),
(464,638,o),
(373,722,o),
(247,722,cs),
(121,722,o),
(29,638,o),
(29,503,cs),
(29,367,o),
(121,283,o),
(247,283,cs)
);
},
{
closed = 1;
nodes = (
(147,323,o),
(72,388,o),
(72,503,cs),
(72,617,o),
(147,683,o),
(247,683,cs),
(347,683,o),
(422,617,o),
(422,503,cs),
(422,388,o),
(347,323,o),
(247,323,cs)
);
},
{
closed = 1;
nodes = (
(166,389,l),
(203,389,l),
(203,615,l),
(166,615,l)
);
},
{
closed = 1;
nodes = (
(187,581,l),
(257,581,ls),
(288,581,o),
(303,576,o),
(303,545,cs),
(303,514,o),
(288,509,o),
(257,509,cs),
(187,509,l),
(187,474,l),
(259,474,ls),
(300,474,o),
(342,486,o),
(342,545,cs),
(342,603,o),
(300,615,o),
(259,615,cs),
(187,615,l)
);
},
{
closed = 1;
nodes = (
(308,389,l),
(351,389,l),
(289,495,l),
(249,495,l)
);
}
);
width = 493;
},
{
layerId = "54FF0D0B-6EB9-4889-908D-B8898FFCE7DE";
shapes = (
{
closed = 1;
nodes = (
(375,282,o),
(468,366,o),
(468,503,cs),
(468,639,o),
(375,723,o),
(248,723,cs),
(122,723,o),
(28,639,o),
(28,503,cs),
(28,366,o),
(122,282,o),
(248,282,cs)
);
},
{
closed = 1;
nodes = (
(149,325,o),
(74,389,o),
(74,503,cs),
(74,616,o),
(149,681,o),
(248,681,cs),
(348,681,o),
(422,616,o),
(422,503,cs),
(422,389,o),
(348,325,o),
(248,325,cs)
);
},
{
closed = 1;
nodes = (
(166,390,l),
(206,390,l),
(206,615,l),
(166,615,l)
);
},
{
closed = 1;
nodes = (
(189,579,l),
(258,579,ls),
(288,579,o),
(302,574,o),
(302,544,cs),
(302,515,o),
(288,510,o),
(258,510,cs),
(189,510,l),
(189,474,l),
(260,474,ls),
(302,474,o),
(344,486,o),
(344,544,cs),
(344,602,o),
(302,615,o),
(260,615,cs),
(189,615,l)
);
},
{
closed = 1;
nodes = (
(307,390,l),
(353,390,l),
(291,495,l),
(249,495,l)
);
}
);
width = 496;
},
{
layerId = "E7059794-B319-4C6D-9648-9B840A1B2BBD";
shapes = (
{
closed = 1;
nodes = (
(378,281,o),
(473,365,o),
(473,503,cs),
(473,640,o),
(378,724,o),
(250,724,cs),
(122,724,o),
(27,640,o),
(27,503,cs),
(27,365,o),
(122,281,o),
(250,281,cs)
);
},
{
closed = 1;
nodes = (
(152,328,o),
(78,390,o),
(78,503,cs),
(78,615,o),
(152,678,o),
(250,678,cs),
(348,678,o),
(422,615,o),
(422,503,cs),
(422,390,o),
(348,328,o),
(250,328,cs)
);
},
{
closed = 1;
nodes = (
(166,391,l),
(210,391,l),
(210,615,l),
(166,615,l)
);
},
{
closed = 1;
nodes = (
(192,576,l),
(259,576,ls),
(287,576,o),
(301,572,o),
(301,544,cs),
(301,517,o),
(287,512,o),
(259,512,cs),
(192,512,l),
(192,473,l),
(262,473,ls),
(304,473,o),
(346,485,o),
(346,544,cs),
(346,602,o),
(304,615,o),
(262,615,cs),
(192,615,l)
);
},
{
closed = 1;
nodes = (
(306,391,l),
(355,391,l),
(294,496,l),
(248,496,l)
);
}
);
width = 500;
},
{
layerId = m005;
shapes = (
{
closed = 1;
nodes = (
(382,280,o),
(479,364,o),
(479,503,cs),
(479,641,o),
(382,725,o),
(253,725,cs),
(123,725,o),
(27,641,o),
(27,503,cs),
(27,364,o),
(123,280,o),
(253,280,cs)
);
},
{
closed = 1;
nodes = (
(156,331,o),
(82,391,o),
(82,503,cs),
(82,614,o),
(156,676,o),
(253,676,cs),
(349,676,o),
(423,614,o),
(423,503,cs),
(423,391,o),
(349,331,o),
(253,331,cs)
);
},
{
closed = 1;
nodes = (
(167,392,l),
(215,392,l),
(215,615,l),
(167,615,l)
);
},
{
closed = 1;
nodes = (
(196,574,l),
(261,574,ls),
(288,574,o),
(301,570,o),
(301,544,cs),
(301,519,o),
(288,514,o),
(261,514,cs),
(196,514,l),
(196,472,l),
(265,472,ls),
(307,472,o),
(349,484,o),
(349,544,cs),
(349,602,o),
(307,615,o),
(265,615,cs),
(196,615,l)
);
},
{
closed = 1;
nodes = (
(306,392,l),
(358,392,l),
(298,497,l),
(248,497,l)
);
}
);
width = 506;
}
);
unicode = 174;
}
{
glyphname = degree;
layers = (
{
layerId = m003;
shapes = (
{
closed = 1;
nodes = (
(318,382,o),
(379,455,o),
(379,551,cs),
(379,648,o),
(318,720,o),
(214,720,cs),
(111,720,o),
(50,648,o),
(50,551,cs),
(50,455,o),
(111,382,o),
(214,382,cs)
);
},
{
closed = 1;
nodes = (
(140,426,o),
(98,479,o),
(98,551,cs),
(98,622,o),
(140,675,o),
(214,675,cs),
(289,675,o),
(331,622,o),
(331,551,cs),
(331,479,o),
(289,426,o),
(214,426,cs)
);
}
);
width = 429;
},
{
layerId = m01;
shapes = (
{
closed = 1;
nodes = (
(320,379,o),
(386,450,o),
(386,550,cs),
(386,651,o),
(320,722,o),
(216,722,cs),
(112,722,o),
(46,651,o),
(46,550,cs),
(46,450,o),
(112,379,o),
(216,379,cs)
);
},
{
closed = 1;
nodes = (
(148,437,o),
(110,485,o),
(110,550,cs),
(110,616,o),
(148,663,o),
(216,663,cs),
(284,663,o),
(322,616,o),
(322,550,cs),
(322,485,o),
(284,437,o),
(216,437,cs)
);
}
);
width = 432;
},
{
layerId = "54FF0D0B-6EB9-4889-908D-B8898FFCE7DE";
shapes = (
{
closed = 1;
nodes = (
(321,377,o),
(389,447,o),
(389,550,cs),
(389,653,o),
(321,723,o),
(217,723,cs),
(112,723,o),
(44,653,o),
(44,550,cs),
(44,447,o),
(112,377,o),
(217,377,cs)
);
},
{
closed = 1;
nodes = (
(152,443,o),
(116,487,o),
(116,550,cs),
(116,613,o),
(152,657,o),
(217,657,cs),
(281,657,o),
(317,613,o),
(317,550,cs),
(317,487,o),
(281,443,o),
(217,443,cs)
);
}
);
width = 433;
},
{
layerId = "E7059794-B319-4C6D-9648-9B840A1B2BBD";
shapes = (
{
closed = 1;
nodes = (
(323,375,o),
(394,443,o),
(394,549,cs),
(394,655,o),
(323,724,o),
(218,724,cs),
(112,724,o),
(41,655,o),
(41,549,cs),
(41,443,o),
(112,375,o),
(218,375,cs)
);
},
{
closed = 1;
nodes = (
(159,451,o),
(126,491,o),
(126,549,cs),
(126,608,o),
(159,647,o),
(218,647,cs),
(276,647,o),
(309,608,o),
(309,549,cs),
(309,491,o),
(276,451,o),
(218,451,cs)
);
}
);
width = 435;
},
{
layerId = m005;
shapes = (
{
closed = 1;
nodes = (
(325,373,o),
(399,439,o),
(399,548,cs),
(399,657,o),
(325,725,o),
(219,725,cs),
(112,725,o),
(38,657,o),
(38,548,cs),
(38,439,o),
(112,373,o),
(219,373,cs)
);
},
{
closed = 1;
nodes = (
(165,459,o),
(135,495,o),
(135,548,cs),
(135,604,o),
(165,638,o),
(219,638,cs),
(272,638,o),
(302,604,o),
(302,548,cs),
(302,495,o),
(272,459,o),
(219,459,cs)
);
}
);
width = 437;
}
);
unicode = 176;
}
{
glyphname = plusminus;
layers = (
{
layerId = m003;
shapes = (
{
closed = 1;
nodes = (
(316,144,l),
(316,621,l),
(260,621,l),
(260,144,l)
);
},
{
closed = 1;
nodes = (
(516,0,l),
(516,49,l),
(62,49,l),
(62,0,l)
);
},
{
closed = 1;
nodes = (
(520,358,l),
(520,407,l),
(56,407,l),
(56,358,l)
);
}
);
width = 576;
},
{
layerId = m01;
shapes = (
{
closed = 1;
nodes = (
(323,151,l),
(323,627,l),
(250,627,l),
(250,151,l)
);
},
{
closed = 1;
nodes = (
(517,0,l),
(517,66,l),
(60,66,l),
(60,0,l)
);
},
{
closed = 1;
nodes = (
(520,356,l),
(520,422,l),
(53,422,l),
(53,356,l)
);
}
);
width = 573;
},
{
layerId = "54FF0D0B-6EB9-4889-908D-B8898FFCE7DE";
shapes = (
{
closed = 1;
nodes = (
(327,154,l),
(327,629,l),
(245,629,l),
(245,154,l)
);
},
{
closed = 1;
nodes = (
(517,0,l),
(517,75,l),
(59,75,l),
(59,0,l)
);
},
{
closed = 1;
nodes = (
(520,354,l),
(520,429,l),
(51,429,l),
(51,354,l)
);
}
);
width = 571;
},
{
layerId = "E7059794-B319-4C6D-9648-9B840A1B2BBD";
shapes = (
{
closed = 1;
nodes = (
(332,159,l),
(332,633,l),
(237,633,l),
(237,159,l)
);
},
{
closed = 1;
nodes = (
(518,0,l),
(518,89,l),
(57,89,l),
(57,0,l)
);
},
{
closed = 1;
nodes = (
(520,352,l),
(520,441,l),
(49,441,l),
(49,352,l)
);
}
);
width = 569;
},
{
layerId = m005;
shapes = (
{
closed = 1;
nodes = (
(337,164,l),
(337,637,l),
(230,637,l),
(230,164,l)
);
},
{
closed = 1;
nodes = (
(519,0,l),
(519,100,l),
(55,100,l),
(55,0,l)
);
},
{
closed = 1;
nodes = (
(520,350,l),
(520,450,l),
(47,450,l),
(47,350,l)
);
}
);
width = 567;
}
);
unicode = 177;
}
{
glyphname = twosuperior;
layers = (
{
layerId = m003;
shapes = (
{
closed = 1;
nodes = (
(36,410,l),
(316,410,l),
(316,453,l),
(69,453,l),
(75,424,l),
(212,571,ls),
(291,656,o),
(311,690,o),
(311,738,cs),
(311,811,o),
(261,857,o),
(178,857,cs),
(95,857,o),
(35,804,o),
(40,720,c),
(86,720,l),
(81,779,o),
(119,815,o),
(176,815,cs),
(231,815,o),
(263,789,o),
(263,738,cs),
(263,698,o),
(241,665,o),
(186,606,cs),
(36,448,l)
);
}
);
width = 352;
},
{
layerId = m01;
shapes = (
{
closed = 1;
nodes = (
(33,410,l),
(321,410,l),
(321,464,l),
(77,464,l),
(87,431,l),
(216,569,ls),
(292,649,o),
(317,683,o),
(317,733,cs),
(317,809,o),
(263,857,o),
(179,857,cs),
(92,857,o),
(31,803,o),
(36,717,c),
(96,717,l),
(93,774,o),
(124,804,o),
(177,804,cs),
(226,804,o),
(255,781,o),
(255,733,cs),
(255,695,o),
(233,665,o),
(181,611,cs),
(33,455,l)
);
}
);
width = 354;
},
{
layerId = "54FF0D0B-6EB9-4889-908D-B8898FFCE7DE";
shapes = (
{
closed = 1;
nodes = (
(31,410,l),
(323,410,l),
(323,470,l),
(80,470,l),
(92,434,l),
(217,567,ls),
(292,645,o),
(320,679,o),
(320,730,cs),
(320,808,o),
(264,857,o),
(179,857,cs),
(90,857,o),
(29,802,o),
(33,715,c),
(101,715,l),
(99,771,o),
(127,798,o),
(177,798,cs),
(224,798,o),
(251,776,o),
(251,730,cs),
(251,693,o),
(228,665,o),
(179,613,cs),
(31,458,l)
);
}
);
width = 355;
},
{
layerId = "E7059794-B319-4C6D-9648-9B840A1B2BBD";
shapes = (
{
closed = 1;
nodes = (
(29,410,l),
(327,410,l),
(327,478,l),
(86,478,l),
(101,439,l),
(220,565,ls),
(292,640,o),
(324,674,o),
(324,726,cs),
(324,806,o),
(265,857,o),
(179,857,cs),
(88,857,o),
(26,800,o),
(30,713,c),
(109,713,l),
(109,766,o),
(131,789,o),
(177,789,cs),
(220,789,o),
(244,770,o),
(244,726,cs),
(244,690,o),
(222,665,o),
(175,617,cs),
(29,463,l)
);
}
);
width = 356;
},
{
layerId = m005;
shapes = (
{
closed = 1;
nodes = (
(27,410,l),
(330,410,l),
(330,486,l),
(91,486,l),
(109,444,l),
(222,563,ls),
(292,635,o),
(328,669,o),
(328,722,cs),
(328,804,o),
(266,857,o),
(179,857,cs),
(86,857,o),
(23,799,o),
(27,711,c),
(116,711,l),
(118,762,o),
(135,781,o),
(177,781,cs),
(217,781,o),
(238,764,o),
(238,722,cs),
(238,688,o),
(216,665,o),
(172,620,cs),
(27,468,l)
);
}
);
width = 357;
}
);
unicode = 178;
}
{
glyphname = threesuperior;
layers = (
{
layerId = m003;
shapes = (
{
closed = 1;
nodes = (
(274,402,o),
(334,452,o),
(334,540,cs),
(334,600,o),
(301,680,o),
(170,675,c),
(171,644,l),
(323,813,l),
(323,849,l),
(55,849,l),
(55,807,l),
(293,807,l),
(288,840,l),
(131,666,l),
(131,633,l),
(185,633,ls),
(249,633,o),
(286,599,o),
(286,540,cs),
(286,477,o),
(247,445,o),
(186,445,cs),
(124,445,o),
(88,473,o),
(88,531,c),
(37,531,l),
(39,445,o),
(96,402,o),
(185,402,cs)
);
}
);
width = 369;
},
{
layerId = m01;
shapes = (
{
closed = 1;
nodes = (
(280,403,o),
(342,455,o),
(342,543,cs),
(342,608,o),
(303,685,o),
(172,680,c),
(175,638,l),
(330,806,l),
(330,850,l),
(54,850,l),
(54,796,l),
(295,796,l),
(289,842,l),
(129,669,l),
(129,627,l),
(188,627,ls),
(247,627,o),
(279,598,o),
(279,543,cs),
(279,486,o),
(246,457,o),
(189,457,cs),
(128,457,o),
(100,482,o),
(100,534,c),
(36,534,l),
(36,450,o),
(94,403,o),
(188,403,cs)
);
}
);
width = 376;
},
{
layerId = "54FF0D0B-6EB9-4889-908D-B8898FFCE7DE";
shapes = (
{
closed = 1;
nodes = (
(282,403,o),
(345,456,o),
(345,545,cs),
(345,612,o),
(304,688,o),
(172,682,c),
(176,635,l),
(334,802,l),
(334,850,l),
(53,850,l),
(53,790,l),
(295,790,l),
(289,843,l),
(127,671,l),
(127,623,l),
(189,623,ls),
(245,623,o),
(275,597,o),
(275,545,cs),
(275,490,o),
(246,462,o),
(190,462,cs),
(130,462,o),
(106,486,o),
(105,536,c),
(35,536,l),
(34,453,o),
(92,403,o),
(189,403,cs)
);
}
);
width = 380;
},
{
layerId = "E7059794-B319-4C6D-9648-9B840A1B2BBD";
shapes = (
{
closed = 1;
nodes = (
(286,403,o),
(351,458,o),
(351,547,cs),
(351,618,o),
(306,692,o),
(173,686,c),
(179,630,l),
(339,796,l),
(339,850,l),
(52,850,l),
(52,782,l),
(296,782,l),
(290,844,l),
(125,673,l),
(125,618,l),
(191,618,ls),
(243,618,o),
(270,595,o),
(270,547,cs),
(270,496,o),
(245,471,o),
(192,471,cs),
(133,471,o),
(115,493,o),
(114,538,c),
(33,538,l),
(32,457,o),
(90,403,o),
(191,403,cs)
);
}
);
width = 385;
},
{
layerId = m005;
shapes = (
{
closed = 1;
nodes = (
(290,403,o),
(356,460,o),
(356,549,cs),
(356,624,o),
(308,696,o),
(174,689,c),
(181,626,l),
(344,791,l),
(344,850,l),
(51,850,l),
(51,774,l),
(297,774,l),
(291,845,l),
(123,675,l),
(123,613,l),
(193,613,ls),
(241,613,o),
(265,594,o),
(265,549,cs),
(265,502,o),
(244,479,o),
(194,479,cs),
(136,479,o),
(124,499,o),
(122,540,c),
(32,540,l),
(30,461,o),
(88,403,o),
(193,403,cs)
);
}
);
width = 390;
}
);
unicode = 179;
}
{
glyphname = periodcentered;
layers = (
{
layerId = m003;
shapes = (
{
closed = 1;
nodes = (
(205,310,l),
(294,310,l),
(294,402,l),
(205,402,l)
);
}
);
width = 500;
},
{
layerId = m01;
shapes = (
{
closed = 1;
nodes = (
(197,302,l),
(303,302,l),
(303,410,l),
(197,410,l)
);
}
);
width = 500;
},
{
layerId = "54FF0D0B-6EB9-4889-908D-B8898FFCE7DE";
shapes = (
{
closed = 1;
nodes = (
(192,298,l),
(307,298,l),
(307,414,l),
(192,414,l)
);
}
);
width = 500;
},
{
layerId = "E7059794-B319-4C6D-9648-9B840A1B2BBD";
shapes = (
{
closed = 1;
nodes = (
(185,292,l),
(314,292,l),
(314,421,l),
(185,421,l)
);
}
);
width = 500;
},
{
layerId = m005;
shapes = (
{
closed = 1;
nodes = (
(179,287,l),
(320,287,l),
(320,427,l),
(179,427,l)
);
}
);
width = 500;
}
);
note = periodcentered;
unicode = 183;
}
{
glyphname = onesuperior;
layers = (
{
layerId = m003;
shapes = (
{
closed = 1;
nodes = (
(212,851,l),
(164,851,l),
(54,776,l),
(54,724,l),
(198,822,l),
(164,827,l),
(164,410,l),
(212,410,l)
);
}
);
width = 327;
},
{
layerId = m01;
shapes = (
{
closed = 1;
nodes = (
(218,851,l),
(159,851,l),
(49,776,l),
(49,712,l),
(207,818,l),
(156,822,l),
(156,410,l),
(218,410,l)
);
}
);
width = 328;
},
{
layerId = "54FF0D0B-6EB9-4889-908D-B8898FFCE7DE";
shapes = (
{
closed = 1;
nodes = (
(221,851,l),
(157,851,l),
(46,776,l),
(46,706,l),
(211,816,l),
(151,819,l),
(151,410,l),
(221,410,l)
);
}
);
width = 328;
},
{
layerId = "E7059794-B319-4C6D-9648-9B840A1B2BBD";
shapes = (
{
closed = 1;
nodes = (
(225,851,l),
(153,851,l),
(41,776,l),
(41,696,l),
(217,813,l),
(145,814,l),
(145,410,l),
(225,410,l)
);
}
);
width = 328;
},
{
layerId = m005;
shapes = (
{
closed = 1;
nodes = (
(229,851,l),
(150,851,l),
(37,776,l),
(37,687,l),
(223,810,l),
(139,810,l),
(139,410,l),
(229,410,l)
);
}
);
width = 328;
}
);
unicode = 185;
}
{
glyphname = guillemetright;
layers = (
{
layerId = m003;
shapes = (
{
closed = 1;
nodes = (
(897,231,l),
(897,270,l),
(482,495,l),
(482,444,l),
(841,250,l),
(482,56,l),
(482,5,l)
);
},
{
closed = 1;
nodes = (
(570,231,l),
(570,270,l),
(155,495,l),
(155,444,l),
(514,250,l),
(155,56,l),
(155,5,l)
);
}
);
width = 1000;
},
{
layerId = m01;
shapes = (
{
closed = 1;
nodes = (
(901,226,l),
(901,278,l),
(483,501,l),
(483,435,l),
(826,252,l),
(483,69,l),
(483,3,l)
);
},
{
closed = 1;
nodes = (
(567,226,l),
(567,278,l),
(150,501,l),
(150,435,l),
(493,252,l),
(150,69,l),
(150,3,l)
);
}
);
width = 1000;
},
{
layerId = "54FF0D0B-6EB9-4889-908D-B8898FFCE7DE";
shapes = (
{
closed = 1;
nodes = (
(902,224,l),
(902,282,l),
(483,504,l),
(483,430,l),
(818,253,l),
(483,76,l),
(483,2,l)
);
},
{
closed = 1;
nodes = (
(565,224,l),
(565,282,l),
(147,504,l),
(147,430,l),
(482,253,l),
(147,76,l),
(147,2,l)
);
}
);
width = 1000;
},
{
layerId = "E7059794-B319-4C6D-9648-9B840A1B2BBD";
shapes = (
{
closed = 1;
nodes = (
(905,220,l),
(905,288,l),
(484,508,l),
(484,422,l),
(806,254,l),
(484,87,l),
(484,0,l)
);
},
{
closed = 1;
nodes = (
(563,220,l),
(563,288,l),
(142,508,l),
(142,422,l),
(464,254,l),
(142,87,l),
(142,0,l)
);
}
);
width = 1000;
},
{
layerId = m005;
shapes = (
{
closed = 1;
nodes = (
(907,217,l),
(907,294,l),
(485,512,l),
(485,415,l),
(797,255,l),
(485,95,l),
(485,-2,l)
);
},
{
closed = 1;
nodes = (
(561,217,l),
(561,294,l),
(138,512,l),
(138,415,l),
(450,255,l),
(138,95,l),
(138,-2,l)
);
}
);
width = 1000;
}
);
note = cid00177;
unicode = 187;
}
{
glyphname = onequarter;
layers = (
{
layerId = m003;
shapes = (
{
closed = 1;
nodes = (
(212,707,l),
(164,707,l),
(54,632,l),
(54,580,l),
(198,678,l),
(164,683,l),
(164,266,l),
(212,266,l)
);
},
{
closed = 1;
nodes = (
(653,707,l),
(600,707,l),
(138,0,l),
(191,0,l)
);
},
{
closed = 1;
nodes = (
(689,424,l),
(689,0,l),
(736,0,l),
(736,441,l),
(682,441,l),
(467,134,l),
(467,96,l),
(796,96,l),
(796,139,l),
(484,139,l),
(500,104,l),
(718,415,l)
);
}
);
width = 816;
},
{
layerId = m01;
shapes = (
{
closed = 1;
nodes = (
(218,707,l),
(159,707,l),
(49,632,l),
(49,568,l),
(207,674,l),
(156,678,l),
(156,266,l),
(218,266,l)
);
},
{
closed = 1;
nodes = (
(681,707,l),
(613,707,l),
(142,0,l),
(209,0,l)
);
},
{
closed = 1;
nodes = (
(694,406,l),
(694,0,l),
(755,0,l),
(755,441,l),
(689,441,l),
(477,136,l),
(477,91,l),
(815,91,l),
(815,145,l),
(506,145,l),
(525,108,l),
(726,397,l)
);
}
);
width = 839;
},
{
layerId = "54FF0D0B-6EB9-4889-908D-B8898FFCE7DE";
shapes = (
{
closed = 1;
nodes = (
(221,707,l),
(157,707,l),
(46,632,l),
(46,562,l),
(211,672,l),
(151,675,l),
(151,266,l),
(221,266,l)
);
},
{
closed = 1;
nodes = (
(695,707,l),
(620,707,l),
(143,0,l),
(218,0,l)
);
},
{
closed = 1;
nodes = (
(696,396,l),
(696,0,l),
(764,0,l),
(764,441,l),
(693,441,l),
(482,136,l),
(482,88,l),
(824,88,l),
(824,148,l),
(517,148,l),
(538,109,l),
(730,387,l)
);
}
);
width = 851;
},
{
layerId = "E7059794-B319-4C6D-9648-9B840A1B2BBD";
shapes = (
{
closed = 1;
nodes = (
(225,707,l),
(153,707,l),
(41,632,l),
(41,552,l),
(217,669,l),
(145,670,l),
(145,266,l),
(225,266,l)
);
},
{
closed = 1;
nodes = (
(717,707,l),
(631,707,l),
(146,0,l),
(233,0,l)
);
},
{
closed = 1;
nodes = (
(700,381,l),
(700,0,l),
(779,0,l),
(779,441,l),
(698,441,l),
(489,137,l),
(489,84,l),
(839,84,l),
(839,152,l),
(535,152,l),
(558,112,l),
(736,372,l)
);
}
);
width = 870;
},
{
layerId = m005;
shapes = (
{
closed = 1;
nodes = (
(229,707,l),
(150,707,l),
(37,632,l),
(37,543,l),
(223,666,l),
(139,666,l),
(139,266,l),
(229,266,l)
);
},
{
closed = 1;
nodes = (
(736,707,l),
(639,707,l),
(148,0,l),
(245,0,l)
);
},
{
closed = 1;
nodes = (
(703,369,l),
(703,0,l),
(791,0,l),
(791,441,l),
(703,441,l),
(496,138,l),
(496,80,l),
(851,80,l),
(851,156,l),
(549,156,l),
(575,114,l),
(742,360,l)
);
}
);
width = 886;
}
);
unicode = 188;
}
{
glyphname = onehalf;
layers = (
{
layerId = m003;
shapes = (
{
closed = 1;
nodes = (
(212,707,l),
(164,707,l),
(54,632,l),
(54,580,l),
(198,678,l),
(164,683,l),
(164,266,l),
(212,266,l)
);
},
{
closed = 1;
nodes = (
(670,707,l),
(617,707,l),
(155,0,l),
(208,0,l)
);
},
{
closed = 1;
nodes = (
(568,0,l),
(849,0,l),
(849,43,l),
(601,43,l),
(608,14,l),
(744,161,ls),
(823,246,o),
(843,280,o),
(843,328,cs),
(843,401,o),
(794,447,o),
(710,447,cs),
(627,447,o),
(567,394,o),
(572,310,c),
(618,310,l),
(613,369,o),
(651,405,o),
(708,405,cs),
(763,405,o),
(796,379,o),
(796,328,cs),
(796,288,o),
(773,255,o),
(718,196,cs),
(568,38,l)
);
}
);
width = 877;
},
{
layerId = m01;
shapes = (
{
closed = 1;
nodes = (
(218,707,l),
(159,707,l),
(49,632,l),
(49,568,l),
(207,674,l),
(156,678,l),
(156,266,l),
(218,266,l)
);
},
{
closed = 1;
nodes = (
(690,707,l),
(623,707,l),
(151,0,l),
(219,0,l)
);
},
{
closed = 1;
nodes = (
(576,0,l),
(864,0,l),
(864,54,l),
(620,54,l),
(630,21,l),
(759,159,ls),
(835,239,o),
(860,273,o),
(860,323,cs),
(860,399,o),
(806,447,o),
(722,447,cs),
(635,447,o),
(574,393,o),
(579,307,c),
(639,307,l),
(636,364,o),
(667,394,o),
(720,394,cs),
(769,394,o),
(798,371,o),
(798,323,cs),
(798,285,o),
(776,255,o),
(724,201,cs),
(576,45,l)
);
}
);
width = 894;
},
{
layerId = "54FF0D0B-6EB9-4889-908D-B8898FFCE7DE";
shapes = (
{
closed = 1;
nodes = (
(221,707,l),
(157,707,l),
(46,632,l),
(46,562,l),
(211,672,l),
(151,675,l),
(151,266,l),
(221,266,l)
);
},
{
closed = 1;
nodes = (
(700,707,l),
(626,707,l),
(149,0,l),
(224,0,l)
);
},
{
closed = 1;
nodes = (
(580,0,l),
(872,0,l),
(872,60,l),
(629,60,l),
(641,24,l),
(766,157,ls),
(840,235,o),
(868,269,o),
(868,320,cs),
(868,398,o),
(812,447,o),
(727,447,cs),
(639,447,o),
(578,392,o),
(582,305,c),
(650,305,l),
(648,361,o),
(675,388,o),
(725,388,cs),
(772,388,o),
(799,366,o),
(799,320,cs),
(799,283,o),
(777,255,o),
(727,203,cs),
(580,48,l)
);
}
);
width = 903;
},
{
layerId = "E7059794-B319-4C6D-9648-9B840A1B2BBD";
shapes = (
{
closed = 1;
nodes = (
(225,707,l),
(153,707,l),
(41,632,l),
(41,552,l),
(217,669,l),
(145,670,l),
(145,266,l),
(225,266,l)
);
},
{
closed = 1;
nodes = (
(717,707,l),
(630,707,l),
(146,0,l),
(232,0,l)
);
},
{
closed = 1;
nodes = (
(586,0,l),
(885,0,l),
(885,68,l),
(644,68,l),
(659,29,l),
(778,155,ls),
(849,230,o),
(882,264,o),
(882,316,cs),
(882,396,o),
(822,447,o),
(736,447,cs),
(645,447,o),
(583,390,o),
(587,303,c),
(667,303,l),
(667,356,o),
(689,379,o),
(734,379,cs),
(777,379,o),
(801,360,o),
(801,316,cs),
(801,280,o),
(779,255,o),
(732,207,cs),
(586,53,l)
);
}
);
width = 917;
},
{
layerId = m005;
shapes = (
{
closed = 1;
nodes = (
(229,707,l),
(150,707,l),
(37,632,l),
(37,543,l),
(223,666,l),
(139,666,l),
(139,266,l),
(229,266,l)
);
},
{
closed = 1;
nodes = (
(730,707,l),
(634,707,l),
(143,0,l),
(239,0,l)
);
},
{
closed = 1;
nodes = (
(592,0,l),
(895,0,l),
(895,76,l),
(656,76,l),
(674,34,l),
(787,153,ls),
(857,225,o),
(893,259,o),
(893,312,cs),
(893,394,o),
(831,447,o),
(744,447,cs),
(651,447,o),
(588,389,o),
(592,301,c),
(681,301,l),
(683,352,o),
(700,371,o),
(742,371,cs),
(781,371,o),
(803,354,o),
(803,312,cs),
(803,278,o),
(781,255,o),
(736,210,cs),
(592,58,l)
);
}
);
width = 928;
}
);
unicode = 189;
}
{
glyphname = multiply;
layers = (
{
layerId = m003;
shapes = (
{
closed = 1;
nodes = (
(89,143,l),
(124,109,l),
(502,487,l),
(468,521,l)
);
},
{
closed = 1;
nodes = (
(89,487,l),
(468,109,l),
(502,143,l),
(124,521,l)
);
}
);
width = 591;
},
{
layerId = m01;
shapes = (
{
closed = 1;
nodes = (
(88,151,l),
(133,106,l),
(508,482,l),
(463,527,l)
);
},
{
closed = 1;
nodes = (
(88,482,l),
(463,106,l),
(508,151,l),
(133,527,l)
);
}
);
width = 596;
},
{
layerId = "54FF0D0B-6EB9-4889-908D-B8898FFCE7DE";
shapes = (
{
closed = 1;
nodes = (
(87,155,l),
(137,104,l),
(511,479,l),
(461,529,l)
);
},
{
closed = 1;
nodes = (
(87,479,l),
(461,104,l),
(511,155,l),
(137,529,l)
);
}
);
width = 598;
},
{
layerId = "E7059794-B319-4C6D-9648-9B840A1B2BBD";
shapes = (
{
closed = 1;
nodes = (
(85,161,l),
(144,102,l),
(516,474,l),
(457,533,l)
);
},
{
closed = 1;
nodes = (
(85,474,l),
(457,102,l),
(516,161,l),
(144,533,l)
);
}
);
width = 601;
},
{
layerId = m005;
shapes = (
{
closed = 1;
nodes = (
(84,167,l),
(150,100,l),
(520,470,l),
(454,537,l)
);
},
{
closed = 1;
nodes = (
(84,470,l),
(454,100,l),
(520,167,l),
(150,537,l)
);
}
);
width = 604;
}
);
note = multiply;
unicode = 215;
}
{
glyphname = idotless;
layers = (
{
anchors = (
{
name = bottom;
pos = (113,0);
},
{
name = ogonek;
pos = (141,0);
},
{
name = top;
pos = (113,505);
}
);
layerId = m003;
shapes = (
{
closed = 1;
nodes = (
(84,501,l),
(84,0,l),
(141,0,l),
(141,501,l)
);
}
);
width = 225;
},
{
anchors = (
{
name = bottom;
pos = (121,0);
},
{
name = ogonek;
pos = (161,0);
},
{
name = top;
pos = (121,505);
}
);
layerId = m01;
shapes = (
{
closed = 1;
nodes = (
(81,505,l),
(81,0,l),
(161,0,l),
(161,505,l)
);
}
);
width = 242;
},
{
anchors = (
{
name = bottom;
pos = (123,0);
},
{
name = ogonek;
pos = (171,0);
},
{
name = top;
pos = (123,505);
}
);
layerId = "54FF0D0B-6EB9-4889-908D-B8898FFCE7DE";
shapes = (
{
closed = 1;
nodes = (
(76,507,l),
(76,0,l),
(171,0,l),
(171,507,l)
);
}
);
width = 246;
},
{
anchors = (
{
name = bottom;
pos = (130,0);
},
{
name = ogonek;
pos = (191,0);
},
{
name = top;
pos = (130,505);
}
);
layerId = "E7059794-B319-4C6D-9648-9B840A1B2BBD";
shapes = (
{
closed = 1;
nodes = (
(70,514,l),
(70,0,l),
(191,0,l),
(191,514,l)
);
}
);
width = 260;
},
{
anchors = (
{
name = bottom;
pos = (135,0);
},
{
name = ogonek;
pos = (202,0);
},
{
name = top;
pos = (135,505);
}
);
layerId = m005;
shapes = (
{
closed = 1;
nodes = (
(68,519,l),
(68,0,l),
(202,0,l),
(202,519,l)
);
}
);
width = 270;
}
);
unicode = 305;
}
{
glyphname = jdotless;
layers = (
{
anchors = (
{
name = bottom;
pos = (126,-241);
},
{
name = top;
pos = (126,505);
}
);
layerId = m003;
shapes = (
{
closed = 1;
nodes = (
(154,501,l),
(97,501,l),
(97,-152,l),
(0,-152,l),
(0,-202,l),
(48,-202,ls),
(127,-202,o),
(154,-168,o),
(154,-102,cs)
);
}
);
width = 238;
},
{
anchors = (
{
name = bottom;
pos = (127,-241);
},
{
name = top;
pos = (127,505);
}
);
layerId = m01;
shapes = (
{
closed = 1;
nodes = (
(167,505,l),
(90,505,l),
(87,-132,l),
(-2,-132,l),
(-2,-202,l),
(42,-202,ls),
(126,-202,o),
(167,-166,o),
(167,-87,cs)
);
}
);
width = 248;
},
{
anchors = (
{
name = bottom;
pos = (128,-241);
},
{
name = top;
pos = (128,505);
}
);
layerId = "54FF0D0B-6EB9-4889-908D-B8898FFCE7DE";
shapes = (
{
closed = 1;
nodes = (
(175,507,l),
(81,507,l),
(81,-123,l),
(-5,-123,l),
(-5,-202,l),
(35,-202,ls),
(131,-202,o),
(175,-162,o),
(175,-64,cs)
);
}
);
width = 251;
},
{
anchors = (
{
name = bottom;
pos = (129,-241);
},
{
name = top;
pos = (129,505);
}
);
layerId = "E7059794-B319-4C6D-9648-9B840A1B2BBD";
shapes = (
{
closed = 1;
nodes = (
(190,514,l),
(68,514,l),
(68,-105,l),
(-10,-105,l),
(-10,-202,l),
(35,-202,ls),
(139,-202,o),
(190,-163,o),
(190,-54,cs)
);
}
);
width = 259;
},
{
anchors = (
{
name = bottom;
pos = (129,-241);
},
{
name = top;
pos = (128,505);
}
);
layerId = m005;
shapes = (
{
closed = 1;
nodes = (
(196,519,l),
(62,519,l),
(62,-97,l),
(-12,-97,l),
(-12,-202,l),
(42,-202,ls),
(143,-202,o),
(196,-168,o),
(196,-67,cs)
);
}
);
width = 264;
}
);
unicode = 567;
}
{
color = 3;
glyphname = caron;
layers = (
{
layerId = m003;
shapes = (
{
closed = 1;
nodes = (
(329,602,l),
(441,732,l),
(408,759,l),
(300,639,l),
(192,759,l),
(159,732,l),
(271,602,l)
);
}
);
width = 600;
},
{
layerId = m01;
shapes = (
{
closed = 1;
nodes = (
(339,601,l),
(448,732,l),
(405,767,l),
(300,649,l),
(195,767,l),
(152,732,l),
(262,601,l)
);
}
);
width = 600;
},
{
layerId = "54FF0D0B-6EB9-4889-908D-B8898FFCE7DE";
shapes = (
{
closed = 1;
nodes = (
(344,600,l),
(452,731,l),
(403,771,l),
(300,654,l),
(197,771,l),
(148,731,l),
(257,600,l)
);
}
);
width = 600;
},
{
layerId = "E7059794-B319-4C6D-9648-9B840A1B2BBD";
shapes = (
{
closed = 1;
nodes = (
(351,598,l),
(457,731,l),
(401,777,l),
(300,661,l),
(199,777,l),
(143,731,l),
(249,598,l)
);
}
);
width = 600;
},
{
layerId = m005;
shapes = (
{
closed = 1;
nodes = (
(358,597,l),
(462,731,l),
(399,783,l),
(300,668,l),
(201,783,l),
(138,731,l),
(242,597,l)
);
}
);
width = 600;
}
);
note = caron;
unicode = 711;
}
{
color = 3;
glyphname = colontriangularmod;
layers = (
{
layerId = m003;
shapes = (
{
closed = 1;
nodes = (
(206,530,l),
(299,422,l),
(394,530,l)
);
},
{
closed = 1;
nodes = (
(299,107,l),
(206,-1,l),
(394,-1,l)
);
}
);
width = 600;
},
{
layerId = m01;
shapes = (
{
closed = 1;
nodes = (
(196,530,l),
(299,410,l),
(404,530,l)
);
},
{
closed = 1;
nodes = (
(299,119,l),
(196,-1,l),
(404,-1,l)
);
}
);
width = 600;
},
{
layerId = "54FF0D0B-6EB9-4889-908D-B8898FFCE7DE";
shapes = (
{
closed = 1;
nodes = (
(191,530,l),
(298,403,l),
(409,530,l)
);
},
{
closed = 1;
nodes = (
(298,125,l),
(191,-1,l),
(409,-1,l)
);
}
);
width = 600;
},
{
layerId = "E7059794-B319-4C6D-9648-9B840A1B2BBD";
shapes = (
{
closed = 1;
nodes = (
(183,530,l),
(298,393,l),
(417,530,l)
);
},
{
closed = 1;
nodes = (
(298,135,l),
(183,-1,l),
(417,-1,l)
);
}
);
width = 600;
},
{
layerId = m005;
shapes = (
{
closed = 1;
nodes = (
(176,530,l),
(298,384,l),
(424,530,l)
);
},
{
closed = 1;
nodes = (
(298,144,l),
(176,-1,l),
(424,-1,l)
);
}
);
width = 600;
}
);
unicode = 720;
}
{
color = 3;
glyphname = breve;
layers = (
{
layerId = m003;
shapes = (
{
closed = 1;
nodes = (
(399,750,l),
(383,690,o),
(356,654,o),
(300,654,cs),
(244,654,o),
(217,690,o),
(201,750,c),
(156,735,l),
(174,662,o),
(220,609,o),
(300,609,cs),
(380,609,o),
(426,662,o),
(444,735,c)
);
}
);
width = 600;
},
{
layerId = m01;
shapes = (
{
closed = 1;
nodes = (
(392,757,l),
(378,699,o),
(351,666,o),
(300,666,cs),
(249,666,o),
(223,699,o),
(208,757,c),
(149,738,l),
(167,662,o),
(215,606,o),
(300,606,cs),
(386,606,o),
(433,662,o),
(451,738,c)
);
}
);
width = 600;
},
{
layerId = "54FF0D0B-6EB9-4889-908D-B8898FFCE7DE";
shapes = (
{
closed = 1;
nodes = (
(388,761,l),
(375,703,o),
(349,671,o),
(300,671,cs),
(251,671,o),
(226,703,o),
(212,761,c),
(145,740,l),
(163,662,o),
(212,604,o),
(300,604,cs),
(388,604,o),
(437,662,o),
(455,740,c)
);
}
);
width = 600;
},
{
layerId = "E7059794-B319-4C6D-9648-9B840A1B2BBD";
shapes = (
{
closed = 1;
nodes = (
(383,766,l),
(370,709,o),
(345,680,o),
(300,680,cs),
(255,680,o),
(230,709,o),
(217,766,c),
(140,742,l),
(158,662,o),
(208,602,o),
(300,602,cs),
(392,602,o),
(442,662,o),
(460,742,c)
);
}
);
width = 600;
},
{
layerId = m005;
shapes = (
{
closed = 1;
nodes = (
(378,771,l),
(366,715,o),
(342,688,o),
(300,688,cs),
(258,688,o),
(234,715,o),
(222,771,c),
(135,744,l),
(153,662,o),
(204,600,o),
(300,600,cs),
(396,600,o),
(447,662,o),
(465,744,c)
);
}
);
width = 600;
}
);
note = breve;
unicode = 728;
}
{
color = 3;
glyphname = dotaccent;
layers = (
{
layerId = m003;
shapes = (
{
closed = 1;
nodes = (
(328,638,o),
(344,653,o),
(344,682,cs),
(344,710,o),
(328,724,o),
(300,724,cs),
(272,724,o),
(256,710,o),
(256,682,cs),
(256,653,o),
(272,638,o),
(300,638,cs)
);
}
);
width = 600;
},
{
layerId = m01;
shapes = (
{
closed = 1;
nodes = (
(334,633,o),
(353,650,o),
(353,685,cs),
(353,719,o),
(334,736,o),
(300,736,cs),
(266,736,o),
(247,719,o),
(247,685,cs),
(247,650,o),
(266,633,o),
(300,633,cs)
);
}
);
width = 600;
},
{
layerId = "54FF0D0B-6EB9-4889-908D-B8898FFCE7DE";
shapes = (
{
closed = 1;
nodes = (
(337,630,o),
(358,648,o),
(358,686,cs),
(358,724,o),
(337,742,o),
(300,742,cs),
(263,742,o),
(242,724,o),
(242,686,cs),
(242,648,o),
(263,630,o),
(300,630,cs)
);
}
);
width = 600;
},
{
layerId = "E7059794-B319-4C6D-9648-9B840A1B2BBD";
shapes = (
{
closed = 1;
nodes = (
(342,625,o),
(365,646,o),
(365,688,cs),
(365,731,o),
(342,751,o),
(300,751,cs),
(258,751,o),
(235,731,o),
(235,688,cs),
(235,646,o),
(258,625,o),
(300,625,cs)
);
}
);
width = 600;
},
{
layerId = m005;
shapes = (
{
closed = 1;
nodes = (
(346,621,o),
(372,644,o),
(372,690,cs),
(372,738,o),
(346,760,o),
(300,760,cs),
(254,760,o),
(228,738,o),
(228,690,cs),
(228,644,o),
(254,621,o),
(300,621,cs)
);
}
);
width = 600;
}
);
note = dotaccent;
unicode = 729;
}
{
color = 3;
glyphname = ring;
layers = (
{
layerId = m003;
shapes = (
{
closed = 1;
nodes = (
(359,600,o),
(400,639,o),
(400,697,cs),
(400,756,o),
(359,795,o),
(300,795,cs),
(241,795,o),
(200,756,o),
(200,697,cs),
(200,639,o),
(241,600,o),
(300,600,cs)
);
},
{
closed = 1;
nodes = (
(265,638,o),
(243,660,o),
(243,697,cs),
(243,734,o),
(265,757,o),
(300,757,cs),
(335,757,o),
(357,734,o),
(357,697,cs),
(357,660,o),
(335,638,o),
(300,638,cs)
);
}
);
width = 600;
},
{
layerId = m01;
shapes = (
{
closed = 1;
nodes = (
(365,596,o),
(409,638,o),
(409,700,cs),
(409,763,o),
(365,805,o),
(300,805,cs),
(236,805,o),
(191,763,o),
(191,700,cs),
(191,638,o),
(236,596,o),
(300,596,cs)
);
},
{
closed = 1;
nodes = (
(267,643,o),
(245,666,o),
(245,700,cs),
(245,735,o),
(267,757,o),
(300,757,cs),
(334,757,o),
(355,735,o),
(355,700,cs),
(355,666,o),
(334,643,o),
(300,643,cs)
);
}
);
width = 600;
},
{
layerId = "54FF0D0B-6EB9-4889-908D-B8898FFCE7DE";
shapes = (
{
closed = 1;
nodes = (
(368,593,o),
(414,637,o),
(414,702,cs),
(414,767,o),
(368,810,o),
(300,810,cs),
(233,810,o),
(186,767,o),
(186,702,cs),
(186,637,o),
(233,593,o),
(300,593,cs)
);
},
{
closed = 1;
nodes = (
(267,646,o),
(246,668,o),
(246,702,cs),
(246,735,o),
(267,757,o),
(300,757,cs),
(333,757,o),
(354,735,o),
(354,702,cs),
(354,668,o),
(333,646,o),
(300,646,cs)
);
}
);
width = 600;
},
{
layerId = "E7059794-B319-4C6D-9648-9B840A1B2BBD";
shapes = (
{
closed = 1;
nodes = (
(372,590,o),
(421,636,o),
(421,704,cs),
(421,772,o),
(372,818,o),
(300,818,cs),
(228,818,o),
(179,772,o),
(179,704,cs),
(179,636,o),
(228,590,o),
(300,590,cs)
);
},
{
closed = 1;
nodes = (
(268,650,o),
(248,672,o),
(248,704,cs),
(248,736,o),
(268,757,o),
(300,757,cs),
(332,757,o),
(352,736,o),
(352,704,cs),
(352,672,o),
(332,650,o),
(300,650,cs)
);
}
);
width = 600;
},
{
layerId = m005;
shapes = (
{
closed = 1;
nodes = (
(376,587,o),
(428,635,o),
(428,706,cs),
(428,777,o),
(376,825,o),
(300,825,cs),
(224,825,o),
(172,777,o),
(172,706,cs),
(172,635,o),
(224,587,o),
(300,587,cs)
);
},
{
closed = 1;
nodes = (
(269,654,o),
(250,676,o),
(250,706,cs),
(250,737,o),
(269,757,o),
(300,757,cs),
(331,757,o),
(350,737,o),
(350,706,cs),
(350,676,o),
(331,654,o),
(300,654,cs)
);
}
);
width = 600;
}
);
note = ring;
unicode = 730;
}
{
color = 3;
glyphname = tildecomb;
layers = (
{
anchors = (
{
name = _top;
pos = (300,505);
},
{
name = top;
pos = (300,658);
}
);
layerId = m003;
shapes = (
{
closed = 1;
nodes = (
(418,628,o),
(448,667,o),
(464,701,c),
(427,727,l),
(414,702,o),
(395,676,o),
(370,676,cs),
(323,676,o),
(282,738,o),
(225,738,cs),
(182,738,o),
(152,699,o),
(136,664,c),
(173,639,l),
(186,664,o),
(205,690,o),
(230,690,cs),
(277,690,o),
(318,628,o),
(375,628,cs)
);
}
);
width = 600;
},
{
anchors = (
{
name = _top;
pos = (301,505);
},
{
name = top;
pos = (301,662);
}
);
layerId = m01;
shapes = (
{
closed = 1;
nodes = (
(425,609,o),
(458,651,o),
(474,691,c),
(424,724,l),
(411,698,o),
(394,673,o),
(369,673,cs),
(322,673,o),
(279,732,o),
(222,732,cs),
(176,732,o),
(143,690,o),
(127,650,c),
(176,617,l),
(189,643,o),
(207,668,o),
(232,668,cs),
(279,668,o),
(321,609,o),
(378,609,cs)
);
}
);
width = 600;
},
{
anchors = (
{
name = _top;
pos = (301,505);
},
{
name = top;
pos = (301,681);
}
);
layerId = "54FF0D0B-6EB9-4889-908D-B8898FFCE7DE";
shapes = (
{
closed = 1;
nodes = (
(428,601,o),
(463,645,o),
(479,687,c),
(422,724,l),
(409,698,o),
(393,673,o),
(368,673,cs),
(321,673,o),
(277,731,o),
(220,731,cs),
(173,731,o),
(138,687,o),
(122,645,c),
(178,608,l),
(191,634,o),
(208,659,o),
(233,659,cs),
(280,659,o),
(323,601,o),
(380,601,cs)
);
}
);
width = 600;
},
{
anchors = (
{
name = _top;
pos = (300,505);
},
{
name = top;
pos = (300,671);
}
);
layerId = "E7059794-B319-4C6D-9648-9B840A1B2BBD";
shapes = (
{
closed = 1;
nodes = (
(433,582,o),
(470,628,o),
(486,674,c),
(420,717,l),
(407,690,o),
(391,666,o),
(366,666,cs),
(319,666,o),
(275,721,o),
(218,721,cs),
(168,721,o),
(130,675,o),
(114,629,c),
(180,586,l),
(193,612,o),
(209,637,o),
(234,637,cs),
(281,637,o),
(325,582,o),
(382,582,cs)
);
}
);
width = 600;
},
{
anchors = (
{
name = _top;
pos = (300,505);
},
{
name = top;
pos = (300,669);
}
);
layerId = m005;
shapes = (
{
closed = 1;
nodes = (
(438,571,o),
(477,619,o),
(493,669,c),
(418,717,l),
(405,690,o),
(390,666,o),
(365,666,cs),
(318,666,o),
(273,719,o),
(216,719,cs),
(164,719,o),
(123,671,o),
(107,621,c),
(182,573,l),
(195,599,o),
(210,624,o),
(235,624,cs),
(282,624,o),
(327,571,o),
(384,571,cs)
);
}
);
width = 600;
}
);
note = tilde;
unicode = 771;
}
{
color = 3;
glyphname = brevecomb;
layers = (
{
anchors = (
{
name = _top;
pos = (300,505);
},
{
name = top;
pos = (300,689);
}
);
layerId = m003;
shapes = (
{
closed = 1;
nodes = (
(399,769,l),
(383,709,o),
(356,673,o),
(300,673,cs),
(244,673,o),
(217,709,o),
(201,769,c),
(156,754,l),
(174,681,o),
(220,628,o),
(300,628,cs),
(380,628,o),
(426,681,o),
(444,754,c)
);
}
);
width = 600;
},
{
anchors = (
{
name = _top;
pos = (300,505);
},
{
name = top;
pos = (300,690);
}
);
layerId = m01;
shapes = (
{
closed = 1;
nodes = (
(392,760,l),
(378,702,o),
(351,669,o),
(300,669,cs),
(249,669,o),
(223,702,o),
(208,760,c),
(149,741,l),
(167,665,o),
(215,609,o),
(300,609,cs),
(386,609,o),
(433,665,o),
(451,741,c)
);
}
);
width = 600;
},
{
anchors = (
{
name = _top;
pos = (300,505);
},
{
name = top;
pos = (300,708);
}
);
layerId = "54FF0D0B-6EB9-4889-908D-B8898FFCE7DE";
shapes = (
{
closed = 1;
nodes = (
(388,758,l),
(375,700,o),
(349,668,o),
(300,668,cs),
(251,668,o),
(226,700,o),
(212,758,c),
(145,737,l),
(163,659,o),
(212,601,o),
(300,601,cs),
(388,601,o),
(437,659,o),
(455,737,c)
);
}
);
width = 600;
},
{
anchors = (
{
name = _top;
pos = (300,505);
},
{
name = top;
pos = (300,696);
}
);
layerId = "E7059794-B319-4C6D-9648-9B840A1B2BBD";
shapes = (
{
closed = 1;
nodes = (
(383,746,l),
(370,689,o),
(345,660,o),
(300,660,cs),
(255,660,o),
(230,689,o),
(217,746,c),
(140,722,l),
(158,642,o),
(208,582,o),
(300,582,cs),
(392,582,o),
(442,642,o),
(460,722,c)
);
}
);
width = 600;
},
{
anchors = (
{
name = _top;
pos = (300,505);
},
{
name = top;
pos = (300,692);
}
);
layerId = m005;
shapes = (
{
closed = 1;
nodes = (
(378,742,l),
(366,686,o),
(342,659,o),
(300,659,cs),
(258,659,o),
(234,686,o),
(222,742,c),
(135,715,l),
(153,633,o),
(204,571,o),
(300,571,cs),
(396,571,o),
(447,633,o),
(465,715,c)
);
}
);
width = 600;
}
);
note = breve;
unicode = 774;
}
{
color = 3;
glyphname = hungarumlautcomb;
layers = (
{
anchors = (
{
name = _top;
pos = (295,505);
},
{
name = top;
pos = (295,734);
}
);
layerId = m003;
shapes = (
{
closed = 1;
nodes = (
(284,787,l),
(240,814,l),
(138,642,l),
(173,623,l)
);
},
{
closed = 1;
nodes = (
(451,787,l),
(406,814,l),
(305,642,l),
(339,623,l)
);
}
);
width = 600;
},
{
anchors = (
{
name = _top;
pos = (295,505);
},
{
name = top;
pos = (295,735);
}
);
layerId = m01;
shapes = (
{
closed = 1;
nodes = (
(289,770,l),
(231,805,l),
(129,628,l),
(172,604,l)
);
},
{
closed = 1;
nodes = (
(460,770,l),
(402,805,l),
(300,628,l),
(343,604,l)
);
}
);
width = 600;
},
{
anchors = (
{
name = _top;
pos = (295,505);
},
{
name = top;
pos = (295,753);
}
);
layerId = "54FF0D0B-6EB9-4889-908D-B8898FFCE7DE";
shapes = (
{
closed = 1;
nodes = (
(291,764,l),
(226,803,l),
(124,623,l),
(172,596,l)
);
},
{
closed = 1;
nodes = (
(465,764,l),
(399,803,l),
(298,623,l),
(345,596,l)
);
}
);
width = 600;
},
{
anchors = (
{
name = _top;
pos = (294,505);
},
{
name = top;
pos = (294,741);
}
);
layerId = "E7059794-B319-4C6D-9648-9B840A1B2BBD";
shapes = (
{
closed = 1;
nodes = (
(295,746,l),
(219,791,l),
(116,607,l),
(171,577,l)
);
},
{
closed = 1;
nodes = (
(472,746,l),
(396,791,l),
(294,607,l),
(348,577,l)
);
}
);
width = 600;
},
{
anchors = (
{
name = _top;
pos = (294,505);
},
{
name = top;
pos = (294,737);
}
);
layerId = m005;
shapes = (
{
closed = 1;
nodes = (
(298,736,l),
(212,787,l),
(109,599,l),
(170,566,l)
);
},
{
closed = 1;
nodes = (
(479,736,l),
(393,787,l),
(291,599,l),
(351,566,l)
);
}
);
width = 600;
}
);
note = hungarumlaut;
unicode = 779;
}
{
color = 3;
glyphname = caroncomb;
layers = (
{
anchors = (
{
name = _top;
pos = (300,505);
},
{
name = top;
pos = (300,710);
}
);
layerId = m003;
shapes = (
{
closed = 1;
nodes = (
(329,633,l),
(441,763,l),
(408,790,l),
(300,670,l),
(192,790,l),
(159,763,l),
(271,633,l)
);
}
);
width = 600;
},
{
anchors = (
{
name = _top;
pos = (300,505);
},
{
name = top;
pos = (300,710);
}
);
layerId = m01;
shapes = (
{
closed = 1;
nodes = (
(339,614,l),
(448,745,l),
(405,780,l),
(300,662,l),
(195,780,l),
(152,745,l),
(262,614,l)
);
}
);
width = 600;
},
{
anchors = (
{
name = _top;
pos = (300,505);
},
{
name = top;
pos = (300,727);
}
);
layerId = "54FF0D0B-6EB9-4889-908D-B8898FFCE7DE";
shapes = (
{
closed = 1;
nodes = (
(344,606,l),
(452,737,l),
(403,777,l),
(300,660,l),
(197,777,l),
(148,737,l),
(257,606,l)
);
}
);
width = 600;
},
{
anchors = (
{
name = _top;
pos = (300,505);
},
{
name = top;
pos = (300,716);
}
);
layerId = "E7059794-B319-4C6D-9648-9B840A1B2BBD";
shapes = (
{
closed = 1;
nodes = (
(351,587,l),
(457,720,l),
(401,766,l),
(300,650,l),
(199,766,l),
(143,720,l),
(249,587,l)
);
}
);
width = 600;
},
{
anchors = (
{
name = _top;
pos = (300,505);
},
{
name = top;
pos = (300,712);
}
);
layerId = m005;
shapes = (
{
closed = 1;
nodes = (
(358,576,l),
(462,710,l),
(399,762,l),
(300,647,l),
(201,762,l),
(138,710,l),
(242,576,l)
);
}
);
width = 600;
}
);
note = caron;
unicode = 780;
}
{
glyphname = figuredash;
layers = (
{
layerId = m003;
shapes = (
{
closed = 1;
nodes = (
(551,291,l),
(551,344,l),
(61,344,l),
(61,291,l)
);
}
);
width = 612;
},
{
layerId = m01;
shapes = (
{
closed = 1;
nodes = (
(570,283,l),
(570,353,l),
(63,353,l),
(63,283,l)
);
}
);
width = 632;
},
{
layerId = "54FF0D0B-6EB9-4889-908D-B8898FFCE7DE";
shapes = (
{
closed = 1;
nodes = (
(579,279,l),
(579,358,l),
(63,358,l),
(63,279,l)
);
}
);
width = 642;
},
{
layerId = "E7059794-B319-4C6D-9648-9B840A1B2BBD";
shapes = (
{
closed = 1;
nodes = (
(595,272,l),
(595,365,l),
(64,365,l),
(64,272,l)
);
}
);
width = 659;
},
{
layerId = m005;
shapes = (
{
closed = 1;
nodes = (
(607,266,l),
(607,372,l),
(65,372,l),
(65,266,l)
);
}
);
width = 672;
}
);
unicode = 8210;
}
{
glyphname = endash;
layers = (
{
layerId = m003;
shapes = (
{
closed = 1;
nodes = (
(580,291,l),
(580,344,l),
(39,344,l),
(39,291,l)
);
}
);
width = 619;
},
{
layerId = m01;
shapes = (
{
closed = 1;
nodes = (
(593,283,l),
(593,353,l),
(37,353,l),
(37,283,l)
);
}
);
width = 629;
},
{
layerId = "54FF0D0B-6EB9-4889-908D-B8898FFCE7DE";
shapes = (
{
closed = 1;
nodes = (
(599,279,l),
(599,358,l),
(35,358,l),
(35,279,l)
);
}
);
width = 634;
},
{
layerId = "E7059794-B319-4C6D-9648-9B840A1B2BBD";
shapes = (
{
closed = 1;
nodes = (
(609,272,l),
(609,365,l),
(33,365,l),
(33,272,l)
);
}
);
width = 642;
},
{
layerId = m005;
shapes = (
{
closed = 1;
nodes = (
(618,266,l),
(618,372,l),
(31,372,l),
(31,266,l)
);
}
);
width = 649;
}
);
unicode = 8211;
}
{
glyphname = emdash;
layers = (
{
layerId = m003;
shapes = (
{
closed = 1;
nodes = (
(691,291,l),
(691,344,l),
(39,344,l),
(39,291,l)
);
}
);
width = 730;
},
{
layerId = m01;
shapes = (
{
closed = 1;
nodes = (
(704,283,l),
(704,353,l),
(37,353,l),
(37,283,l)
);
}
);
width = 740;
},
{
layerId = "54FF0D0B-6EB9-4889-908D-B8898FFCE7DE";
shapes = (
{
closed = 1;
nodes = (
(710,279,l),
(710,358,l),
(35,358,l),
(35,279,l)
);
}
);
width = 745;
},
{
layerId = "E7059794-B319-4C6D-9648-9B840A1B2BBD";
shapes = (
{
closed = 1;
nodes = (
(720,272,l),
(720,365,l),
(33,365,l),
(33,272,l)
);
}
);
width = 753;
},
{
layerId = m005;
shapes = (
{
closed = 1;
nodes = (
(729,266,l),
(729,372,l),
(31,372,l),
(31,266,l)
);
}
);
width = 760;
}
);
unicode = 8212;
}
{
glyphname = horizontalbar;
layers = (
{
layerId = m003;
shapes = (
{
closed = 1;
nodes = (
(0,295,l),
(1010,295,l),
(1010,343,l),
(0,343,l)
);
}
);
width = 1010;
},
{
layerId = m01;
shapes = (
{
closed = 1;
nodes = (
(0,285,l),
(1010,285,l),
(1010,351,l),
(0,351,l)
);
}
);
width = 1010;
},
{
layerId = "54FF0D0B-6EB9-4889-908D-B8898FFCE7DE";
shapes = (
{
closed = 1;
nodes = (
(0,280,l),
(1010,280,l),
(1010,355,l),
(0,355,l)
);
}
);
width = 1010;
},
{
layerId = "E7059794-B319-4C6D-9648-9B840A1B2BBD";
shapes = (
{
closed = 1;
nodes = (
(0,272,l),
(1010,272,l),
(1010,362,l),
(0,362,l)
);
}
);
width = 1010;
},
{
layerId = m005;
shapes = (
{
closed = 1;
nodes = (
(0,265,l),
(1010,265,l),
(1010,368,l),
(0,368,l)
);
}
);
width = 1010;
}
);
unicode = 8213;
}
{
glyphname = quoteleft;
layers = (
{
associatedMasterId = m003;
layerId = "31D9143E-DE4E-4ECD-824A-83E85C658417";
name = "24년 9월 19일 11:39";
shapes = (
{
closed = 1;
nodes = (
(73,510,l),
(141,510,l),
(197,757,l),
(141,757,l)
);
}
);
width = 242;
},
{
layerId = m003;
name = Light;
shapes = (
{
closed = 1;
nodes = (
(167,757,l),
(102,757,l),
(46,510,l),
(102,510,l)
);
}
);
width = 213;
},
{
associatedMasterId = m01;
layerId = "985873F2-7980-43E2-8E8C-B9AC0934BAFA";
name = "24년 9월 19일 11:40";
shapes = (
{
closed = 1;
nodes = (
(70,492,l),
(165,492,l),
(219,757,l),
(146,757,l)
);
}
);
width = 262;
},
{
layerId = m01;
name = Regular;
shapes = (
{
closed = 1;
nodes = (
(183,757,l),
(100,757,l),
(46,492,l),
(118,492,l)
);
}
);
width = 229;
},
{
associatedMasterId = "54FF0D0B-6EB9-4889-908D-B8898FFCE7DE";
layerId = "6608595C-2F38-47D6-9F7D-38CD5D3B28AD";
name = "24년 9월 19일 11:41";
shapes = (
{
closed = 1;
nodes = (
(69,483,l),
(179,483,l),
(232,757,l),
(149,757,l)
);
}
);
width = 274;
},
{
layerId = "54FF0D0B-6EB9-4889-908D-B8898FFCE7DE";
name = Medium;
shapes = (
{
closed = 1;
nodes = (
(192,757,l),
(98,757,l),
(45,483,l),
(131,483,l)
);
}
);
width = 237;
},
{
associatedMasterId = "E7059794-B319-4C6D-9648-9B840A1B2BBD";
layerId = "4A5BEE1C-C112-4317-A5DF-D979A0C8DB9B";
name = "24년 9월 19일 11:41";
shapes = (
{
closed = 1;
nodes = (
(66,465,l),
(203,465,l),
(254,757,l),
(155,757,l)
);
}
);
width = 294;
},
{
layerId = "E7059794-B319-4C6D-9648-9B840A1B2BBD";
name = SemiBold;
shapes = (
{
closed = 1;
nodes = (
(204,757,l),
(96,757,l),
(47,474,l),
(143,474,l)
);
}
);
width = 251;
},
{
associatedMasterId = m005;
layerId = "3B1549C3-9F0D-43FA-9BC1-F44F7A4EA490";
name = "24년 9월 19일 11:42";
shapes = (
{
closed = 1;
nodes = (
(65,457,l),
(214,457,l),
(264,757,l),
(157,757,l)
);
}
);
width = 302;
},
{
layerId = m005;
name = Bold;
shapes = (
{
closed = 1;
nodes = (
(211,757,l),
(97,757,l),
(49,465,l),
(148,465,l)
);
}
);
width = 260;
}
);
note = quoteleft;
unicode = 8216;
}
{
glyphname = quotedblright;
layers = (
{
associatedMasterId = m003;
layerId = "773BD8D6-48BE-4BC2-9ED6-08AA734A1239";
name = "24년 9월 19일 11:40";
shapes = (
{
closed = 1;
nodes = (
(170,757,l),
(102,757,l),
(46,510,l),
(102,510,l)
);
},
{
closed = 1;
nodes = (
(318,757,l),
(250,757,l),
(194,510,l),
(250,510,l)
);
}
);
width = 390;
},
{
layerId = m003;
name = Light;
shapes = (
{
closed = 1;
nodes = (
(167,757,l),
(102,757,l),
(46,510,l),
(102,510,l)
);
},
{
closed = 1;
nodes = (
(315,757,l),
(250,757,l),
(194,510,l),
(250,510,l)
);
}
);
width = 361;
},
{
associatedMasterId = m01;
layerId = "229AA8E5-D825-4681-BCB1-0291DEACD307";
name = "24년 9월 19일 11:40";
shapes = (
{
closed = 1;
nodes = (
(192,757,l),
(97,757,l),
(43,492,l),
(116,492,l)
);
},
{
closed = 1;
nodes = (
(367,757,l),
(272,757,l),
(218,492,l),
(291,492,l)
);
}
);
width = 437;
},
{
layerId = m01;
name = Regular;
shapes = (
{
closed = 1;
nodes = (
(182,757,l),
(101,757,l),
(47,492,l),
(117,492,l)
);
},
{
closed = 1;
nodes = (
(357,757,l),
(276,757,l),
(222,492,l),
(292,492,l)
);
}
);
width = 404;
},
{
associatedMasterId = "54FF0D0B-6EB9-4889-908D-B8898FFCE7DE";
layerId = "CE678C3E-37A2-45EF-BC8A-FBB59F612474";
name = "24년 9월 19일 11:41";
shapes = (
{
closed = 1;
nodes = (
(205,757,l),
(95,757,l),
(42,483,l),
(124,483,l)
);
},
{
closed = 1;
nodes = (
(394,757,l),
(285,757,l),
(232,483,l),
(314,483,l)
);
}
);
width = 463;
},
{
layerId = "54FF0D0B-6EB9-4889-908D-B8898FFCE7DE";
name = Medium;
shapes = (
{
closed = 1;
nodes = (
(192,757,l),
(98,757,l),
(45,483,l),
(131,483,l)
);
},
{
closed = 1;
nodes = (
(381,757,l),
(288,757,l),
(235,483,l),
(321,483,l)
);
}
);
width = 426;
},
{
associatedMasterId = "E7059794-B319-4C6D-9648-9B840A1B2BBD";
layerId = "4C02F6F6-8EA6-4D75-AAB4-E874B5A907D6";
name = "24년 9월 19일 11:41";
shapes = (
{
closed = 1;
nodes = (
(227,757,l),
(90,757,l),
(39,465,l),
(139,465,l)
);
},
{
closed = 1;
nodes = (
(444,757,l),
(307,757,l),
(256,465,l),
(356,465,l)
);
}
);
width = 510;
},
{
layerId = "E7059794-B319-4C6D-9648-9B840A1B2BBD";
name = SemiBold;
shapes = (
{
closed = 1;
nodes = (
(208,757,l),
(102,757,l),
(51,474,l),
(145,474,l)
);
},
{
closed = 1;
nodes = (
(417,757,l),
(311,757,l),
(260,474,l),
(354,474,l)
);
}
);
width = 468;
},
{
associatedMasterId = m005;
layerId = "C546B18A-89F0-4159-9C72-3374CECDED3E";
name = "24년 9월 19일 11:42";
shapes = (
{
closed = 1;
nodes = (
(237,757,l),
(88,757,l),
(38,457,l),
(145,457,l)
);
},
{
closed = 1;
nodes = (
(466,757,l),
(317,757,l),
(267,457,l),
(374,457,l)
);
}
);
width = 531;
},
{
layerId = m005;
name = Bold;
shapes = (
{
closed = 1;
nodes = (
(217,757,l),
(105,757,l),
(57,465,l),
(154,465,l)
);
},
{
closed = 1;
nodes = (
(432,757,l),
(320,757,l),
(272,465,l),
(369,465,l)
);
}
);
width = 489;
}
);
unicode = 8221;
}
{
glyphname = bullet;
layers = (
{
layerId = m003;
shapes = (
{
closed = 1;
nodes = (
(321,242,o),
(364,286,o),
(364,356,cs),
(364,427,o),
(321,470,o),
(250,470,cs),
(179,470,o),
(136,427,o),
(136,356,cs),
(136,286,o),
(179,242,o),
(250,242,cs)
);
}
);
width = 500;
},
{
layerId = m01;
shapes = (
{
closed = 1;
nodes = (
(325,235,o),
(370,281,o),
(370,355,cs),
(370,430,o),
(325,475,o),
(250,475,cs),
(176,475,o),
(130,430,o),
(130,355,cs),
(130,281,o),
(176,235,o),
(250,235,cs)
);
}
);
width = 500;
},
{
layerId = "54FF0D0B-6EB9-4889-908D-B8898FFCE7DE";
shapes = (
{
closed = 1;
nodes = (
(327,231,o),
(373,278,o),
(373,355,cs),
(373,431,o),
(327,478,o),
(250,478,cs),
(174,478,o),
(127,431,o),
(127,355,cs),
(127,278,o),
(174,231,o),
(250,231,cs)
);
}
);
width = 500;
},
{
layerId = "E7059794-B319-4C6D-9648-9B840A1B2BBD";
shapes = (
{
closed = 1;
nodes = (
(330,226,o),
(378,274,o),
(378,354,cs),
(378,433,o),
(330,482,o),
(250,482,cs),
(171,482,o),
(122,433,o),
(122,354,cs),
(122,274,o),
(171,226,o),
(250,226,cs)
);
}
);
width = 500;
},
{
layerId = m005;
shapes = (
{
closed = 1;
nodes = (
(333,221,o),
(382,270,o),
(382,353,cs),
(382,435,o),
(333,486,o),
(250,486,cs),
(169,486,o),
(118,435,o),
(118,353,cs),
(118,270,o),
(169,221,o),
(250,221,cs)
);
}
);
width = 500;
}
);
note = bullet;
unicode = 8226;
}
{
glyphname = triangularbullet;
layers = (
{
layerId = m003;
shapes = (
{
closed = 1;
nodes = (
(414,356,l),
(163,514,l),
(163,197,l)
);
}
);
width = 500;
},
{
layerId = m01;
shapes = (
{
closed = 1;
nodes = (
(413,356,l),
(152,520,l),
(152,192,l)
);
}
);
width = 500;
},
{
layerId = "54FF0D0B-6EB9-4889-908D-B8898FFCE7DE";
shapes = (
{
closed = 1;
nodes = (
(412,356,l),
(146,523,l),
(146,189,l)
);
}
);
width = 500;
},
{
layerId = "E7059794-B319-4C6D-9648-9B840A1B2BBD";
shapes = (
{
closed = 1;
nodes = (
(410,356,l),
(137,527,l),
(137,184,l)
);
}
);
width = 500;
},
{
layerId = m005;
shapes = (
{
closed = 1;
nodes = (
(409,356,l),
(129,531,l),
(129,180,l)
);
}
);
width = 500;
}
);
unicode = 8227;
}
{
glyphname = perthousand;
layers = (
{
layerId = m003;
shapes = (
{
closed = 1;
nodes = (
(282,423,o),
(342,463,o),
(342,570,cs),
(342,676,o),
(283,717,o),
(206,717,cs),
(131,717,o),
(70,676,o),
(70,570,cs),
(70,463,o),
(130,423,o),
(206,423,cs)
);
},
{
closed = 1;
nodes = (
(116,651,o),
(158,675,o),
(206,676,cs),
(255,676,o),
(295,651,o),
(295,570,cs),
(295,488,o),
(255,465,o),
(206,465,cs),
(157,465,o),
(116,488,o),
(116,570,cs)
);
},
{
closed = 1;
nodes = (
(130,0,l),
(190,0,l),
(678,712,l),
(618,712,l)
);
},
{
closed = 1;
nodes = (
(467,31,o),
(526,-10,o),
(602,-10,cs),
(678,-10,o),
(738,31,o),
(738,138,cs),
(738,244,o),
(679,284,o),
(602,285,cs),
(527,284,o),
(465,244,o),
(466,138,cs)
);
},
{
closed = 1;
nodes = (
(512,220,o),
(554,242,o),
(602,243,cs),
(651,243,o),
(691,220,o),
(691,138,cs),
(691,57,o),
(650,32,o),
(602,32,cs),
(553,32,o),
(512,57,o),
(512,138,cs)
);
},
{
closed = 1;
nodes = (
(804,31,o),
(863,-10,o),
(939,-10,cs),
(1014,-10,o),
(1074,31,o),
(1074,138,cs),
(1074,244,o),
(1015,284,o),
(939,284,cs),
(864,284,o),
(802,244,o),
(803,138,cs)
);
},
{
closed = 1;
nodes = (
(849,220,o),
(891,242,o),
(939,242,cs),
(988,243,o),
(1028,220,o),
(1028,138,cs),
(1028,57,o),
(987,32,o),
(939,32,cs),
(890,32,o),
(849,57,o),
(849,138,cs)
);
}
);
width = 1145;
},
{
layerId = m01;
shapes = (
{
closed = 1;
nodes = (
(301,403,o),
(364,451,o),
(364,562,cs),
(364,671,o),
(301,719,o),
(215,719,cs),
(129,719,o),
(65,670,o),
(65,562,cs),
(65,451,o),
(128,403,o),
(215,403,cs)
);
},
{
closed = 1;
nodes = (
(135,636,o),
(170,659,o),
(215,660,cs),
(260,660,o),
(294,636,o),
(294,562,cs),
(294,486,o),
(260,464,o),
(215,464,cs),
(169,464,o),
(135,486,o),
(135,562,cs)
);
},
{
closed = 1;
nodes = (
(127,0,l),
(209,0,l),
(698,712,l),
(615,712,l)
);
},
{
closed = 1;
nodes = (
(461,37,o),
(523,-12,o),
(610,-12,cs),
(696,-12,o),
(760,37,o),
(760,147,cs),
(760,256,o),
(697,304,o),
(610,305,cs),
(524,304,o),
(459,256,o),
(460,147,cs)
);
},
{
closed = 1;
nodes = (
(531,222,o),
(565,244,o),
(610,245,cs),
(655,245,o),
(689,222,o),
(689,147,cs),
(689,72,o),
(655,49,o),
(610,49,cs),
(565,49,o),
(531,72,o),
(531,147,cs)
);
},
{
closed = 1;
nodes = (
(821,37,o),
(883,-12,o),
(970,-12,cs),
(1056,-12,o),
(1120,37,o),
(1120,147,cs),
(1120,256,o),
(1057,304,o),
(970,305,cs),
(884,304,o),
(819,256,o),
(820,147,cs)
);
},
{
closed = 1;
nodes = (
(891,222,o),
(925,244,o),
(970,244,cs),
(1015,245,o),
(1049,222,o),
(1049,147,cs),
(1049,72,o),
(1015,49,o),
(970,49,cs),
(925,49,o),
(891,72,o),
(891,147,cs)
);
}
);
width = 1184;
},
{
layerId = "54FF0D0B-6EB9-4889-908D-B8898FFCE7DE";
shapes = (
{
closed = 1;
nodes = (
(310,393,o),
(376,445,o),
(376,557,cs),
(376,668,o),
(311,720,o),
(219,720,cs),
(127,720,o),
(62,667,o),
(62,557,cs),
(62,445,o),
(126,393,o),
(219,393,cs)
);
},
{
closed = 1;
nodes = (
(144,627,o),
(175,650,o),
(219,651,cs),
(262,651,o),
(293,628,o),
(293,557,cs),
(293,485,o),
(262,463,o),
(219,463,cs),
(175,463,o),
(144,485,o),
(144,557,cs)
);
},
{
closed = 1;
nodes = (
(126,0,l),
(218,0,l),
(707,712,l),
(614,712,l)
);
},
{
closed = 1;
nodes = (
(458,40,o),
(521,-13,o),
(614,-13,cs),
(706,-13,o),
(771,40,o),
(771,151,cs),
(771,262,o),
(707,314,o),
(614,315,cs),
(522,314,o),
(456,261,o),
(457,151,cs)
);
},
{
closed = 1;
nodes = (
(540,223,o),
(571,245,o),
(614,246,cs),
(657,246,o),
(688,223,o),
(688,151,cs),
(688,80,o),
(657,57,o),
(614,57,cs),
(570,57,o),
(540,80,o),
(540,151,cs)
);
},
{
closed = 1;
nodes = (
(830,40,o),
(893,-13,o),
(986,-13,cs),
(1078,-13,o),
(1143,40,o),
(1143,151,cs),
(1143,262,o),
(1079,314,o),
(986,315,cs),
(894,314,o),
(828,261,o),
(829,151,cs)
);
},
{
closed = 1;
nodes = (
(912,223,o),
(943,245,o),
(986,245,cs),
(1029,246,o),
(1060,223,o),
(1060,151,cs),
(1060,80,o),
(1029,57,o),
(986,57,cs),
(942,57,o),
(912,80,o),
(912,151,cs)
);
}
);
width = 1204;
},
{
layerId = "E7059794-B319-4C6D-9648-9B840A1B2BBD";
shapes = (
{
closed = 1;
nodes = (
(326,376,o),
(394,436,o),
(394,550,cs),
(394,663,o),
(326,721,o),
(225,721,cs),
(125,721,o),
(57,662,o),
(57,550,cs),
(57,436,o),
(124,376,o),
(225,376,cs)
);
},
{
closed = 1;
nodes = (
(160,614,o),
(184,636,o),
(225,637,cs),
(265,637,o),
(291,615,o),
(291,550,cs),
(291,483,o),
(265,461,o),
(225,461,cs),
(184,461,o),
(160,483,o),
(160,550,cs)
);
},
{
closed = 1;
nodes = (
(123,0,l),
(234,0,l),
(723,712,l),
(612,712,l)
);
},
{
closed = 1;
nodes = (
(453,45,o),
(519,-14,o),
(620,-14,cs),
(721,-14,o),
(789,45,o),
(789,158,cs),
(789,271,o),
(722,331,o),
(620,332,cs),
(519,331,o),
(451,270,o),
(452,158,cs)
);
},
{
closed = 1;
nodes = (
(555,224,o),
(579,246,o),
(620,247,cs),
(660,247,o),
(686,225,o),
(686,158,cs),
(686,93,o),
(660,71,o),
(620,71,cs),
(579,71,o),
(555,93,o),
(555,158,cs)
);
},
{
closed = 1;
nodes = (
(844,45,o),
(910,-14,o),
(1011,-14,cs),
(1112,-14,o),
(1180,45,o),
(1180,158,cs),
(1180,271,o),
(1113,331,o),
(1011,332,cs),
(910,331,o),
(842,270,o),
(843,158,cs)
);
},
{
closed = 1;
nodes = (
(946,224,o),
(970,246,o),
(1011,247,cs),
(1051,247,o),
(1077,225,o),
(1077,158,cs),
(1077,93,o),
(1051,71,o),
(1011,71,cs),
(970,71,o),
(946,93,o),
(946,158,cs)
);
}
);
width = 1237;
},
{
layerId = m005;
shapes = (
{
closed = 1;
nodes = (
(338,363,o),
(409,428,o),
(409,544,cs),
(409,659,o),
(338,722,o),
(231,722,cs),
(123,722,o),
(53,658,o),
(53,544,cs),
(53,428,o),
(122,363,o),
(231,363,cs)
);
},
{
closed = 1;
nodes = (
(172,604,o),
(192,625,o),
(231,626,cs),
(268,626,o),
(290,605,o),
(290,544,cs),
(290,481,o),
(268,460,o),
(231,460,cs),
(192,460,o),
(172,481,o),
(172,544,cs)
);
},
{
closed = 1;
nodes = (
(131,0,l),
(257,0,l),
(746,712,l),
(620,712,l)
);
},
{
closed = 1;
nodes = (
(469,49,o),
(537,-15,o),
(646,-15,cs),
(753,-15,o),
(824,49,o),
(824,164,cs),
(824,279,o),
(754,344,o),
(646,345,cs),
(537,344,o),
(467,278,o),
(468,164,cs)
);
},
{
closed = 1;
nodes = (
(587,225,o),
(607,247,o),
(646,248,cs),
(683,248,o),
(704,227,o),
(704,164,cs),
(704,103,o),
(683,82,o),
(646,82,cs),
(607,82,o),
(587,103,o),
(587,164,cs)
);
},
{
closed = 1;
nodes = (
(855,49,o),
(923,-15,o),
(1032,-15,cs),
(1140,-15,o),
(1210,49,o),
(1210,164,cs),
(1210,279,o),
(1141,344,o),
(1032,346,cs),
(923,344,o),
(853,278,o),
(854,164,cs)
);
},
{
closed = 1;
nodes = (
(973,225,o),
(993,247,o),
(1032,249,cs),
(1069,248,o),
(1091,227,o),
(1091,164,cs),
(1091,103,o),
(1070,82,o),
(1032,82,cs),
(993,82,o),
(973,103,o),
(973,164,cs)
);
}
);
width = 1263;
}
);
note = perthousand;
unicode = 8240;
}
{
glyphname = minute;
layers = (
{
layerId = m003;
shapes = (
{
closed = 1;
nodes = (
(139,765,l),
(85,765,l),
(85,506,l),
(132,506,l)
);
}
);
width = 225;
},
{
layerId = m01;
shapes = (
{
closed = 1;
nodes = (
(156,775,l),
(81,775,l),
(81,507,l),
(144,507,l)
);
}
);
width = 237;
},
{
layerId = "54FF0D0B-6EB9-4889-908D-B8898FFCE7DE";
shapes = (
{
closed = 1;
nodes = (
(165,780,l),
(78,780,l),
(78,507,l),
(149,507,l)
);
}
);
width = 243;
},
{
layerId = "E7059794-B319-4C6D-9648-9B840A1B2BBD";
shapes = (
{
closed = 1;
nodes = (
(179,788,l),
(75,788,l),
(75,508,l),
(158,508,l)
);
}
);
width = 253;
},
{
layerId = m005;
shapes = (
{
closed = 1;
nodes = (
(190,795,l),
(72,795,l),
(72,509,l),
(166,509,l)
);
}
);
width = 262;
}
);
note = minute;
unicode = 8242;
}
{
glyphname = second;
layers = (
{
hints = (
{
horizontal = 1;
place = (596,-20);
target = down;
type = TopGhost;
},
{
place = (70,58);
type = Stem;
},
{
horizontal = 1;
place = (596,-20);
target = down;
type = TopGhost;
},
{
place = (199,58);
type = Stem;
}
);
layerId = m003;
shapes = (
{
closed = 1;
nodes = (
(143,765,l),
(87,765,l),
(87,506,l),
(135,506,l)
);
},
{
closed = 1;
nodes = (
(315,765,l),
(259,765,l),
(259,506,l),
(307,506,l)
);
}
);
width = 402;
},
{
hints = (
{
horizontal = 1;
place = (478,-20);
target = down;
type = TopGhost;
},
{
place = (56,47);
type = Stem;
},
{
horizontal = 1;
place = (478,-20);
target = down;
type = TopGhost;
},
{
place = (160,47);
type = Stem;
}
);
layerId = m01;
shapes = (
{
closed = 1;
nodes = (
(162,775,l),
(86,775,l),
(86,507,l),
(149,507,l)
);
},
{
closed = 1;
nodes = (
(343,775,l),
(267,775,l),
(267,507,l),
(330,507,l)
);
}
);
width = 429;
},
{
hints = (
{
horizontal = 1;
place = (416,-20);
target = down;
type = TopGhost;
},
{
place = (49,41);
type = Stem;
},
{
horizontal = 1;
place = (416,-20);
target = down;
type = TopGhost;
},
{
place = (139,41);
type = Stem;
}
);
layerId = "54FF0D0B-6EB9-4889-908D-B8898FFCE7DE";
shapes = (
{
closed = 1;
nodes = (
(172,780,l),
(85,780,l),
(85,507,l),
(156,507,l)
);
},
{
closed = 1;
nodes = (
(358,780,l),
(271,780,l),
(271,507,l),
(342,507,l)
);
}
);
width = 443;
},
{
hints = (
{
horizontal = 1;
place = (319,-20);
target = down;
type = TopGhost;
},
{
place = (37,32);
type = Stem;
},
{
horizontal = 1;
place = (319,-20);
target = down;
type = TopGhost;
},
{
place = (106,32);
type = Stem;
}
);
layerId = "E7059794-B319-4C6D-9648-9B840A1B2BBD";
shapes = (
{
closed = 1;
nodes = (
(188,788,l),
(83,788,l),
(83,508,l),
(167,508,l)
);
},
{
closed = 1;
nodes = (
(381,788,l),
(277,788,l),
(277,508,l),
(361,508,l)
);
}
);
width = 465;
},
{
hints = (
{
horizontal = 1;
place = (240,-20);
target = down;
type = TopGhost;
},
{
place = (28,24);
type = Stem;
},
{
horizontal = 1;
place = (240,-20);
target = down;
type = TopGhost;
},
{
place = (80,24);
type = Stem;
}
);
layerId = m005;
shapes = (
{
closed = 1;
nodes = (
(201,795,l),
(82,795,l),
(82,509,l),
(176,509,l)
);
},
{
closed = 1;
nodes = (
(400,795,l),
(283,795,l),
(283,509,l),
(377,509,l)
);
}
);
width = 483;
}
);
note = second;
unicode = 8243;
}
